<?xml version="1.0" standalone="no"?>
<!DOCTYPE svg PUBLIC "-//W3C//DTD SVG 1.1//EN" "http://www.w3.org/Graphics/SVG/1.1/DTD/svg11.dtd" >
<svg xmlns="http://www.w3.org/2000/svg">
<metadata>
This is a custom SVG webfont generated by Font Squirrel.
Copyright   : Copyright c 2007 by Dino dos Santos DSType All rights reserved
Designer    : Dino dos Santos
Foundry URL : httpwwwtypetrustcom
</metadata>
<defs>
<font id="PreloBook" horiz-adv-x="1085" >
<font-face units-per-em="2048" ascent="1536" descent="-512" />
<missing-glyph horiz-adv-x="368" />
<glyph unicode=" "  horiz-adv-x="368" />
<glyph unicode="&#x09;" horiz-adv-x="368" />
<glyph unicode="&#xa0;" horiz-adv-x="368" />
<glyph unicode="!" horiz-adv-x="393" d="M125 0v250h143v-250h-143zM125 1434h143l-8 -983h-127z" />
<glyph unicode="&#x22;" horiz-adv-x="802" d="M125 1393h143l-14 -281h-113zM535 1393h143l-14 -281h-113z" />
<glyph unicode="#" horiz-adv-x="1255" d="M131 248l8 96h205l37 334h-205l8 96h205l29 250h104l-26 -250h317l27 250h104l-26 -250h204l-10 -96h-205l-35 -334h205l-10 -96h-205l-26 -248h-105l27 248h-318l-26 -248h-105l27 248h-205zM451 344h317l35 334h-318z" />
<glyph unicode="$" horiz-adv-x="1249" d="M125 125l70 113q90 -59 211.5 -91t228.5 -32q168 0 249 75.5t81 180.5q0 51 -26 93t-55.5 66.5t-86 49t-85 34t-85.5 23.5q-14 4 -23 6q-188 45 -313 147.5t-125 264.5q0 176 120 264t318 92v186h68v-186q248 -8 424 -115l-62 -120q-188 102 -399 102q-309 0 -309 -223 q0 -193 379 -285q420 -94 419 -391q0 -182 -125 -284.5t-327 -112.5v-187h-68v187q-295 4 -479 143z" />
<glyph unicode="%" horiz-adv-x="1556" d="M100 1098q0 129 70 202.5t201 73.5t201.5 -73.5t70.5 -202.5q0 -131 -69.5 -205t-202.5 -74q-131 0 -201 74t-70 205zM190 1098q0 -98 46.5 -151.5t134.5 -53.5t134 53t46 152q0 96 -46 149t-134 53t-134.5 -53t-46.5 -149zM350 0l758 1393h98l-757 -1393h-99zM913 295 q0 131 70 204.5t203 73.5q131 0 200.5 -73.5t69.5 -204.5q0 -129 -69.5 -203t-200.5 -74t-202 74t-71 203zM1006 295q0 -96 46 -149.5t134 -53.5t134 53.5t46 149.5q0 98 -46 151.5t-134 53.5t-134 -53.5t-46 -151.5z" />
<glyph unicode="&#x26;" horiz-adv-x="1443" d="M119 352q0 121 76.5 216.5t271.5 187.5q-2 2 -27.5 30.5t-32 35.5t-28 35t-29.5 42t-23.5 41t-21.5 47.5t-11 46t-5 51.5q0 158 111.5 243t265.5 85q162 0 254 -81t92 -228q0 -98 -75 -188.5t-267 -180.5l399 -393q119 141 156 375h135q-39 -281 -197 -473l176 -183 l-94 -102l-184 191q-195 -170 -477 -170q-229 0 -347 100t-118 272zM270 373q0 -45 15.5 -88t49.5 -86t103.5 -69t165.5 -26q221 0 367 140l-428 436q-131 -61 -202 -131t-71 -176zM430 1094q0 -74 39 -135.5t119 -143.5q287 133 286 295q0 80 -43 129t-84.5 60.5 t-84.5 11.5q-90 0 -145.5 -42t-71 -86t-15.5 -89z" />
<glyph unicode="'" horiz-adv-x="393" d="M125 1393h143l-14 -281h-113z" />
<glyph unicode="(" horiz-adv-x="675" d="M143 696q0 254 91.5 510t257.5 473h100q-303 -494 -303 -983q0 -477 303 -983h-100q-164 215 -256.5 473t-92.5 510z" />
<glyph unicode=")" horiz-adv-x="675" d="M84 -287q303 506 303 983q0 489 -303 983h100q166 -217 257 -473t91 -510q0 -252 -92 -510t-256 -473h-100z" />
<glyph unicode="*" horiz-adv-x="839" d="M78 1120l24 84l285 -78l-10 267h86l-10 -267l282 78l25 -84l-289 -47l188 -231l-67 -54l-174 252l-172 -252l-68 54l189 231z" />
<glyph unicode="+" horiz-adv-x="1024" d="M125 481v123h326v326h122v-326h326v-123h-326v-325h-122v325h-326z" />
<glyph unicode="," horiz-adv-x="393" d="M125 0v250h143v-250l-73 -266h-52l35 266h-53z" />
<glyph unicode="-" horiz-adv-x="1024" d="M125 481v123h774v-123h-774z" />
<glyph unicode="." horiz-adv-x="393" d="M125 0v250h143v-250h-143z" />
<glyph unicode="/" horiz-adv-x="1105" d="M111 0l757 1393h127l-757 -1393h-127z" />
<glyph unicode="0" horiz-adv-x="1208" d="M125 707q0 156 21.5 275.5t73.5 221t148.5 155.5t235.5 54q137 0 234.5 -54t148.5 -155.5t73.5 -221.5t22.5 -275q0 -727 -479 -727q-139 0 -235.5 56t-148.5 161.5t-73.5 228.5t-21.5 281zM276 707q0 -606 328 -606.5t328 606.5q0 586 -328 585q-96 0 -163.5 -47 t-101.5 -133t-48.5 -183t-14.5 -222z" />
<glyph unicode="1" horiz-adv-x="772" d="M82 1147q293 137 446 256h103v-1403h-144v1227l-354 -193z" />
<glyph unicode="2" horiz-adv-x="1126" d="M125 0v143q705 471 704 826q0 98 -32.5 164.5t-87 96.5t-98.5 40t-89 10q-176 0 -352 -84l-45 115q227 102 428 102q211 0 319.5 -116.5t108.5 -295.5q0 -213 -158.5 -423.5t-492.5 -446.5v-4h671v-127h-876z" />
<glyph unicode="3" horiz-adv-x="1167" d="M125 76l47 110q170 -86 387 -86q106 0 178 28t103.5 75t43 86t11.5 82q0 121 -90 192.5t-273 71.5h-167v123h161q162 0 247 82t85 194q0 43 -12 83t-42 82t-93.5 67.5t-151.5 25.5q-176 0 -352 -86l-47 111q190 96 424 96q195 0 306 -96t111 -266q0 -127 -76.5 -213 t-199.5 -123v-4q147 -27 232 -120t85 -229q0 -184 -120.5 -283t-354.5 -99q-262 0 -442 96z" />
<glyph unicode="4" horiz-adv-x="1208" d="M104 375v121q422 461 615 897h182v-897h201v-121h-201v-375h-143v375h-654zM254 496h504v706h-4q-168 -327 -500 -706z" />
<glyph unicode="5" horiz-adv-x="1167" d="M125 82l45 111q186 -92 375 -93q156 0 251 90.5t95 247.5q0 131 -73 224.5t-228 93.5q-176 0 -291 -154l-106 10l34 781h734v-127h-609l-33 -533l5 -2q125 150 313 150t296.5 -116t108.5 -321q0 -223 -131 -343.5t-358 -120.5q-213 0 -428 102z" />
<glyph unicode="6" horiz-adv-x="1167" d="M125 614q0 221 44 381t125 248t179 129t221 41q145 0 303 -51l-18 -111q-152 41 -274 41q-119 0 -208 -56t-136.5 -146.5t-69 -179.5t-23.5 -175l4 -2q139 199 344 199q201 0 312.5 -126t111.5 -355q0 -217 -123.5 -344t-316.5 -127q-109 0 -192.5 34.5t-136 94 t-86 142.5t-47 172t-13.5 191zM279 614q-16 -516 309 -516q129 0 216 93.5t87 259.5q0 63 -13.5 120.5t-46 112.5t-96 88t-153.5 33q-174 -1 -303 -191z" />
<glyph unicode="7" horiz-adv-x="1024" d="M104 1266v127h816v-105q-442 -723 -533 -1288h-160q43 281 201 638t334 624v4h-658z" />
<glyph unicode="8" horiz-adv-x="1208" d="M125 344q0 246 346 369v4q-305 117 -305 348q0 162 124 255t318 93q188 0 311 -92t123 -250q0 -123 -76.5 -197.5t-230.5 -138.5v-4q170 -70 259 -154.5t89 -218.5q0 -178 -129 -278t-354 -100q-219 0 -347 96t-128 268zM272 358q0 -115 81 -192.5t255 -77.5 q172 0 250 72.5t78 185.5q0 53 -23.5 98t-50 72t-87 58.5t-89.5 44t-102 40.5q-141 -51 -226.5 -120.5t-85.5 -180.5zM309 1065q0 -188 312 -277q131 45 204.5 109t73.5 162q0 129 -93 187.5t-206 58.5q-66 0 -127 -18.5t-112.5 -76t-51.5 -145.5z" />
<glyph unicode="9" horiz-adv-x="1167" d="M125 942q0 217 125 344t317 127q135 0 230.5 -52t146.5 -145.5t73.5 -200t22.5 -237.5q0 -221 -44 -380.5t-124.5 -249t-178 -129t-220.5 -39.5q-154 0 -305 49l18 110q160 -41 275 -41q96 0 173 39t124 98.5t79.5 136.5t45 146.5t14.5 136.5l-4 2q-135 -197 -346 -196 q-199 0 -310.5 126t-111.5 355zM276 942q0 -66 13.5 -123t45.5 -112.5t96.5 -88t154.5 -32.5q174 0 299 190q27 516 -310 516q-127 0 -213 -93t-86 -257z" />
<glyph unicode=":" horiz-adv-x="393" d="M125 0v250h143v-250h-143zM125 692v250h143v-250h-143z" />
<glyph unicode=";" horiz-adv-x="393" d="M125 0v250h143v-250l-73 -266h-52l35 266h-53zM125 690v252h143v-252h-143z" />
<glyph unicode="&#x3c;" horiz-adv-x="983" d="M125 467v90l733 373v-129l-582 -289l582 -289v-129z" />
<glyph unicode="=" horiz-adv-x="1024" d="M125 276v123h774v-123h-774zM125 686v123h774v-123h-774z" />
<glyph unicode="&#x3e;" horiz-adv-x="983" d="M125 94v129l582 289l-582 289v129l733 -373v-90z" />
<glyph unicode="?" horiz-adv-x="983" d="M104 1335q195 78 385 78q109 0 188 -29.5t120 -81t60.5 -108.5t19.5 -123q0 -96 -40 -172t-98.5 -124t-116 -89t-97.5 -90t-40 -104v-62h-127v62q0 68 28 122t69 86.5t90 69.5t90 70.5t68.5 87t27.5 121.5q0 229 -274 229q-127 0 -310 -68zM350 0v250h144v-250h-144z" />
<glyph unicode="@" horiz-adv-x="1699" d="M61 518q0 356 234.5 586.5t593.5 230.5q315 0 532 -187t217 -480q0 -229 -133 -381t-375 -152h-100v80h-2q-102 -94 -256 -94q-119 0 -188.5 60.5t-69.5 166.5q0 244 336 244h180v84q0 90 -42 134t-146 44q-117 0 -262 -43l-21 78q166 55 309 55q139 0 209 -59.5 t70 -202.5v-461q113 0 194.5 44t123.5 116t60.5 141.5t18.5 141.5q0 262 -190.5 423.5t-464.5 161.5q-322 0 -527.5 -202.5t-205.5 -528.5q0 -297 189.5 -488.5t479.5 -191.5l-8 -84q-330 0 -543 217t-213 547zM627 356q0 -68 48 -106.5t136 -38.5q135 0 219 74v235h-162 q-241 0 -241 -164z" />
<glyph unicode="A" horiz-adv-x="1331" d="M84 0l496 1403h186l481 -1403h-168l-127 373h-577l-129 -373h-162zM408 502h512l-250 712h-2z" />
<glyph unicode="B" horiz-adv-x="1249" d="M145 0v1393h551q197 0 302.5 -95.5t105.5 -257.5q0 -121 -61.5 -206.5t-174.5 -116.5v-4q133 -29 205 -120t72 -222q0 -174 -104.5 -272.5t-303.5 -98.5h-592zM297 135h418q270 0 270 254q0 121 -74.5 187.5t-222.5 66.5h-391v-508zM297 778h385q262 0 262 240 q0 113 -68.5 176t-193.5 63h-385v-479z" />
<glyph unicode="C" horiz-adv-x="1269" d="M125 707q0 123 15.5 222t54 192t103 155.5t168 99.5t241.5 37q236 0 471 -70l-35 -126q-250 61 -424 61q-129 0 -217 -44t-134 -128t-64.5 -179.5t-18.5 -219.5q0 -133 18.5 -232.5t64.5 -184.5t134 -130t217 -45q174 0 424 61l35 -127q-236 -70 -471 -69 q-137 0 -241 37.5t-168.5 102t-103 160t-54 198t-15.5 229.5z" />
<glyph unicode="D" horiz-adv-x="1331" d="M145 0v1393h486q575 0 575 -686q0 -707 -575 -707h-486zM297 135h334q123 0 207 44t128 128t62.5 179.5t18.5 220t-18.5 217t-62.5 172.5t-128 120.5t-207 40.5h-334v-1122z" />
<glyph unicode="E" horiz-adv-x="1146" d="M145 0v1393h867v-136h-715v-466h623v-136h-623v-520h725v-135h-877z" />
<glyph unicode="F" horiz-adv-x="1095" d="M145 0v1393h846v-136h-694v-507h602v-136h-602v-614h-152z" />
<glyph unicode="G" horiz-adv-x="1310" d="M125 707q0 123 15.5 222t54 192t103 155.5t168 99.5t241.5 37q236 0 471 -70l-35 -126q-250 61 -424 61q-129 0 -217 -44t-134 -128t-64.5 -179.5t-18.5 -219.5q0 -133 18.5 -232.5t64.5 -184.5t134 -130t217 -45q160 0 295 86v364h-291v135h442v-602q-80 -39 -132 -59.5 t-142 -39.5t-184 -19q-137 0 -241 37.5t-168.5 102t-103 160t-54 198t-15.5 229.5z" />
<glyph unicode="H" horiz-adv-x="1310" d="M145 0v1393h152v-602h717v602h151v-1393h-151v655h-717v-655h-152z" />
<glyph unicode="I" horiz-adv-x="442" d="M145 0v1393h152v-1393h-152z" />
<glyph unicode="J" horiz-adv-x="667" d="M39 -6l14 129q63 -10 123 -10q104 0 149.5 55t45.5 178v1047h151v-1053q0 -197 -76.5 -278.5t-230.5 -81.5q-84 0 -176 14z" />
<glyph unicode="K" horiz-adv-x="1275" d="M145 0v1393h152v-766l694 766h180l-507 -574l522 -819h-191l-442 698l-256 -280v-418h-152z" />
<glyph unicode="L" horiz-adv-x="1105" d="M145 0v1393h152v-1258h704v-135h-856z" />
<glyph unicode="M" horiz-adv-x="1638" d="M145 0v1393h197l479 -1135h4l471 1135h197v-1393h-152v1108h-4l-465 -1108h-114l-461 1108h-4v-1108h-148z" />
<glyph unicode="N" horiz-adv-x="1331" d="M145 0v1393h152l737 -1112h4v1112h148v-1393h-160l-729 1096h-4v-1096h-148z" />
<glyph unicode="O" horiz-adv-x="1413" d="M125 707q0 123 15.5 222t54 192t103 155.5t168 99.5t241 37t241 -37t168 -99.5t103 -155.5t54 -192.5t15.5 -221.5q0 -125 -15.5 -227.5t-54 -198t-103 -160t-168 -103t-241 -38.5t-241 38.5t-168 103t-103 160t-54 198t-15.5 227.5zM285 707q0 -102 9 -182.5t35.5 -161 t71.5 -135t123 -88.5t182.5 -34t182.5 34t123 88.5t71.5 135t35.5 160.5t9 183q0 100 -9 179t-35.5 156.5t-71.5 129t-123 83t-182.5 31.5t-182.5 -31.5t-123 -83t-71.5 -129t-35.5 -156.5t-9 -179z" />
<glyph unicode="P" horiz-adv-x="1228" d="M145 0v1393h564q197 0 306 -113t109 -291q0 -186 -108.5 -295.5t-306.5 -109.5h-412v-584h-152zM297 719h397q131 0 203 67.5t72 202.5q0 125 -73 196.5t-202 71.5h-397v-538z" />
<glyph unicode="Q" horiz-adv-x="1413" d="M125 707q0 123 15.5 222t54 192t103 155.5t168 99.5t241 37t241 -37t167 -99.5t102 -155.5t54 -192.5t15.5 -221.5q0 -659 -483 -678v-4q92 -86 323 -93q61 0 134 7v-138q-66 -8 -144 -8q-328 4 -446 187q-158 6 -267.5 65t-169 162.5t-84 224.5t-24.5 275zM283 706.5 q0 -102.5 9 -181.5t35.5 -160.5t71.5 -136t123 -88.5t185 -34q104 0 182 34t123 88.5t71.5 135t35.5 161.5t9 181.5t-9 179.5t-35.5 156.5t-71.5 128t-123 82t-182 31.5q-106 0 -184.5 -31.5t-123.5 -82t-71.5 -129t-35.5 -155.5t-9 -179.5z" />
<glyph unicode="R" horiz-adv-x="1259" d="M145 0v1393h564q195 0 305 -116t110 -298q0 -154 -85 -260.5t-240 -128.5l370 -590h-178l-350 565h-344v-565h-152zM297 700h385q131 0 209 73t78 206q0 127 -74 202.5t-201 75.5h-397v-557z" />
<glyph unicode="S" horiz-adv-x="1228" d="M125 49l27 127q250 -61 462 -61q164 0 247 74.5t83 179.5q0 82 -63.5 141t-116.5 78.5t-160 48.5q-14 4 -20 6q-190 47 -314.5 148.5t-124.5 263.5q0 182 129 270t340 88q225 0 461 -70l-35 -126q-250 61 -426 61q-164 0 -236.5 -63.5t-72.5 -163.5q0 -63 36 -113.5 t101.5 -83.5t117.5 -50.5t124 -33.5q420 -94 420 -391q0 -193 -135 -296t-355 -103q-251 -1 -489 69z" />
<glyph unicode="T" horiz-adv-x="1146" d="M104 1257v136h938v-136h-393v-1257h-151v1257h-394z" />
<glyph unicode="U" horiz-adv-x="1310" d="M145 492v901h152v-901q0 -385 365 -386q92 0 159.5 26t103.5 63.5t57.5 94t26.5 101.5t5 101v901h151v-901q0 -264 -128 -388t-382 -124q-256 0 -383 124t-127 388z" />
<glyph unicode="V" horiz-adv-x="1331" d="M84 1393h168l422 -1215h2l409 1215h162l-481 -1403h-186z" />
<glyph unicode="W" horiz-adv-x="1925" d="M84 1393h168l311 -1205h2l312 1205h180l313 -1205h2l307 1205h162l-375 -1403h-196l-305 1161h-4l-306 -1161h-196z" />
<glyph unicode="X" horiz-adv-x="1331" d="M90 0l469 729l-426 664h176l355 -539l348 539h178l-430 -664l479 -729h-182l-404 606l-393 -606h-170z" />
<glyph unicode="Y" horiz-adv-x="1269" d="M84 1393h174l379 -744h4l379 744h166l-475 -901v-492h-152v492z" />
<glyph unicode="Z" horiz-adv-x="1146" d="M92 0v113l737 1140v4h-696v136h901v-113l-731 -1141v-4h752v-135h-963z" />
<glyph unicode="[" horiz-adv-x="614" d="M125 -287v1966h405v-90h-254v-1786h254v-90h-405z" />
<glyph unicode="\" horiz-adv-x="1105" d="M111 1393h127l757 -1393h-127z" />
<glyph unicode="]" horiz-adv-x="614" d="M84 -197h254v1786h-254v90h405v-1966h-405v90z" />
<glyph unicode="^" horiz-adv-x="778" d="M125 1044l213 390h100l215 -390h-82l-182 308l-182 -308h-82z" />
<glyph unicode="_" horiz-adv-x="1024" d="M125 -123h774v-90h-774v90z" />
<glyph unicode="`" horiz-adv-x="593" d="M184 1434h144l112 -287h-98z" />
<glyph unicode="a" horiz-adv-x="1034" d="M94 276q0 307 430 308h242v118q0 115 -59.5 168.5t-194.5 53.5q-143 0 -328 -37l-22 117q209 41 381 40q188 0 277 -73.5t89 -261.5v-709h-143v102h-4q-150 -123 -334 -122q-154 0 -244 79.5t-90 216.5zM238 287q0 -88 64.5 -141.5t178.5 -53.5q156 0 285 98v304h-234 q-160 0 -227 -52.5t-67 -154.5z" />
<glyph unicode="b" d="M125 -2v1436h143v-512h4q129 123 326 122q383 0 383 -532q0 -244 -93 -388t-296 -144q-193 0 -328 118h-4l-24 -100h-111zM268 197q123 -96 277 -97q285 0 284.5 412t-284.5 412q-158 0 -277 -99v-628z" />
<glyph unicode="c" horiz-adv-x="983" d="M104 512q0 532 490 532q162 0 342 -45l-27 -116q-162 41 -315 41q-168 0 -253 -112t-85 -300q0 -186 82 -299t256 -113q154 0 315 41l27 -118q-184 -43 -342 -43q-490 0 -490 532z" />
<glyph unicode="d" d="M104 512q0 244 93.5 388t296.5 144q188 0 319 -120h4v510h144v-1434h-144v102h-4q-133 -123 -326 -122q-383 0 -383 532zM256 512q0 -412 285 -412q154 0 276 97v628q-119 98 -276 99q-285 0 -285 -412z" />
<glyph unicode="e" d="M104 512q0 532 490 532q119 0 203 -36.5t125 -92t59 -132.5q16 -66 16 -125q0 -10 -1 -20q-3 -69 -17 -144h-721q10 -393 367 -394q195 0 319 41l21 -118q-164 -43 -359 -43q-502 0 -502 532zM258 586h588q9 37 9 75q0 24 -4 48q-9 61 -32.5 111t-84 81t-148.5 31 q-299 0 -328 -346z" />
<glyph unicode="f" horiz-adv-x="706" d="M47 920v94l160 10v139q0 143 63.5 207t221.5 64q59 0 155 -15l-14 -116q-82 10 -144 10q-78 0 -108.5 -38t-30.5 -126v-125h262v-104h-262v-920h-143v920h-160z" />
<glyph unicode="g" horiz-adv-x="1136" d="M72 -164q0 139 184 238v4q-76 42 -76 119q0 16 3 34q19 102 124 175v4q-170 86 -170 286q0 164 107.5 256t298.5 92q76 0 137 -20h352v-90h-217v-2q123 -76 123 -236q0 -164 -109.5 -250t-285.5 -86q-88 0 -158 25q-67 -63 -67 -136q0 -77 79 -81l375 -23 q293 -16 293 -225q0 -350 -584 -350q-409 0 -409 266zM193 -141q0 -90 78.5 -141.5t242.5 -51.5q174 0 286.5 59.5t112.5 170.5q0 125 -190 133l-389 20q-72 -49 -106.5 -89t-34.5 -101zM272 696q0 -113 72 -175t199 -62q121 0 192.5 64.5t71.5 172.5q0 113 -72.5 182.5 t-191.5 69.5q-131 0 -201 -68.5t-70 -183.5z" />
<glyph unicode="h" d="M125 0v1434h143v-560h4q180 170 381 170q307 0 308 -335v-709h-144v678q0 246 -225 246q-150 0 -324 -138v-786h-143z" />
<glyph unicode="i" horiz-adv-x="393" d="M125 0v1024h143v-1024h-143zM125 1190v244h143v-244h-143z" />
<glyph unicode="j" horiz-adv-x="475" d="M-90 -416l14 113q59 -10 111 -10q98 0 135 36.5t37 131.5v1169h143v-1184q0 -145 -64.5 -207.5t-219.5 -62.5q-62 0 -156 14zM207 1190v244h143v-244h-143z" />
<glyph unicode="k" horiz-adv-x="1095" d="M125 0v1434h143v-859l547 449h176l-397 -346l418 -678h-172l-346 582l-226 -183v-399h-143z" />
<glyph unicode="l" horiz-adv-x="393" d="M125 0v1434h143v-1434h-143z" />
<glyph unicode="m" horiz-adv-x="1699" d="M125 0v1024h143v-150h4q166 170 342 170q223 0 283 -184q172 184 371 184q307 0 307 -335v-709h-143v678q0 246 -226 246q-55 0 -117.5 -27t-92 -49.5t-83.5 -63.5q8 -47 9 -112v-672h-144v684q0 109 -54 174.5t-171 65.5q-57 0 -117.5 -27t-87 -47.5t-80.5 -63.5v-786 h-143z" />
<glyph unicode="n" d="M125 0v1024h143v-150h4q180 170 381 170q307 0 308 -335v-709h-144v678q0 246 -225 246q-150 0 -324 -138v-786h-143z" />
<glyph unicode="o" horiz-adv-x="1126" d="M104 512q0 532 459 532t459 -532t-459 -532t-459 532zM256 512q0 -412 307 -412t307 412t-307 412t-307 -412z" />
<glyph unicode="p" d="M125 -410v1434h143v-102h4q129 123 326 122q383 0 383 -532q0 -244 -93 -388t-296 -144q-195 0 -320 118h-4v-508h-143zM268 197q123 -96 277 -97q285 0 284.5 412t-284.5 412q-158 0 -277 -99v-628z" />
<glyph unicode="q" d="M104 512q0 244 93.5 388t296.5 144q190 0 327 -120h4l25 102h111v-1436h-144v512h-4q-133 -123 -326 -122q-383 0 -383 532zM256 512q0 -412 285 -412q154 0 276 97v628q-119 98 -276 99q-285 0 -285 -412z" />
<glyph unicode="r" horiz-adv-x="757" d="M125 0v1024h143v-164h4q184 184 402 184v-135q-111 0 -220.5 -42t-185.5 -95v-772h-143z" />
<glyph unicode="s" horiz-adv-x="983" d="M94 25l27 116q178 -45 387 -45q76 0 128 21.5t73.5 54.5t28.5 57.5t7 44.5q0 63 -54 106.5t-204 74.5q-180 33 -276 101.5t-96 211.5q0 135 94 205.5t272 70.5q219 0 400 -45l-27 -116q-178 45 -365 45q-76 0 -126 -18.5t-70.5 -47t-27.5 -50t-7 -40.5q0 -66 50 -110 t196 -74q193 -39 289 -104.5t96 -200.5q0 -145 -94.5 -224t-272.5 -79q-248 0 -428 45z" />
<glyph unicode="t" horiz-adv-x="768" d="M47 920v94l160 10l18 287h125v-287h303v-104h-303v-598q0 -111 42 -169.5t145 -58.5q35 0 110 10l17 -110q-125 -14 -164 -14q-150 0 -221.5 71.5t-71.5 247.5v621h-160z" />
<glyph unicode="u" d="M125 315v709h143v-678q0 -246 226 -246q145 0 323 136v788h144v-1024h-144v150h-4q-176 -170 -381 -170q-307 -1 -307 335z" />
<glyph unicode="v" horiz-adv-x="1146" d="M98 1024h160l315 -870h5l319 870h152l-390 -1034h-172z" />
<glyph unicode="w" horiz-adv-x="1617" d="M98 1024h158l252 -870h4l229 870h142l241 -870h4l242 870h150l-312 -1034h-157l-242 813h-4l-230 -813h-159z" />
<glyph unicode="x" horiz-adv-x="1116" d="M84 0l385 532l-354 492h166l282 -387l279 387h151l-354 -487l391 -537h-170l-315 426l-305 -426h-156z" />
<glyph unicode="y" horiz-adv-x="1146" d="M98 1024h160l330 -883h4l305 883h152l-396 -1098q-68 -190 -160 -273t-233 -83q-70 0 -137 14l14 121q43 -10 94 -10q102 0 165 80t110 205z" />
<glyph unicode="z" horiz-adv-x="962" d="M66 0v104l628 803v4h-598v113h785v-104l-627 -803v-4h643v-113h-831z" />
<glyph unicode="{" horiz-adv-x="696" d="M125 653v86q51 8 82 27.5t43 60.5t15 72t3 94q0 59 -10 191.5t-10 195.5q0 180 90 239.5t274 59.5v-65q-49 0 -76.5 -5t-64.5 -24.5t-54.5 -71t-17.5 -135.5q0 -61 11.5 -217.5t11.5 -220.5q0 -115 -44 -168t-130 -74v-4q86 -20 130 -73.5t44 -167.5q0 -63 -11.5 -220 t-11.5 -219q0 -84 17.5 -135t54.5 -70.5t64.5 -24.5t76.5 -5v-66q-184 0 -274 59.5t-90 239.5q0 63 10 195.5t10 191.5q0 63 -3 94t-15 72t-43 60.5t-82 27.5z" />
<glyph unicode="|" horiz-adv-x="348" d="M125 -205v1802h98v-1802h-98z" />
<glyph unicode="}" horiz-adv-x="696" d="M84 -221q49 0 76.5 5t64.5 24.5t54.5 70.5t17.5 135q0 61 -11.5 218t-11.5 221q0 115 44 168t131 73v4q-86 20 -130.5 73.5t-44.5 168.5q0 63 11.5 220t11.5 218q0 84 -17.5 135.5t-54.5 71t-64.5 24.5t-76.5 5v65q184 0 274.5 -59t90.5 -240q0 -63 -10.5 -195 t-10.5 -192q0 -63 3 -94t15.5 -72t43 -60t81.5 -28v-86q-51 -8 -81.5 -27.5t-43 -60.5t-15.5 -71.5t-3 -94.5q0 -59 10.5 -191t10.5 -196q0 -180 -90.5 -239.5t-274.5 -59.5v66z" />
<glyph unicode="~" horiz-adv-x="942" d="M92 606q63 92 113.5 130t103.5 38t196.5 -58.5t174.5 -58.5q78 0 133 93l41 -45q-72 -143 -164 -144q-47 0 -191.5 56.5t-185.5 56.5q-35 0 -70.5 -18.5t-103.5 -86.5z" />
<glyph unicode="&#xa1;" horiz-adv-x="393" d="M125 -410l8 983h127l8 -983h-143zM125 774v250h143v-250h-143z" />
<glyph unicode="&#xa2;" horiz-adv-x="1044" d="M125 512q0 231 125 377.5t342 152.5v187h65v-187q141 -4 299 -73l-16 -113q-174 63 -283 68v-824q109 2 283 66l16 -113q-152 -68 -299 -71v-187h-65v187q-217 6 -342 151.5t-125 378.5zM276 512q0 -170 83 -285.5t233 -124.5v818q-150 -8 -233 -123t-83 -285z" />
<glyph unicode="&#xa3;" horiz-adv-x="1269" d="M125 0v127h102v524h-102v111h102v293q0 184 126 271t335 87q279 0 469 -117l-61 -120q-188 102 -400 102q-172 0 -248.5 -66.5t-76.5 -175.5v-274h487v-111h-487v-524h733v-127h-979z" />
<glyph unicode="&#xa4;" horiz-adv-x="1050" d="M143 928l17 16l162 -184q90 74 204 74q113 0 203 -74l160 184l18 -16l-159 -183q102 -96 102 -235t-100 -234l155 -176l-18 -18l-158 178q-88 -72 -203 -72q-117 0 -204 72l-156 -178l-19 18l156 176q-98 94 -98 233.5t98 233.5zM229 510q0 -121 88.5 -209t209 -88 t209.5 88t89 209t-89 210t-209.5 89t-209 -89t-88.5 -210z" />
<glyph unicode="&#xa5;" horiz-adv-x="1351" d="M125 1393h174l379 -744h4l379 744h166l-453 -852h330v-90h-352v-451h-152v451h-352v90h330z" />
<glyph unicode="&#xa6;" horiz-adv-x="348" d="M125 -205v819h98v-819h-98zM125 778v819h98v-819h-98z" />
<glyph unicode="&#xa7;" horiz-adv-x="1228" d="M137 727q0 227 195 326q-186 117 -187 309q0 182 129 270t340 88q272 0 461 -118l-61 -119q-190 100 -400 100q-154 0 -227.5 -57.5t-73.5 -153.5q0 -203 369 -295q420 -98 420 -391q0 -227 -195 -330q188 -123 188.5 -305t-129.5 -270t-339 -88q-272 0 -461 119l59 118 q190 -100 402 -100q147 0 225 60.5t78 164.5q0 190 -373 279q-420 98 -420 393zM297 733q0 -61 29.5 -108t86 -77t94.5 -43t97 -30q102 -27 168 -53q86 37 129 106.5t43 149.5q0 27 -7 51.5t-16.5 44t-30 37.5t-33.5 30.5t-43 27t-43 20.5t-48 18.5t-43 14.5t-44 12t-38 10 q-90 25 -135 41q-82 -37 -124 -107.5t-42 -144.5z" />
<glyph unicode="&#xa8;" horiz-adv-x="983" d="M166 1198v236h129v-236h-129zM688 1198v236h129v-236h-129z" />
<glyph unicode="&#xa9;" horiz-adv-x="1566" d="M61 696q0 299 211 508t510 209q301 0 512 -209t211 -508t-211 -507.5t-512 -208.5q-299 0 -510 208.5t-211 507.5zM133 696.5q0 -270.5 189.5 -461t460 -190.5t461 190.5t190.5 461t-190.5 457.5t-461 187t-460 -187t-189.5 -457.5zM453 705q0 170 86 261t249 91 q145 0 252 -74l-32 -70q-104 63 -215 64q-244 0 -244 -272q0 -293 244 -293q119 0 213 61l34 -67q-106 -74 -252 -74q-164 0 -249.5 96.5t-85.5 276.5z" />
<glyph unicode="&#xaa;" horiz-adv-x="606" d="M98 1018q0 154 215 153h121v72q0 100 -125 100q-63 0 -166 -20l-10 59q113 20 191 21q94 0 138 -37t44 -131v-354h-72v51h-2q-74 -61 -166 -62q-78 0 -123 40t-45 108zM170 1024q0 -43 33 -70.5t90 -27.5q80 0 141 51v151h-115q-149 0 -149 -104z" />
<glyph unicode="&#xab;" horiz-adv-x="1495" d="M125 467v90l528 334v-152l-377 -227l377 -227v-152zM842 467v90l528 334v-152l-377 -227l377 -227v-152z" />
<glyph unicode="&#xac;" horiz-adv-x="1208" d="M166 481v123h876v-346h-120v223h-756z" />
<glyph unicode="&#xad;" horiz-adv-x="1105" d="M166 481v123h774v-123h-774z" />
<glyph unicode="&#xae;" horiz-adv-x="1566" d="M61 696q0 299 211 508t510 209q301 0 512 -209t211 -508t-211 -507.5t-512 -208.5q-299 0 -510 208.5t-211 507.5zM131 696.5q0 -270.5 190.5 -461t461 -190.5t461 190.5t190.5 461t-190.5 457.5t-461 187t-461 -187t-190.5 -457.5zM532 344v705h279q117 0 185.5 -60.5 t68.5 -167.5q0 -94 -49 -152.5t-137 -68.5l208 -256h-110l-197 242h-159v-242h-89zM621 668h184q168 0 168 153q0 70 -42 108t-120 38h-190v-299z" />
<glyph unicode="&#xaf;" horiz-adv-x="901" d="M141 1210v105h619v-105h-619z" />
<glyph unicode="&#xb0;" horiz-adv-x="532" d="M86 1188q0 76 52 128t128 52t128 -52t52 -128t-52 -128t-128 -52t-128 52t-52 128zM145 1188q0 -53 34 -87t87 -34t87 34t34 87t-34 87t-87 34t-87 -34t-34 -87z" />
<glyph unicode="&#xb1;" horiz-adv-x="1024" d="M125 102v121h326v271h-326v120h326v328h122v-328h326v-120h-326v-271h326v-121h-774z" />
<glyph unicode="&#xb2;" horiz-adv-x="641" d="M100 1106v76q350 236 351 407q0 90 -48.5 122t-103.5 32q-72 0 -176 -49l-23 59q115 59 219.5 59t158.5 -58t54 -148q0 -201 -323 -428v-2h334v-70h-443z" />
<glyph unicode="&#xb3;" horiz-adv-x="661" d="M100 1141l23 61q100 -53 199 -53q88 0 124.5 39t36.5 84q0 139 -178 139h-84v66h80q80 0 122 39.5t42 97.5q0 47 -32 86t-109.5 39t-180.5 -53l-26 61q98 55 215 55q98 0 154.5 -48t56.5 -134q0 -61 -39 -104t-98 -62v-2q74 -14 115.5 -60t41.5 -112q0 -92 -61.5 -143.5 t-177.5 -51.5q-136 1 -224 56z" />
<glyph unicode="&#xb4;" horiz-adv-x="593" d="M147 1147l113 287h141l-155 -287h-99z" />
<glyph unicode="&#xb5;" d="M-172 -416l14 113q59 -10 111 -10q98 0 135 43t37 147v1147h143v-684q0 -109 54.5 -174.5t171.5 -65.5q145 0 323 136v788h144v-1024h-144v150h-4q-176 -170 -381 -170q-109 0 -164 59v-174q0 -162 -63.5 -228.5t-220.5 -66.5q-62 0 -156 14z" />
<glyph unicode="&#xb6;" horiz-adv-x="1157" d="M61 999q0 182 113 288t299 106h559v-60h-168v-1333h-67v1333h-135v-729h-189q-184 0 -298 109.5t-114 285.5z" />
<glyph unicode="&#xb7;" horiz-adv-x="393" d="M125 387v250h143v-250h-143z" />
<glyph unicode="&#xb8;" horiz-adv-x="602" d="M129 -406l10 62q66 -16 111 -16q68 0 97.5 32.5t29.5 73.5q0 39 -32 69.5t-107 32.5v152h61v-115q170 -14 170 -147q0 -72 -53.5 -120t-141.5 -48q-69 -1 -145 24z" />
<glyph unicode="&#xb9;" horiz-adv-x="620" d="M98 1679q152 72 226 129h53v-639h143v-63h-364v63h143v549l-180 -98z" />
<glyph unicode="&#xba;" horiz-adv-x="657" d="M100 1128.5q0 266.5 230 266.5q227 0 227 -266.5t-227 -266.5q-230 0 -230 266.5zM176 1128q0 -205 153.5 -204.5t153.5 204.5q0 207 -153.5 207t-153.5 -207z" />
<glyph unicode="&#xbb;" horiz-adv-x="1495" d="M125 133v152l377 227l-377 227v152l528 -334v-90zM842 133v152l377 227l-377 227v152l528 -334v-90z" />
<glyph unicode="&#xbc;" horiz-adv-x="1638" d="M113 1270q152 72 225 129h53v-639h144v-64h-365v64h143v549l-180 -99zM489 0l758 1393h51l-757 -1393h-52zM1022 184v66q211 229 305 446h98v-446h101v-66h-101v-184h-77v184h-326zM1104 250h244v344h-2q-76 -154 -242 -344z" />
<glyph unicode="&#xbd;" horiz-adv-x="1638" d="M113 1270q152 72 225 129h53v-639h144v-64h-365v64h143v549l-180 -99zM428 0l758 1393h51l-758 -1393h-51zM1083 0v76q350 236 351 407q0 90 -48.5 122t-103.5 32q-72 0 -176 -49l-23 59q115 59 219.5 59.5t159 -58t54.5 -148.5q0 -201 -324 -428v-2h334v-70h-443z" />
<glyph unicode="&#xbe;" horiz-adv-x="1638" d="M113 731l22 62q100 -53 199 -54q88 0 125 39t37 84q0 139 -179 139h-84v66h80q80 0 122 40t42 97q0 47 -31.5 86t-109.5 39t-180 -53l-27 61q98 55 215 56q98 0 154.5 -48.5t56.5 -134.5q0 -61 -39 -104t-98 -62v-2q74 -14 115.5 -60t41.5 -112q0 -92 -61 -143t-178 -51 q-135 0 -223 55zM489 0l758 1393h51l-757 -1393h-52zM1022 184v66q211 229 305 446h98v-446h101v-66h-101v-184h-77v184h-326zM1104 250h244v344h-2q-76 -154 -242 -344z" />
<glyph unicode="&#xbf;" horiz-adv-x="1024" d="M125 -39q0 102 41 179t98.5 121t114.5 81t98 84t41 106v62h127v-62q0 -68 -27.5 -122t-68.5 -86.5t-90 -69.5t-90 -70.5t-69 -87t-28 -121.5q0 -229 275 -229q127 0 309 68l43 -125q-195 -78 -385 -78q-113 0 -192.5 31.5t-120.5 86t-58.5 112t-17.5 120.5zM510 774v250 h143v-250h-143z" />
<glyph unicode="&#xc0;" horiz-adv-x="1331" d="M84 0l496 1403h186l481 -1403h-168l-127 373h-577l-129 -373h-162zM408 502h512l-250 712h-2zM428 1782h143l113 -287h-98z" />
<glyph unicode="&#xc1;" horiz-adv-x="1331" d="M84 0l496 1403h186l481 -1403h-168l-127 373h-577l-129 -373h-162zM408 502h512l-250 712h-2zM635 1495l113 287h139l-156 -287h-96z" />
<glyph unicode="&#xc2;" horiz-adv-x="1331" d="M84 0l496 1403h186l481 -1403h-168l-127 373h-577l-129 -373h-162zM393 1495l213 287h101l215 -287h-99l-166 174l-165 -174h-99zM408 502h512l-250 712h-2z" />
<glyph unicode="&#xc3;" horiz-adv-x="1331" d="M84 0l496 1403h186l481 -1403h-168l-127 373h-577l-129 -373h-162zM330 1569q113 166 217 166q53 0 145 -50.5t123 -50.5q25 0 39 3t41 20.5t53 54.5l41 -45q-74 -145 -166 -145q-43 0 -137 49t-135 49q-43 0 -76 -15.5t-98 -74.5zM408 502h512l-250 712h-2z" />
<glyph unicode="&#xc4;" horiz-adv-x="1331" d="M84 0l496 1403h186l481 -1403h-168l-127 373h-577l-129 -373h-162zM336 1546v236h129v-236h-129zM408 502h512l-250 712h-2zM858 1546v236h129v-236h-129z" />
<glyph unicode="&#xc5;" horiz-adv-x="1331" d="M84 0l496 1403h186l481 -1403h-168l-127 373h-577l-129 -373h-162zM408 502h512l-250 712h-2zM477 1679.5q0 75.5 52.5 128t128 52.5t128 -52.5t52.5 -128t-52.5 -128t-128 -52.5t-128 52.5t-52.5 128zM537 1679.5q0 -53.5 34.5 -87t86 -33.5t86 33.5t34.5 87t-34.5 87 t-86 33.5t-86 -33.5t-34.5 -87z" />
<glyph unicode="&#xc6;" horiz-adv-x="1896" d="M84 0l733 1393h944v-136h-714v-466h622v-136h-622v-520h725v-135h-877v551h-363l-294 -551h-154zM586 672h309v583h-4z" />
<glyph unicode="&#xc7;" horiz-adv-x="1269" d="M125 707q0 123 15.5 222t54 192t103 155.5t168 99.5t241.5 37q236 0 471 -70l-35 -126q-250 61 -424 61q-129 0 -217 -44t-134 -128t-64.5 -179.5t-18.5 -219.5q0 -133 18.5 -232.5t64.5 -184.5t134 -130t217 -45q174 0 424 61l35 -127q-225 -66 -455 -69v-95 q72 -6 122 -40.5t50 -106.5t-53.5 -120t-143.5 -48q-66 0 -145 24l12 62q66 -16 111 -16q68 0 97.5 33.5t29.5 72.5t-32 69.5t-107 32.5v134q-158 6 -266.5 64t-167 161.5t-82 223.5t-23.5 276z" />
<glyph unicode="&#xc8;" horiz-adv-x="1146" d="M145 0v1393h867v-136h-715v-466h623v-136h-623v-520h725v-135h-877zM403 1782h144l112 -287h-98z" />
<glyph unicode="&#xc9;" horiz-adv-x="1146" d="M145 0v1393h867v-136h-715v-466h623v-136h-623v-520h725v-135h-877zM506 1495l112 287h140l-156 -287h-96z" />
<glyph unicode="&#xca;" horiz-adv-x="1146" d="M145 0v1393h867v-136h-715v-466h623v-136h-623v-520h725v-135h-877zM338 1495l213 287h100l215 -287h-98l-166 174l-166 -174h-98z" />
<glyph unicode="&#xcb;" horiz-adv-x="1146" d="M145 0v1393h867v-136h-715v-466h623v-136h-623v-520h725v-135h-877zM250 1546v236h129v-236h-129zM772 1546v236h129v-236h-129z" />
<glyph unicode="&#xcc;" horiz-adv-x="442" d="M16 1782h144l112 -287h-98zM145 0v1393h152v-1393h-152z" />
<glyph unicode="&#xcd;" horiz-adv-x="442" d="M145 0v1393h152v-1393h-152zM180 1495l113 287h139l-156 -287h-96z" />
<glyph unicode="&#xce;" horiz-adv-x="442" d="M-41 1495l213 287h100l215 -287h-98l-166 174l-166 -174h-98zM143 0v1393h152v-1393h-152z" />
<glyph unicode="&#xcf;" horiz-adv-x="442" d="M-102 1546v236h129v-236h-129zM147 0v1393h152v-1393h-152zM420 1546v236h129v-236h-129z" />
<glyph unicode="&#xd0;" horiz-adv-x="1345" d="M43 662v90h119v641h485q573 0 574 -686q0 -707 -574 -707h-485v662h-119zM311 135h336q121 0 206 45t129 127t62.5 178.5t18.5 221.5q0 98 -11.5 176t-39 149.5t-73.5 119.5t-120 76.5t-172 28.5h-336v-505h256v-90h-256v-527z" />
<glyph unicode="&#xd1;" horiz-adv-x="1331" d="M145 0v1393h152l737 -1112h4v1112h148v-1393h-160l-729 1096h-4v-1096h-148zM356 1569q113 166 217 166q53 0 145.5 -50.5t123.5 -50.5q25 0 39 3t40.5 20.5t53.5 54.5l41 -45q-74 -145 -166 -145q-43 0 -137.5 49t-134.5 49q-43 0 -76 -15.5t-99 -74.5z" />
<glyph unicode="&#xd2;" horiz-adv-x="1413" d="M125 707q0 123 15.5 222t54 192t103 155.5t168 99.5t241 37t241 -37t168 -99.5t103 -155.5t54 -192.5t15.5 -221.5q0 -125 -15.5 -227.5t-54 -198t-103 -160t-168 -103t-241 -38.5t-241 38.5t-168 103t-103 160t-54 198t-15.5 227.5zM285 707q0 -102 9 -182.5t35.5 -161 t71.5 -135t123 -88.5t182.5 -34t182.5 34t123 88.5t71.5 135t35.5 160.5t9 183q0 100 -9 179t-35.5 156.5t-71.5 129t-123 83t-182.5 31.5t-182.5 -31.5t-123 -83t-71.5 -129t-35.5 -156.5t-9 -179zM535 1782h143l113 -287h-99z" />
<glyph unicode="&#xd3;" horiz-adv-x="1413" d="M125 707q0 123 15.5 222t54 192t103 155.5t168 99.5t241 37t241 -37t168 -99.5t103 -155.5t54 -192.5t15.5 -221.5q0 -125 -15.5 -227.5t-54 -198t-103 -160t-168 -103t-241 -38.5t-241 38.5t-168 103t-103 160t-54 198t-15.5 227.5zM285 707q0 -102 9 -182.5t35.5 -161 t71.5 -135t123 -88.5t182.5 -34t182.5 34t123 88.5t71.5 135t35.5 160.5t9 183q0 100 -9 179t-35.5 156.5t-71.5 129t-123 83t-182.5 31.5t-182.5 -31.5t-123 -83t-71.5 -129t-35.5 -156.5t-9 -179zM653 1495l113 287h139l-155 -287h-97z" />
<glyph unicode="&#xd4;" horiz-adv-x="1413" d="M125 707q0 123 15.5 222t54 192t103 155.5t168 99.5t241 37t241 -37t168 -99.5t103 -155.5t54 -192.5t15.5 -221.5q0 -125 -15.5 -227.5t-54 -198t-103 -160t-168 -103t-241 -38.5t-241 38.5t-168 103t-103 160t-54 198t-15.5 227.5zM285 707q0 -102 9 -182.5t35.5 -161 t71.5 -135t123 -88.5t182.5 -34t182.5 34t123 88.5t71.5 135t35.5 160.5t9 183q0 100 -9 179t-35.5 156.5t-71.5 129t-123 83t-182.5 31.5t-182.5 -31.5t-123 -83t-71.5 -129t-35.5 -156.5t-9 -179zM444 1495l213 287h101l215 -287h-99l-165 174l-166 -174h-99z" />
<glyph unicode="&#xd5;" horiz-adv-x="1413" d="M125 707q0 123 15.5 222t54 192t103 155.5t168 99.5t241 37t241 -37t168 -99.5t103 -155.5t54 -192.5t15.5 -221.5q0 -125 -15.5 -227.5t-54 -198t-103 -160t-168 -103t-241 -38.5t-241 38.5t-168 103t-103 160t-54 198t-15.5 227.5zM285 707q0 -102 9 -182.5t35.5 -161 t71.5 -135t123 -88.5t182.5 -34t182.5 34t123 88.5t71.5 135t35.5 160.5t9 183q0 100 -9 179t-35.5 156.5t-71.5 129t-123 83t-182.5 31.5t-182.5 -31.5t-123 -83t-71.5 -129t-35.5 -156.5t-9 -179zM377 1569q113 166 217 166q53 0 145 -50.5t123 -50.5q25 0 39 3t41 20.5 t53 54.5l41 -45q-74 -145 -166 -145q-43 0 -137 49t-135 49q-43 0 -76 -15.5t-98 -74.5z" />
<glyph unicode="&#xd6;" horiz-adv-x="1413" d="M125 707q0 123 15.5 222t54 192t103 155.5t168 99.5t241 37t241 -37t168 -99.5t103 -155.5t54 -192.5t15.5 -221.5q0 -125 -15.5 -227.5t-54 -198t-103 -160t-168 -103t-241 -38.5t-241 38.5t-168 103t-103 160t-54 198t-15.5 227.5zM285 707q0 -102 9 -182.5t35.5 -161 t71.5 -135t123 -88.5t182.5 -34t182.5 34t123 88.5t71.5 135t35.5 160.5t9 183q0 100 -9 179t-35.5 156.5t-71.5 129t-123 83t-182.5 31.5t-182.5 -31.5t-123 -83t-71.5 -129t-35.5 -156.5t-9 -179zM389 1546v236h129v-236h-129zM911 1546v236h129v-236h-129z" />
<glyph unicode="&#xd7;" horiz-adv-x="1077" d="M164 254l291 289l-291 288l86 87l289 -291l288 291l86 -87l-290 -288l290 -289l-86 -86l-288 291l-289 -291z" />
<glyph unicode="&#xd8;" horiz-adv-x="1413" d="M88 -18l160 200q-123 178 -123 525q0 123 15.5 222t54 192t103 155.5t168 99.5t241.5 37q264 0 403 -143l166 209l49 -41l-168 -211q131 -174 131 -520q0 -125 -15.5 -227.5t-54 -198t-103 -160t-168 -103t-240.5 -38.5q-274 0 -416 157l-154 -196zM285 707 q0 -260 69 -390l668 840q-104 129 -315 129q-104 0 -182.5 -31.5t-123.5 -83t-71.5 -129t-35.5 -156.5t-9 -179zM385 252q98 -145 322 -146q104 0 182 34t123 88.5t71.5 135t35.5 160.5t9 183q0 260 -75 387z" />
<glyph unicode="&#xd9;" horiz-adv-x="1310" d="M145 492v901h152v-901q0 -385 365 -386q92 0 159.5 26t103.5 63.5t57.5 94t26.5 101.5t5 101v901h151v-901q0 -264 -128 -388t-382 -124q-256 0 -383 124t-127 388zM442 1782h144l112 -287h-98z" />
<glyph unicode="&#xda;" horiz-adv-x="1310" d="M145 492v901h152v-901q0 -385 365 -386q92 0 159.5 26t103.5 63.5t57.5 94t26.5 101.5t5 101v901h151v-901q0 -264 -128 -388t-382 -124q-256 0 -383 124t-127 388zM604 1495l113 287h139l-156 -287h-96z" />
<glyph unicode="&#xdb;" horiz-adv-x="1310" d="M145 492v901h152v-901q0 -385 365 -386q92 0 159.5 26t103.5 63.5t57.5 94t26.5 101.5t5 101v901h151v-901q0 -264 -128 -388t-382 -124q-256 0 -383 124t-127 388zM391 1495l213 287h101l215 -287h-99l-166 174l-166 -174h-98z" />
<glyph unicode="&#xdc;" horiz-adv-x="1310" d="M145 492v901h152v-901q0 -385 365 -386q92 0 159.5 26t103.5 63.5t57.5 94t26.5 101.5t5 101v901h151v-901q0 -264 -128 -388t-382 -124q-256 0 -383 124t-127 388zM328 1546v236h129v-236h-129zM850 1546v236h129v-236h-129z" />
<glyph unicode="&#xdd;" horiz-adv-x="1269" d="M84 1393h174l379 -744h4l379 744h166l-475 -901v-492h-152v492zM608 1495l113 287h139l-155 -287h-97z" />
<glyph unicode="&#xde;" horiz-adv-x="1228" d="M145 0v1393h152v-283h405q197 0 309.5 -111.5t112.5 -291.5q0 -186 -111.5 -295t-310.5 -109h-405v-303h-152zM297 438h389q133 0 208 67.5t75 201.5q0 125 -77 196.5t-206 71.5h-389v-537z" />
<glyph unicode="&#xdf;" horiz-adv-x="1320" d="M47 920v94l160 10q0 410 448 410q193 0 300.5 -79t107.5 -229q0 -84 -41 -151.5t-90 -101t-90 -70.5t-41 -70q0 -53 98 -90q176 -61 252 -141t76 -197q0 -168 -116 -246.5t-284 -78.5q-135 0 -264 40l21 113q125 -41 235 -41q82 0 138.5 24.5t79 63.5t30.5 69t8 56 q0 49 -19.5 89t-58.5 69t-66.5 43t-74.5 31.5t-51 19.5q-80 37 -110.5 72t-30.5 90q0 37 23.5 70.5t58 63.5t69.5 61.5t58.5 79.5t23.5 108q0 84 -45 135t-97.5 66.5t-111.5 15.5q-90 0 -151.5 -29.5t-90 -83t-40 -108t-11.5 -123.5v-975h-143v920h-160z" />
<glyph unicode="&#xe0;" horiz-adv-x="1034" d="M94 276q0 307 430 308h242v118q0 115 -59.5 168.5t-194.5 53.5q-143 0 -328 -37l-22 117q209 41 381 40q188 0 277 -73.5t89 -261.5v-709h-143v102h-4q-150 -123 -334 -122q-154 0 -244 79.5t-90 216.5zM238 287q0 -88 64.5 -141.5t178.5 -53.5q156 0 285 98v304h-234 q-160 0 -227 -52.5t-67 -154.5zM358 1434h144l112 -287h-98z" />
<glyph unicode="&#xe1;" horiz-adv-x="1034" d="M94 276q0 307 430 308h242v118q0 115 -59.5 168.5t-194.5 53.5q-143 0 -328 -37l-22 117q209 41 381 40q188 0 277 -73.5t89 -261.5v-709h-143v102h-4q-150 -123 -334 -122q-154 0 -244 79.5t-90 216.5zM238 287q0 -88 64.5 -141.5t178.5 -53.5q156 0 285 98v304h-234 q-160 0 -227 -52.5t-67 -154.5zM487 1147l113 287h141l-155 -287h-99z" />
<glyph unicode="&#xe2;" horiz-adv-x="1034" d="M94 276q0 307 430 308h242v118q0 115 -59.5 168.5t-194.5 53.5q-143 0 -328 -37l-22 117q209 41 381 40q188 0 277 -73.5t89 -261.5v-709h-143v102h-4q-150 -123 -334 -122q-154 0 -244 79.5t-90 216.5zM238 287q0 -88 64.5 -141.5t178.5 -53.5q156 0 285 98v304h-234 q-160 0 -227 -52.5t-67 -154.5zM289 1147l213 287h100l215 -287h-98l-166 174l-166 -174h-98z" />
<glyph unicode="&#xe3;" horiz-adv-x="1034" d="M94 276q0 307 430 308h242v118q0 115 -59.5 168.5t-194.5 53.5q-143 0 -328 -37l-22 117q209 41 381 40q188 0 277 -73.5t89 -261.5v-709h-143v102h-4q-150 -123 -334 -122q-154 0 -244 79.5t-90 216.5zM215 1221q113 166 217 165q53 0 145.5 -50t122.5 -50q25 0 39.5 3 t41 20.5t53.5 54.5l40 -45q-74 -145 -165 -145q-43 0 -137.5 49t-135.5 49q-43 0 -75.5 -15.5t-98.5 -74.5zM238 287q0 -88 64.5 -141.5t178.5 -53.5q156 0 285 98v304h-234q-160 0 -227 -52.5t-67 -154.5z" />
<glyph unicode="&#xe4;" horiz-adv-x="1034" d="M94 276q0 307 430 308h242v118q0 115 -59.5 168.5t-194.5 53.5q-143 0 -328 -37l-22 117q209 41 381 40q188 0 277 -73.5t89 -261.5v-709h-143v102h-4q-150 -123 -334 -122q-154 0 -244 79.5t-90 216.5zM238 287q0 -88 64.5 -141.5t178.5 -53.5q156 0 285 98v304h-234 q-160 0 -227 -52.5t-67 -154.5zM225 1198v236h129v-236h-129zM747 1198v236h129v-236h-129z" />
<glyph unicode="&#xe5;" horiz-adv-x="1034" d="M94 276q0 307 430 308h242v118q0 115 -59.5 168.5t-194.5 53.5q-143 0 -328 -37l-22 117q209 41 381 40q188 0 277 -73.5t89 -261.5v-709h-143v102h-4q-150 -123 -334 -122q-154 0 -244 79.5t-90 216.5zM238 287q0 -88 64.5 -141.5t178.5 -53.5q156 0 285 98v304h-234 q-160 0 -227 -52.5t-67 -154.5zM373 1331q0 76 52 128t128 52t128 -52t52 -128t-52 -128t-128 -52t-128 52t-52 128zM432 1331q0 -53 34 -87t87 -34t87 34t34 87t-34 87t-87 34t-87 -34t-34 -87z" />
<glyph unicode="&#xe6;" horiz-adv-x="1746" d="M94 274q0 309 430 310h240v116q0 115 -57.5 169.5t-194.5 54.5q-133 0 -328 -39l-22 119q225 41 381 40q279 0 327 -176q117 176 383 176q483 0 385 -550h-718q6 -395 364 -396q186 0 322 41l18 -116q-164 -43 -358 -43q-301 0 -422 188q-174 -188 -418 -188 q-154 0 -243 79.5t-89 214.5zM238 287q0 -90 63.5 -142.5t179.5 -52.5q195 0 332 137q-47 111 -49 265h-232q-160 0 -227 -53.5t-67 -153.5zM920 586h585q25 145 -33.5 245.5t-226.5 100.5q-298 0 -325 -346z" />
<glyph unicode="&#xe7;" horiz-adv-x="983" d="M104 512q0 532 490 532q162 0 342 -45l-27 -116q-162 41 -315 41q-174 0 -256 -112t-82 -300q0 -184 83 -298t255 -114q154 0 315 41l27 -118q-170 -41 -336 -43v-95q72 -6 121 -39.5t49 -107.5q0 -72 -52 -120t-140 -48q-68 0 -148 24l10 62q66 -16 113 -16 q68 0 97.5 32.5t29.5 73.5q0 39 -33 69.5t-106 32.5v134q-437 22 -437 530z" />
<glyph unicode="&#xe8;" d="M104 512q0 532 490 532q119 0 203 -36.5t125 -92t59 -132t15 -145.5t-17 -144h-721q10 -393 367 -394q195 0 319 41l21 -118q-164 -43 -359 -43q-502 0 -502 532zM258 586h588q14 61 5 122.5t-32.5 111.5t-84 81t-148.5 31q-299 0 -328 -346zM379 1434h143l113 -287h-98z " />
<glyph unicode="&#xe9;" d="M104 512q0 532 490 532q119 0 203 -36.5t125 -92t59 -132.5q16 -66 16 -125q0 -10 -1 -20q-3 -69 -17 -144h-721q10 -393 367 -394q195 0 319 41l21 -118q-164 -43 -359 -43q-502 0 -502 532zM258 586h588q9 37 9 75q0 24 -4 48q-9 61 -32.5 111t-84 81t-148.5 31 q-299 0 -328 -346zM569 1147l113 287h141l-155 -287h-99z" />
<glyph unicode="&#xea;" d="M104 512q0 532 490 532q119 0 203 -36.5t125 -92t59 -132t15 -145.5t-17 -144h-721q10 -393 367 -394q195 0 319 41l21 -118q-164 -43 -359 -43q-502 0 -502 532zM258 586h588q14 61 5 122.5t-32.5 111.5t-84 81t-148.5 31q-299 0 -328 -346zM328 1147l213 287h100 l215 -287h-98l-166 174l-166 -174h-98z" />
<glyph unicode="&#xeb;" d="M104 512q0 532 490 532q119 0 203 -36.5t125 -92t59 -132.5q16 -66 16 -125q0 -10 -1 -20q-3 -69 -17 -144h-721q10 -393 367 -394q195 0 319 41l21 -118q-164 -43 -359 -43q-502 0 -502 532zM258 586h588q9 37 9 75q0 24 -4 48q-9 61 -32.5 111t-84 81t-148.5 31 q-299 0 -328 -346zM256 1198v236h129v-236h-129zM778 1198v236h129v-236h-129z" />
<glyph unicode="&#xec;" horiz-adv-x="393" d="M-12 1434h143l113 -287h-99zM125 0v1024h143v-1024h-143z" />
<glyph unicode="&#xed;" horiz-adv-x="393" d="M125 0v1024h143v-1024h-143zM155 1147l113 287h141l-155 -287h-99z" />
<glyph unicode="&#xee;" horiz-adv-x="393" d="M-66 1147l213 287h101l215 -287h-98l-166 174l-166 -174h-99zM125 0v1024h143v-1024h-143z" />
<glyph unicode="&#xef;" horiz-adv-x="393" d="M-127 1198v236h129v-236h-129zM127 0v1024h143v-1024h-143zM395 1198v236h129v-236h-129z" />
<glyph unicode="&#xf0;" horiz-adv-x="1126" d="M104 451q0 229 112 355t310 126q207 0 346 -199l5 2q-10 297 -138 436l-153 -153l-54 55l142 139q-100 80 -234 80q-135 0 -274 -49l-19 111q156 59 306 59q188 0 317 -102l158 155l53 -53l-150 -149q188 -195 189 -650q0 -131 -22.5 -238.5t-74 -199.5t-146.5 -144 t-230 -52q-193 0 -318 127t-125 344zM256 451q0 -166 86 -259.5t213 -93.5q336 0 309 516q-129 190 -299 191q-90 0 -154.5 -33t-96 -88t-45 -112.5t-13.5 -120.5z" />
<glyph unicode="&#xf1;" d="M125 0v1024h143v-150h4q180 170 381 170q307 0 308 -335v-709h-144v678q0 246 -225 246q-150 0 -324 -138v-786h-143zM219 1221q113 166 217 165q53 0 145.5 -50t122.5 -50q25 0 39.5 3t41 20.5t53.5 54.5l41 -45q-74 -145 -166 -145q-43 0 -137.5 49t-135.5 49 q-43 0 -75.5 -15.5t-98.5 -74.5z" />
<glyph unicode="&#xf2;" horiz-adv-x="1126" d="M104 512q0 532 459 532t459 -532t-459 -532t-459 532zM256 512q0 -412 307 -412t307 412t-307 412t-307 -412zM367 1434h143l113 -287h-99z" />
<glyph unicode="&#xf3;" horiz-adv-x="1126" d="M104 512q0 532 459 532t459 -532t-459 -532t-459 532zM256 512q0 -412 307 -412t307 412t-307 412t-307 -412zM522 1147l113 287h141l-155 -287h-99z" />
<glyph unicode="&#xf4;" horiz-adv-x="1126" d="M104 512q0 532 459 532t459 -532t-459 -532t-459 532zM256 512q0 -412 307 -412t307 412t-307 412t-307 -412zM299 1147l213 287h100l215 -287h-98l-166 174l-166 -174h-98z" />
<glyph unicode="&#xf5;" horiz-adv-x="1126" d="M104 512q0 532 459 532t459 -532t-459 -532t-459 532zM256 512q0 -412 307 -412t307 412t-307 412t-307 -412zM237 1221q113 166 217 165q53 0 145.5 -50t122.5 -50q25 0 39.5 3t41 20.5t53.5 54.5l41 -45q-74 -145 -166 -145q-43 0 -137.5 49t-135.5 49 q-43 0 -75.5 -15.5t-98.5 -74.5z" />
<glyph unicode="&#xf6;" horiz-adv-x="1126" d="M104 512q0 532 459 532t459 -532t-459 -532t-459 532zM256 512q0 -412 307 -412t307 412t-307 412t-307 -412zM238 1198v236h129v-236h-129zM760 1198v236h129v-236h-129z" />
<glyph unicode="&#xf7;" horiz-adv-x="1024" d="M125 498v90h774v-90h-774zM449 102v236h126v-236h-126zM449 748v235h126v-235h-126z" />
<glyph unicode="&#xf8;" horiz-adv-x="1126" d="M68 -18l133 155q-96 135 -97 375q0 532 459 532q201 0 316 -114l131 153l49 -39l-135 -159q98 -133 98 -373q0 -532 -459 -532q-199 0 -317 114l-131 -153zM256 539q0 -182 51 -277l481 563q-78 98 -225 99q-299 0 -307 -385zM336 197q80 -96 227 -97q307 0 307 406 q0 154 -53 254z" />
<glyph unicode="&#xf9;" d="M125 315v709h143v-678q0 -246 226 -246q145 0 323 136v788h144v-1024h-144v150h-4q-176 -170 -381 -170q-307 -1 -307 335zM315 1434h144l112 -287h-98z" />
<glyph unicode="&#xfa;" d="M125 315v709h143v-678q0 -246 226 -246q145 0 323 136v788h144v-1024h-144v150h-4q-176 -170 -381 -170q-307 -1 -307 335zM501 1147l113 287h141l-155 -287h-99z" />
<glyph unicode="&#xfb;" d="M125 315v709h143v-678q0 -246 226 -246q145 0 323 136v788h144v-1024h-144v150h-4q-176 -170 -381 -170q-307 -1 -307 335zM281 1147l213 287h100l215 -287h-98l-166 174l-166 -174h-98z" />
<glyph unicode="&#xfc;" d="M125 315v709h143v-678q0 -246 226 -246q145 0 323 136v788h144v-1024h-144v150h-4q-176 -170 -381 -170q-307 -1 -307 335zM217 1198v236h129v-236h-129zM739 1198v236h129v-236h-129z" />
<glyph unicode="&#xfd;" horiz-adv-x="1146" d="M98 1024h160l330 -883h4l305 883h152l-396 -1098q-68 -190 -160 -273t-233 -83q-70 0 -137 14l14 121q43 -10 94 -10q102 0 165 80t110 205zM540 1147l113 287h141l-155 -287h-99z" />
<glyph unicode="&#xfe;" d="M125 -410v1844h143v-512h4q129 123 326 122q383 0 383 -532q0 -244 -93 -388t-296 -144q-195 0 -320 118h-4v-508h-143zM268 197q123 -96 277 -97q285 0 284.5 412t-284.5 412q-158 0 -277 -99v-628z" />
<glyph unicode="&#xff;" horiz-adv-x="1146" d="M98 1024h160l330 -883h4l305 883h152l-396 -1098q-68 -190 -160 -273t-233 -83q-70 0 -137 14l14 121q43 -10 94 -10q102 0 165 80t110 205zM256 1198v236h129v-236h-129zM778 1198v236h129v-236h-129z" />
<glyph unicode="&#x131;" horiz-adv-x="393" d="M125 0v1024h143v-1024h-143z" />
<glyph unicode="&#x152;" horiz-adv-x="2138" d="M125 707q0 123 15.5 222t54 192t103 155.5t168 99.5t241.5 37q297 0 430 -203v183h866v-136h-715v-466h623v-136h-623v-520h725v-135h-876v188q-133 -209 -430 -208q-137 0 -241 38.5t-168.5 103t-103 160t-54 198t-15.5 227.5zM285 707q0 -102 9 -182.5t35.5 -161 t71.5 -135t123 -88.5t182.5 -34t182.5 34t123 88.5t71.5 136t35.5 162.5t9 186q0 127 -16 220t-59 178t-130 130t-216 45q-104 0 -182.5 -31.5t-123.5 -83t-71.5 -129t-35.5 -156.5t-9 -179z" />
<glyph unicode="&#x153;" horiz-adv-x="1853" d="M104 512q0 532 459 532q281 0 385 -221q111 221 414 221q119 0 203 -36.5t125 -92t59 -132t15 -145.5t-17 -144h-721q6 -393 367 -394q195 0 319 41l21 -118q-164 -43 -359 -43q-315 0 -426 221q-104 -221 -385 -221q-459 0 -459 532zM256 512q0 -412 307 -412t307 412 t-307 412t-307 -412zM1026 586h588q23 143 -34.5 244.5t-225.5 101.5q-301 0 -328 -346z" />
<glyph unicode="&#x178;" horiz-adv-x="1269" d="M84 1393h174l379 -744h4l379 744h166l-475 -901v-492h-152v492zM324 1546v236h129v-236h-129zM846 1546v236h129v-236h-129z" />
<glyph unicode="&#x2c6;" horiz-adv-x="860" d="M166 1147l213 287h100l215 -287h-98l-166 174l-166 -174h-98z" />
<glyph unicode="&#x2da;" horiz-adv-x="614" d="M127 1331q0 76 52 128t128 52t128 -52t52 -128t-52 -128t-128 -52t-128 52t-52 128zM186 1331q0 -53 34 -87t87 -34t87 34t34 87t-34 87t-87 34t-87 -34t-34 -87z" />
<glyph unicode="&#x2dc;" horiz-adv-x="921" d="M133 1221q113 166 217 165q53 0 145.5 -50t122.5 -50q25 0 39.5 3t41 20.5t53.5 54.5l41 -45q-74 -145 -166 -145q-43 0 -137.5 49t-135.5 49q-43 0 -75.5 -15.5t-98.5 -74.5z" />
<glyph unicode="&#x2013;" horiz-adv-x="1228" d="M125 481v123h979v-123h-979z" />
<glyph unicode="&#x2014;" horiz-adv-x="1433" d="M125 481v123h1184v-123h-1184z" />
<glyph unicode="&#x2018;" horiz-adv-x="393" d="M125 874v252l74 267h51l-35 -267h53v-252h-143z" />
<glyph unicode="&#x2019;" horiz-adv-x="393" d="M125 1141v252h143v-252l-73 -267h-52l35 267h-53z" />
<glyph unicode="&#x201a;" horiz-adv-x="393" d="M125 0v250h143v-250l-73 -266h-52l35 266h-53z" />
<glyph unicode="&#x201c;" horiz-adv-x="843" d="M125 874v263l74 256h51l-35 -267h53v-252h-143zM575 874v263l74 256h51l-34 -267h53v-252h-144z" />
<glyph unicode="&#x201d;" horiz-adv-x="843" d="M125 1141v252h143v-252l-73 -267h-52l35 267h-53zM575 1141v252h144v-252l-74 -267h-51l35 267h-54z" />
<glyph unicode="&#x201e;" horiz-adv-x="843" d="M125 0v250h143v-250l-73 -266h-52l35 266h-53zM575 0v250h144v-250l-74 -266h-51l35 266h-54z" />
<glyph unicode="&#x2022;" horiz-adv-x="471" d="M125 387v250h143v-250h-143z" />
<glyph unicode="&#x2026;" horiz-adv-x="1294" d="M166 0v250h143v-250h-143zM575 0v250h144v-250h-144zM985 0v250h143v-250h-143z" />
<glyph unicode="&#x2039;" horiz-adv-x="778" d="M125 467v90l528 334v-152l-377 -227l377 -227v-152z" />
<glyph unicode="&#x203a;" horiz-adv-x="778" d="M125 133v152l377 227l-377 227v152l528 -334v-90z" />
<glyph unicode="&#x20ac;" horiz-adv-x="1433" d="M125 508v88h147q-4 70 -4 111q0 31 4 88h-147v88h158q37 242 178 386t389 144q121 0 228.5 -35t151.5 -64.5t103 -74.5l-53 -117q-190 156 -408 156q-350 0 -421 -395h421l-14 -88h-428q-2 -29 -2 -88q0 -74 4 -111h440l-14 -88h-403q35 -176 136 -284.5t281 -108.5 q221 0 408 153l53 -114q-215 -174 -483 -174q-246 0 -385 143t-178 385h-162z" />
<glyph unicode="&#x2122;" horiz-adv-x="1638" d="M86 1311v82h530v-82h-221v-623h-90v623h-219zM805 688v705h121l237 -557h2l238 557h123v-705h-90v543h-4l-238 -543h-72l-229 543h-4v-543h-84z" />
<glyph unicode="&#xe000;" horiz-adv-x="1025" d="M0 1025h1025v-1025h-1025v1025z" />
<glyph unicode="&#xfb01;" horiz-adv-x="1079" d="M47 920v94l160 10v74q0 176 90 256t278 80q182 0 345 -76l-19 -105q-156 63 -309 64q-137 0 -189.5 -55.5t-52.5 -171.5v-66h604v-1024h-143v920h-461v-920h-143v920h-160z" />
<glyph unicode="&#xfb02;" horiz-adv-x="1079" d="M45 918v96l162 10v72q0 178 91 258t277 80q143 0 275 -54h104v-1380h-143v1266q-119 49 -221 49q-129 0 -184.5 -55.5t-55.5 -172.5v-63h287v-106h-287v-918h-143v918h-162z" />
<glyph unicode="&#xfb03;" horiz-adv-x="1677" d="M47 920v94l160 10v115q0 160 63.5 227.5t221.5 67.5q59 0 155 -15l-14 -116q-82 10 -144 10q-78 0 -108.5 -44t-30.5 -141v-104h455v74q0 176 89 256t277 80q182 0 345 -76l-19 -105q-156 63 -309 64q-137 0 -189.5 -55.5t-52.5 -171.5v-66h604v-1024h-141v920h-463v-920 h-141v920h-455v-920h-143v920h-160z" />
<glyph unicode="&#xfb04;" horiz-adv-x="1677" d="M47 920v94l160 10v115q0 160 63.5 227.5t221.5 67.5q59 0 155 -15l-14 -116q-82 10 -144 10q-78 0 -108.5 -44t-30.5 -141v-104h455v74q0 176 91 256t275 80q145 0 275 -54h104v-1380h-141v1268q-121 49 -221 49q-131 0 -186.5 -55.5t-55.5 -171.5v-66h287v-104h-287 v-920h-141v920h-455v-920h-143v920h-160z" />
</font>
</defs>
</svg>
