<?xml version="1.0" standalone="no"?>
<!DOCTYPE svg PUBLIC "-//W3C//DTD SVG 1.1//EN" "http://www.w3.org/Graphics/SVG/1.1/DTD/svg11.dtd" >
<svg xmlns="http://www.w3.org/2000/svg">
<metadata>
This is a custom SVG webfont generated by Font Squirrel.
Copyright   : Copyright c 2007 by Dino dos Santos DSType All rights reserved
Designer    : Dino dos Santos
Foundry URL : httpwwwtypetrustcom
</metadata>
<defs>
<font id="PreloLight" horiz-adv-x="1085" >
<font-face units-per-em="2048" ascent="1536" descent="-512" />
<missing-glyph horiz-adv-x="368" />
<glyph unicode=" "  horiz-adv-x="368" />
<glyph unicode="&#x09;" horiz-adv-x="368" />
<glyph unicode="&#xa0;" horiz-adv-x="368" />
<glyph unicode="!" horiz-adv-x="378" d="M137 0v236h105v-236h-105zM137 1434h105l-6 -983h-93z" />
<glyph unicode="&#x22;" horiz-adv-x="788" d="M137 1393h105l-11 -256h-84zM547 1393h104l-10 -256h-84z" />
<glyph unicode="#" horiz-adv-x="1255" d="M145 260l7 72h204l39 358h-205l7 72h204l29 262h78l-29 -262h348l29 262h76l-29 -262h205l-6 -72h-205l-39 -358h205l-6 -72h-205l-29 -260h-75l26 260h-348l-27 -260h-77l28 260h-205zM434 332h348l37 358h-348z" />
<glyph unicode="$" horiz-adv-x="1249" d="M137 119l51 80q193 -121 447 -121q186 0 274 85t88 202q0 57 -29.5 106t-64.5 76.5t-98.5 54.5t-93 35t-86.5 22q-86 20 -161 52t-141.5 80.5t-105.5 119t-39 154.5q0 172 118 257t314 89v186h54v-186q252 -6 421 -111l-45 -86q-184 100 -405 101q-342 0 -342 -250 q0 -213 399 -311q420 -94 420 -385q0 -178 -123 -278.5t-325 -108.5v-187h-54v187q-293 4 -473 137z" />
<glyph unicode="%" horiz-adv-x="1556" d="M106 1098q0 127 69 198.5t196 71.5q129 0 197.5 -71.5t68.5 -198.5q0 -129 -68.5 -201t-197.5 -72q-127 0 -196 72t-69 201zM174 1098q0 -102 50 -159.5t146.5 -57.5t147.5 57t51 159.5t-51 159t-147.5 56.5t-146.5 -57.5t-50 -157.5zM362 0l758 1393h74l-758 -1393h-74z M920 295q0 129 68.5 200.5t197.5 71.5q127 0 195.5 -71.5t68.5 -200.5q0 -127 -68.5 -198.5t-195.5 -71.5q-129 0 -197.5 71.5t-68.5 198.5zM987 295q0 -102 51.5 -158.5t147.5 -56.5t146 57.5t50 157.5q0 102 -50 159.5t-146 57.5t-147.5 -57.5t-51.5 -159.5z" />
<glyph unicode="&#x26;" horiz-adv-x="1443" d="M129 348q0 123 80 218.5t280 187.5q-4 4 -35.5 38.5t-44 49t-38 50.5t-37.5 62.5t-22.5 63.5t-10.5 74q0 158 107.5 239.5t257.5 81.5q156 0 244.5 -78t88.5 -221q0 -102 -79.5 -194.5t-282.5 -184.5l438 -434q135 154 174 416h99q-39 -289 -203 -488l182 -188l-70 -74 l-186 193q-195 -180 -487 -180q-223 0 -339 100t-116 268zM240 362q0 -47 15 -92t51 -93t113 -77.5t185 -29.5q242 0 402 159l-461 467q-145 -66 -225 -139.5t-80 -194.5zM403 1098q0 -80 43 -145.5t132 -155.5q322 143 321 321q0 70 -27.5 117t-69.5 67.5t-76 27.5t-64 7 q-78 0 -133.5 -26.5t-80 -68.5t-35 -76.5t-10.5 -67.5z" />
<glyph unicode="'" horiz-adv-x="378" d="M137 1393h105l-11 -256h-84z" />
<glyph unicode="(" horiz-adv-x="675" d="M160 696q0 252 91 509t253 474h76q-315 -502 -316 -983q0 -473 316 -983h-76q-162 217 -253 475t-91 508z" />
<glyph unicode=")" horiz-adv-x="675" d="M96 -287q315 510 316 983q0 481 -316 983h76q162 -217 253 -474t91 -509q0 -250 -91 -508t-253 -475h-76z" />
<glyph unicode="*" horiz-adv-x="839" d="M80 1130l20 64l293 -72l-6 271h66l-7 -271l291 72l21 -64l-299 -51l194 -243l-53 -41l-182 258l-180 -258l-54 41l195 243z" />
<glyph unicode="+" horiz-adv-x="1024" d="M137 498v90h330v330h90v-330h330v-90h-330v-330h-90v330h-330z" />
<glyph unicode="," horiz-adv-x="378" d="M137 0v236h103v-236l-56 -266h-41l31 266h-37z" />
<glyph unicode="-" horiz-adv-x="1024" d="M137 498v90h750v-90h-750z" />
<glyph unicode="." horiz-adv-x="378" d="M137 0v236h105v-236h-105z" />
<glyph unicode="/" horiz-adv-x="1105" d="M127 0l758 1393h94l-758 -1393h-94z" />
<glyph unicode="0" horiz-adv-x="1208" d="M137 707q0 156 21.5 275.5t72 221t144.5 155.5t229 54q109 0 191 -37t134 -100.5t85 -155.5t45 -191.5t12 -221.5q0 -727 -467 -727q-135 0 -229 56t-144.5 161.5t-72 228.5t-21.5 281zM246 707q0 -639 358.5 -639t358.5 639q0 618 -358.5 618t-358.5 -618z" />
<glyph unicode="1" horiz-adv-x="768" d="M94 1137q305 156 453 266h71v-1403h-102v1274l-383 -219z" />
<glyph unicode="2" horiz-adv-x="1126" d="M137 0v106q723 492 723 873q0 106 -36 179t-94 104.5t-104 43t-94 11.5q-182 0 -362 -90l-33 84q215 102 416 102q207 0 311.5 -115.5t104.5 -291.5q0 -428 -684 -910v-4h704v-92h-852z" />
<glyph unicode="3" horiz-adv-x="1167" d="M137 76l35 80q168 -88 387 -88q119 0 198 31.5t111.5 84t44 93t11.5 88.5q0 127 -97.5 206.5t-294.5 79.5h-163v90h159q168 0 263.5 89.5t95.5 209.5q0 45 -12.5 88t-44 91.5t-101.5 77t-170 28.5q-180 0 -350 -88l-35 80q178 96 404 96q199 0 305 -96t106 -266 q0 -129 -82 -217.5t-205 -122.5v-4q150 -23 239 -117t89 -232q0 -182 -116.5 -280t-346.5 -98q-262 0 -430 96z" />
<glyph unicode="4" horiz-adv-x="1208" d="M117 393v88q440 479 633 912h131v-912h209v-88h-209v-393h-103v393h-661zM225 481h553v774h-4q-182 -362 -549 -774z" />
<glyph unicode="5" horiz-adv-x="1167" d="M137 82l33 80q188 -94 377 -94q168 0 271.5 97t103.5 271q0 141 -79 242.5t-249 101.5q-188 0 -311 -172l-82 8l39 777h708v-93h-618l-37 -593l4 -2q127 166 330 165q188 0 295.5 -114.5t107.5 -315.5q0 -219 -129 -339.5t-348 -120.5q-207 0 -416 102z" />
<glyph unicode="6" horiz-adv-x="1167" d="M137 614q0 424 152.5 611.5t404.5 187.5q139 0 291 -49l-14 -80q-143 41 -271 41q-109 0 -192.5 -45t-131.5 -111.5t-80 -154.5t-43 -159t-13 -138l4 -2q145 217 362 217q201 0 311.5 -126t110.5 -355q0 -215 -122 -343t-306 -128q-463 -1 -463 634zM248 623 q0 -96 6 -169t27.5 -150t57.5 -126t99.5 -80.5t151.5 -31.5q139 0 235.5 102t96.5 283q0 70 -14.5 132t-50.5 123.5t-106.5 97.5t-169 36t-185.5 -59.5t-148 -157.5z" />
<glyph unicode="7" horiz-adv-x="1024" d="M117 1300v93h790v-78q-459 -735 -553 -1315h-114q43 285 207.5 655.5t345.5 640.5v4h-676z" />
<glyph unicode="8" horiz-adv-x="1208" d="M137 342q0 250 367 377v4q-154 55 -240 137t-86 213q0 158 118 249t312 91q188 0 305 -91t117 -245q0 -127 -82 -202.5t-246 -139.5v-4q178 -70 273.5 -154.5t95.5 -224.5q0 -174 -124 -273t-347 -99q-219 0 -341 96t-122 266zM244 352q0 -127 87 -210t277 -83 q186 0 271.5 80t85.5 205q0 70 -30 123t-95.5 94t-112.5 62.5t-137 56.5q-158 -55 -252 -130t-94 -198zM283 1071q0 -201 333 -297q147 51 228.5 117.5t81.5 175.5q0 76 -33 132t-86 83t-104.5 39t-102.5 12q-49 0 -99 -11t-101.5 -38t-84 -82t-32.5 -131z" />
<glyph unicode="9" horiz-adv-x="1167" d="M137 942q0 215 122 343t308 128q461 0 461 -635q0 -219 -43 -378.5t-122 -249t-175 -130t-215 -40.5q-147 0 -293 47l15 79q154 -41 270 -40q109 0 192.5 45t132 111.5t80 154.5t43 158.5t13.5 138.5l-4 2q-143 -215 -363 -215q-199 0 -310.5 126t-111.5 355zM246 942 q0 -72 14 -134.5t50 -123.5t106.5 -97t169.5 -36q96 0 183 59.5t149 157.5q2 47 -3 131q-27 426 -340 426q-139 0 -234 -101.5t-95 -281.5z" />
<glyph unicode=":" horiz-adv-x="378" d="M137 0v236h105v-236h-105zM137 707v235h105v-235h-105z" />
<glyph unicode=";" horiz-adv-x="378" d="M137 0v236h103v-236l-56 -266h-41l31 266h-37zM137 707v235h103v-235h-103z" />
<glyph unicode="&#x3c;" horiz-adv-x="983" d="M137 477v70l709 360v-94l-600 -301l600 -301v-94z" />
<glyph unicode="=" horiz-adv-x="1024" d="M137 293v90h750v-90h-750zM137 702v91h750v-91h-750z" />
<glyph unicode="&#x3e;" horiz-adv-x="983" d="M137 117v94l600 301l-600 301v94l709 -360v-70z" />
<glyph unicode="?" horiz-adv-x="983" d="M117 1335q190 78 370 78q203 0 290 -98t87 -240q0 -98 -42 -175t-100 -124t-117.5 -87t-101.5 -89t-42 -108v-62h-92v62q0 76 40 134t97 97t115.5 80t98.5 106.5t40 151.5q0 254 -299 254q-135 0 -314 -70zM362 0v236h105v-236h-105z" />
<glyph unicode="@" horiz-adv-x="1699" d="M61 518q0 356 234.5 586.5t593.5 230.5q315 0 532 -187t217 -480q0 -229 -133 -381t-377 -152h-79v80h-2q-106 -94 -265 -94q-121 0 -191.5 58.5t-70.5 164.5q0 242 336 242h193v92q0 100 -45.5 149.5t-157.5 49.5q-119 0 -262 -43l-17 57q154 53 297 53q137 0 204 -58.5 t67 -203.5v-481q123 0 214 47t136 121.5t64.5 147.5t19.5 147q0 272 -197.5 439t-482.5 167q-332 0 -545 -209t-213 -543q0 -307 195.5 -503.5t496.5 -196.5l-6 -64q-330 0 -543 217t-213 547zM604 350q0 -74 52.5 -118t152.5 -44q145 0 240 84v258h-181q-137 0 -200.5 -43 t-63.5 -137z" />
<glyph unicode="A" horiz-adv-x="1331" d="M96 0l510 1403h135l494 -1403h-121l-137 391h-623l-141 -391h-117zM379 485h573l-280 783h-2z" />
<glyph unicode="B" horiz-adv-x="1249" d="M158 0v1393h538q190 0 293 -96.5t103 -256.5q0 -123 -63.5 -210t-180.5 -115v-4q137 -27 211 -119t74 -225q0 -172 -101.5 -269.5t-294.5 -97.5h-579zM266 98h455q143 0 220 71t77 210q0 131 -83 205.5t-245 74.5h-424v-561zM266 758h420q291 0 291 268q0 125 -76 196.5 t-215 71.5h-420v-536z" />
<glyph unicode="C" horiz-adv-x="1269" d="M137 707q0 156 24.5 274.5t85 221t176.5 156.5t284 54q236 0 460 -67l-24 -93q-248 61 -428 62q-113 0 -197 -34t-134 -88t-81 -136t-41 -165t-10 -185q0 -139 18.5 -243t66.5 -196t143 -141t235 -49q180 0 428 61l24 -92q-225 -68 -460 -67q-168 0 -284 55t-176.5 160.5 t-85 227.5t-24.5 284z" />
<glyph unicode="D" horiz-adv-x="1331" d="M158 0v1393h473q563 0 563 -686q0 -707 -563 -707h-473zM266 98h365q449 0 448 609q0 129 -19.5 227t-67.5 183t-139 131t-222 46h-365v-1196z" />
<glyph unicode="E" horiz-adv-x="1146" d="M158 0v1393h841v-99h-733v-520h641v-98h-641v-578h744v-98h-852z" />
<glyph unicode="F" horiz-adv-x="1095" d="M158 0v1393h821v-99h-713v-561h621v-98h-621v-635h-108z" />
<glyph unicode="G" horiz-adv-x="1310" d="M137 707q0 156 24.5 274.5t85 221t176.5 156.5t284 54q236 0 460 -67l-24 -93q-248 61 -428 62q-113 0 -197 -34t-134 -88t-81 -136t-41 -165t-10 -185q0 -139 18.5 -243t66.5 -196t143 -141t235 -49q178 0 329 100v410h-317v98h426v-582q-72 -39 -122 -60t-139 -42.5 t-185 -21.5q-168 0 -284 55t-176.5 160.5t-85 227.5t-24.5 284z" />
<glyph unicode="H" horiz-adv-x="1310" d="M158 0v1393h108v-619h778v619h109v-1393h-109v676h-778v-676h-108z" />
<glyph unicode="I" horiz-adv-x="425" d="M158 0v1393h108v-1393h-108z" />
<glyph unicode="J" horiz-adv-x="651" d="M43 -6l10 92q66 -10 125 -10q113 0 159 61.5t46 196.5v1059h109v-1063q0 -193 -71 -271.5t-216 -78.5q-72 0 -162 14z" />
<glyph unicode="K" horiz-adv-x="1267" d="M158 0v1393h108v-811l752 811h129l-516 -570l532 -823h-137l-475 737l-285 -305v-432h-108z" />
<glyph unicode="L" horiz-adv-x="1105" d="M158 0v1393h108v-1295h723v-98h-831z" />
<glyph unicode="M" horiz-adv-x="1638" d="M158 0v1393h139l524 -1209h4l516 1209h140v-1393h-109v1182h-4l-510 -1182h-84l-506 1182h-4v-1182h-106z" />
<glyph unicode="N" horiz-adv-x="1331" d="M158 0v1393h108l797 -1190h4v1190h107v-1393h-115l-791 1180h-4v-1180h-106z" />
<glyph unicode="O" horiz-adv-x="1413" d="M137 707q0 156 24.5 274.5t85 221t176.5 156.5t283.5 54t283.5 -54t176.5 -156.5t85 -221.5t24.5 -274q0 -160 -24.5 -282t-85 -227.5t-176.5 -161.5t-283.5 -56t-283.5 56t-176.5 161.5t-85 227.5t-24.5 282zM252 706.5q0 -104.5 9 -188.5t39 -171t78 -144.5t132 -94 t196.5 -36.5t196.5 36.5t132 94t78 144.5t39 171t9 188.5t-9 186.5t-38 166t-78 138t-133 89t-196.5 35t-196.5 -35t-133 -89t-78 -138t-38 -166t-9 -186.5z" />
<glyph unicode="P" horiz-adv-x="1228" d="M158 0v1393h553q190 0 295.5 -109.5t105.5 -279.5q0 -180 -104.5 -285t-296.5 -105h-445v-614h-108zM266 713h434q143 0 221 73.5t78 217.5q0 133 -78.5 211.5t-220.5 78.5h-434v-581z" />
<glyph unicode="Q" horiz-adv-x="1413" d="M137 706.5q0 155.5 24.5 274.5t85 221.5t176.5 156.5t284 54q135 0 236 -38t163.5 -100.5t100.5 -155.5t52.5 -191.5t14.5 -220.5q0 -152 -23.5 -270t-79 -215t-156 -151.5t-241.5 -58.5v-2q43 -53 147.5 -81.5t215.5 -28.5q55 0 112 6v-101q-57 -6 -114 -6 q-152 0 -278 43t-179 138q-158 6 -267.5 64t-167 161.5t-82 224.5t-24.5 276.5zM250 707q0 -106 9 -189.5t39 -170.5t78 -144.5t132 -94t199 -36.5q113 0 196.5 36.5t131.5 94t78 144.5t39 171t9 188.5t-9 186.5t-38 166t-78 138t-133 89t-196 35q-115 0 -199 -35t-132 -89 t-78 -138t-39 -166t-9 -186z" />
<glyph unicode="R" horiz-adv-x="1259" d="M158 0v1393h553q190 0 295.5 -115t105.5 -289q0 -156 -91 -262t-251 -123l385 -604h-127l-371 588h-391v-588h-108zM266 686h420q143 0 228 81t85 222q0 137 -79.5 221t-219.5 84h-434v-608z" />
<glyph unicode="S" horiz-adv-x="1228" d="M137 47l21 92q246 -61 456 -61q184 0 273.5 85t89.5 199q0 59 -27.5 106.5t-61.5 76t-95.5 54.5t-94 35t-94.5 25q-86 20 -160.5 52t-141 80.5t-105.5 119t-39 154.5q0 178 125 263t331 85q225 0 451 -67l-25 -93q-248 61 -426 62q-184 0 -263 -70.5t-79 -183.5 q0 -213 400 -307q420 -94 420 -385q0 -186 -131.5 -287.5t-346.5 -101.5q-248 -1 -477 67z" />
<glyph unicode="T" horiz-adv-x="1146" d="M117 1294v99h913v-99h-401v-1294h-111v1294h-401z" />
<glyph unicode="U" horiz-adv-x="1310" d="M158 492v901h108v-901q0 -63 6.5 -113.5t31 -111t65.5 -100.5t115.5 -67.5t177 -27.5t177 29.5t113.5 71.5t60.5 104.5t26.5 108.5t5 106v901h109v-901q0 -264 -123 -388t-375 -124q-254 0 -375.5 124t-121.5 388z" />
<glyph unicode="V" horiz-adv-x="1331" d="M96 1393h121l457 -1268h2l442 1268h117l-494 -1403h-135z" />
<glyph unicode="W" horiz-adv-x="1925" d="M96 1393h121l342 -1256h2l338 1256h131l342 -1256h2l338 1256h117l-387 -1403h-142l-335 1231h-4l-336 -1231h-142z" />
<glyph unicode="X" horiz-adv-x="1331" d="M104 0l486 733l-436 660h127l383 -570l380 570h127l-438 -660l492 -733h-129l-439 645l-430 -645h-123z" />
<glyph unicode="Y" horiz-adv-x="1269" d="M96 1393h125l416 -785h4l412 785h121l-484 -901v-492h-110v492z" />
<glyph unicode="Z" horiz-adv-x="1146" d="M102 0v82l777 1208v4h-736v99h881v-82l-770 -1209v-4h790v-98h-942z" />
<glyph unicode="[" horiz-adv-x="614" d="M137 -287v1966h381v-67h-272v-1831h272v-68h-381z" />
<glyph unicode="\" horiz-adv-x="1105" d="M127 1393h94l758 -1393h-94z" />
<glyph unicode="]" horiz-adv-x="614" d="M96 -219h273v1831h-273v67h381v-1966h-381v68z" />
<glyph unicode="^" horiz-adv-x="778" d="M137 1044l211 390h80l213 -390h-63l-189 328l-188 -328h-64z" />
<glyph unicode="_" horiz-adv-x="1024" d="M137 -123h750v-67h-750v67z" />
<glyph unicode="`" horiz-adv-x="593" d="M201 1434h106l123 -287h-72z" />
<glyph unicode="a" horiz-adv-x="1034" d="M106 270q0 303 431 303h256v134q0 127 -62.5 188t-208.5 61q-143 0 -329 -36l-17 86q207 39 367 38q182 0 268 -73.5t86 -259.5v-711h-104v102h-5q-156 -123 -344 -122q-156 0 -247 77.5t-91 212.5zM211 276q0 -96 70.5 -155.5t199.5 -59.5q174 0 312 111v334h-250 q-184 0 -258 -58.5t-74 -171.5z" />
<glyph unicode="b" d="M137 -2v1436h105v-512h4q137 123 338 122q385 0 385 -532q0 -244 -93.5 -388t-295.5 -144q-201 0 -340 118h-4l-19 -100h-80zM242 176q135 -109 305 -108q313 0 313 444t-313 444q-92 0 -174 -34.5t-131 -75.5v-670z" />
<glyph unicode="c" horiz-adv-x="983" d="M117 512q0 532 477 532q158 0 338 -45l-21 -84q-160 41 -317 41q-188 0 -278.5 -121.5t-90.5 -322.5q0 -199 88 -321.5t281 -122.5q158 0 317 41l21 -86q-184 -43 -338 -43q-477 0 -477 532z" />
<glyph unicode="d" d="M117 512q0 244 93 388t296 144q199 0 334 -120h4v510h104v-1434h-104v102h-4q-137 -123 -338 -122q-385 0 -385 532zM225 512q0 -444 314 -444q170 0 305 108v670q-49 41 -131 75.5t-174 34.5q-314 0 -314 -444z" />
<glyph unicode="e" d="M117 512q0 532 477 532q119 0 202 -37.5t121.5 -94t55.5 -132.5q13 -61 13 -114q0 -14 -1 -27q-4 -66 -18 -133h-740q6 -438 396 -438q193 0 319 41l16 -86q-158 -43 -350 -43q-491 0 -491 532zM227 575h645q10 42 11 86q0 24 -3 49q-9 69 -35 125t-92.5 92t-164.5 36 q-330 -1 -361 -388z" />
<glyph unicode="f" horiz-adv-x="706" d="M51 946v70l168 8v150q0 141 62.5 200.5t210.5 59.5q57 0 149 -15l-12 -84q-76 10 -140 11q-94 0 -129.5 -42t-35.5 -143v-137h276v-78h-276v-946h-105v946h-168z" />
<glyph unicode="g" horiz-adv-x="1136" d="M82 -164q0 141 192 246v4q-76 41 -75 118q0 15 3 30q17 99 115 172v4q-172 86 -172 286q0 162 104.5 255t293.5 93q74 0 135 -20h342v-68h-234v-2q143 -80 144 -258q0 -160 -107.5 -247t-279.5 -87q-94 0 -166 27q-77 -71 -77 -152q0 -79 85 -87l385 -21 q154 -8 219.5 -63.5t65.5 -151.5q0 -164 -142.5 -254t-431.5 -90q-399 0 -399 266zM170 -147q0 -211 340 -211q193 0 314.5 65.5t121.5 188.5q0 137 -213 147l-399 20q-82 -53 -123 -98.5t-41 -111.5zM244 696q0 -121 79.5 -190.5t219.5 -69.5q133 0 212 72t79 188 q0 121 -80 199t-211 78q-145 0 -222 -76t-77 -201z" />
<glyph unicode="h" d="M137 0v1434h105v-564h4q188 174 395 174q307 0 307 -333v-711h-104v690q0 266 -246 266q-168 0 -356 -155v-801h-105z" />
<glyph unicode="i" horiz-adv-x="378" d="M137 0v1024h105v-1024h-105zM137 1202v232h105v-232h-105z" />
<glyph unicode="j" horiz-adv-x="460" d="M-96 -416l10 82q63 -10 117 -10q109 0 148.5 41t39.5 145v1182h105v-1194q0 -141 -62.5 -200.5t-210.5 -59.5q-57 0 -147 14zM219 1202v232h105v-232h-105z" />
<glyph unicode="k" d="M137 0v1434h105v-887l598 477h129l-406 -338l426 -686h-125l-372 616l-250 -196v-420h-105z" />
<glyph unicode="l" horiz-adv-x="378" d="M137 0v1434h105v-1434h-105z" />
<glyph unicode="m" horiz-adv-x="1699" d="M137 0v1024h105v-154h4q174 174 348 174q231 0 287 -188q180 188 374 188q307 0 308 -333v-711h-105v690q0 266 -246 266q-61 0 -127.5 -29.5t-102.5 -57t-89 -72.5q8 -43 8 -111v-686h-102v694q0 262 -246 262q-61 0 -128 -30.5t-97.5 -54t-85.5 -70.5v-801h-105z" />
<glyph unicode="n" d="M137 0v1024h105v-154h4q188 174 395 174q307 0 307 -333v-711h-104v690q0 266 -246 266q-168 0 -356 -155v-801h-105z" />
<glyph unicode="o" horiz-adv-x="1126" d="M117 512q0 532 446.5 532t446.5 -532t-446.5 -532t-446.5 532zM225 512q0 -444 338 -444t338 444t-338 444t-338 -444z" />
<glyph unicode="p" d="M137 -410v1434h105v-102h4q137 123 338 122q385 0 385 -532q0 -244 -93.5 -388t-295.5 -144q-201 0 -334 118h-4v-508h-105zM242 176q135 -109 305 -108q313 0 313 444t-313 444q-92 0 -174 -34.5t-131 -75.5v-670z" />
<glyph unicode="q" d="M117 512q0 244 93 388t296 144q199 0 340 -120h4l18 102h80v-1436h-104v512h-4q-137 -123 -338 -122q-385 0 -385 532zM225 512q0 -444 314 -444q170 0 305 108v670q-49 41 -131 75.5t-174 34.5q-314 0 -314 -444z" />
<glyph unicode="r" horiz-adv-x="757" d="M137 0v1024h105v-164h4q201 184 416 184v-98q-115 0 -227.5 -48t-192.5 -107v-791h-105z" />
<glyph unicode="s" horiz-adv-x="983" d="M106 25l21 84q166 -43 385 -43q70 0 122 18t77.5 42t40 55.5t17.5 50t3 36.5q0 72 -58.5 122t-226.5 85q-115 23 -186.5 51.5t-122.5 92t-51 159.5q0 129 90 197.5t264 68.5q209 0 389 -45l-18 -84q-168 43 -365 43q-86 0 -143 -21.5t-78.5 -56t-28 -56t-6.5 -44.5 q0 -74 54.5 -125t218.5 -84q190 -39 281.5 -103.5t91.5 -193.5q0 -141 -90.5 -217.5t-264.5 -76.5q-236 0 -416 45z" />
<glyph unicode="t" horiz-adv-x="768" d="M51 946v70l168 8l14 287h91v-287h317v-78h-317v-629q0 -127 43 -190.5t155 -63.5q35 0 117 11l12 -80q-119 -14 -153 -14q-143 0 -211 71.5t-68 249.5v645h-168z" />
<glyph unicode="u" d="M137 313v711h105v-690q0 -266 245 -266q168 0 357 155v801h104v-1024h-104v154h-4q-188 -174 -396 -174q-307 -1 -307 333z" />
<glyph unicode="v" horiz-adv-x="1146" d="M113 1024h116l344 -913h5l346 913h110l-399 -1034h-123z" />
<glyph unicode="w" horiz-adv-x="1617" d="M113 1024h112l277 -913h4l254 913h102l264 -913h4l267 913h108l-317 -1034h-113l-266 874h-4l-254 -874h-115z" />
<glyph unicode="x" horiz-adv-x="1116" d="M96 0l398 532l-367 492h121l313 -416l307 416h111l-363 -487l402 -537h-123l-346 457l-338 -457h-115z" />
<glyph unicode="y" horiz-adv-x="1146" d="M113 1024h116l359 -928h4l332 928h110l-407 -1110q-66 -182 -153 -263t-218 -81q-61 0 -123 14l10 86q43 -10 92.5 -10t92.5 22.5t70.5 49t56 80t41 81t34.5 84.5z" />
<glyph unicode="z" horiz-adv-x="962" d="M74 0v78l665 860v4h-635v82h770v-78l-663 -860v-4h678v-82h-815z" />
<glyph unicode="{" horiz-adv-x="696" d="M137 659v74q51 8 82 28.5t43 62.5t15.5 74t3.5 95q0 59 -10.5 191.5t-10.5 195.5q0 176 83 237.5t257 61.5v-51q-53 0 -83 -5t-69.5 -25.5t-59 -75t-19.5 -140.5q0 -61 11 -219.5t11 -222.5q0 -115 -41 -169t-123 -73v-4q82 -18 123 -72.5t41 -168.5q0 -63 -11 -222 t-11 -221q0 -86 19.5 -140t59 -74.5t69.5 -26t83 -5.5v-51q-174 0 -257 61.5t-83 237.5q0 63 10.5 195.5t10.5 191.5q0 63 -3.5 95t-15.5 74t-43 62.5t-82 28.5z" />
<glyph unicode="|" horiz-adv-x="348" d="M137 -205v1802h74v-1802h-74z" />
<glyph unicode="}" horiz-adv-x="696" d="M96 -236q53 0 83 5.5t70 26t59.5 74.5t19.5 140q0 61 -11.5 220t-11.5 223q0 115 41 169t123 72v4q-82 18 -123 72.5t-41 169.5q0 63 11.5 222t11.5 220q0 86 -19.5 140.5t-59.5 75t-69.5 25.5t-83.5 5v51q174 0 257 -61.5t83 -237.5q0 -63 -10 -195t-10 -192 q0 -63 3 -95t15 -74t43 -62.5t82 -28.5v-74q-51 -8 -82 -28.5t-43 -62.5t-15 -73.5t-3 -95.5q0 -59 10 -191t10 -196q0 -176 -83 -237.5t-257 -61.5v51z" />
<glyph unicode="~" horiz-adv-x="942" d="M98 608q68 88 115 123t100.5 35t196.5 -62.5t174 -62.5q76 0 133 98l33 -32q-70 -139 -160 -140q-45 0 -188.5 61.5t-184.5 61.5q-25 0 -42 -5t-53 -29.5t-87 -75.5z" />
<glyph unicode="&#xa1;" horiz-adv-x="378" d="M137 -410l6 983h93l6 -983h-105zM137 788v236h105v-236h-105z" />
<glyph unicode="&#xa2;" horiz-adv-x="1044" d="M137 512q0 233 123 378.5t336 151.5v187h51v-187q147 -4 305 -73l-12 -82q-174 66 -293 69v-888q119 2 293 67l12 -82q-152 -68 -305 -71v-187h-51v187q-213 6 -336 151.5t-123 378.5zM246 512q0 -184 92 -309t258 -133v884q-166 -8 -258 -134t-92 -308z" />
<glyph unicode="&#xa3;" horiz-adv-x="1269" d="M137 0v92h103v574h-103v82h103v317q0 178 122.5 263t327.5 85q274 0 457 -113l-45 -86q-184 100 -406 101q-188 0 -270 -73t-82 -189v-305h502v-82h-502v-574h748v-92h-955z" />
<glyph unicode="&#xa4;" horiz-adv-x="1050" d="M143 928l17 16l162 -184q90 74 204 74q113 0 203 -74l160 184l18 -16l-159 -183q102 -96 102 -235t-100 -234l155 -176l-18 -18l-158 178q-88 -72 -203 -72q-117 0 -204 72l-156 -178l-19 18l156 176q-98 94 -98 233.5t98 233.5zM229 510q0 -121 88.5 -209t209 -88 t209.5 88t89 209t-89 210t-209.5 89t-209 -89t-88.5 -210z" />
<glyph unicode="&#xa5;" horiz-adv-x="1351" d="M137 1393h125l416 -785h4l412 785h120l-466 -865h344v-67h-361v-461h-110v461h-361v67h344z" />
<glyph unicode="&#xa6;" horiz-adv-x="348" d="M137 -205v819h74v-819h-74zM137 778v819h74v-819h-74z" />
<glyph unicode="&#xa7;" horiz-adv-x="1228" d="M154 737q0 231 202 326q-199 119 -198 309q0 178 125 263t331 85q264 0 451 -112l-45 -86q-184 100 -406 100q-166 0 -249.5 -61.5t-83.5 -174.5q0 -231 389 -327q88 -20 155.5 -48t131 -72t98.5 -110.5t35 -152.5q0 -231 -205 -330q201 -121 200 -305 q0 -178 -124.5 -263t-331.5 -85q-264 0 -451 112l43 86q184 -100 408 -100q174 0 254 68.5t80 183.5q0 215 -390 309q-419 96 -419 385zM266 741q0 -57 26.5 -104t56.5 -73.5t89.5 -52.5t84 -34t81.5 -24q119 -35 182 -60q96 39 143.5 115t47.5 162q0 70 -34 122t-96.5 84.5 t-108.5 50t-107 34.5q-12 2 -17 4q-31 8 -88 26.5t-73 22.5q-92 -37 -139.5 -114t-47.5 -159z" />
<glyph unicode="&#xa8;" horiz-adv-x="983" d="M178 1208v226h94v-226h-94zM711 1208v226h94v-226h-94z" />
<glyph unicode="&#xa9;" horiz-adv-x="1566" d="M61 696q0 299 211 508t510 209q301 0 512 -209t211 -508t-211 -507.5t-512 -208.5q-299 0 -510 208.5t-211 507.5zM117 696.5q0 -276.5 194.5 -471t471 -194.5t472 194.5t195.5 471t-195.5 469t-472 192.5t-471 -192.5t-194.5 -469zM459 705q0 172 83 262t246 90 q141 0 246 -72l-24 -53q-104 63 -219 63q-260 0 -261 -290q0 -311 261 -312q123 0 217 62l26 -52q-104 -72 -246 -71q-164 0 -246.5 96.5t-82.5 276.5z" />
<glyph unicode="&#xaa;" horiz-adv-x="608" d="M106 1016q0 152 216 151h129v66q0 63 -31 95t-105 32q-66 0 -165 -19l-9 43q98 18 185 19q90 0 133 -37t43 -129v-356h-51v51h-2q-80 -61 -173 -62q-78 0 -124 39t-46 107zM158 1020q0 -49 35.5 -79t101.5 -30q90 0 156 56v168h-125q-168 0 -168 -115z" />
<glyph unicode="&#xab;" horiz-adv-x="1495" d="M137 477v70l504 313v-108l-395 -240l395 -240v-108zM854 477v70l504 313v-108l-395 -240l395 -240v-108z" />
<glyph unicode="&#xac;" horiz-adv-x="1208" d="M178 498v90h852v-318h-88v228h-764z" />
<glyph unicode="&#xad;" horiz-adv-x="1105" d="M178 498v90h750v-90h-750z" />
<glyph unicode="&#xae;" horiz-adv-x="1566" d="M61 696q0 299 211 508t510 209q301 0 512 -209t211 -508t-211 -507.5t-512 -208.5q-299 0 -510 208.5t-211 507.5zM115 696.5q0 -276.5 195.5 -471t472 -194.5t472 194.5t195.5 471t-195.5 469t-472 192.5t-472 -192.5t-195.5 -469zM539 344v705h274q117 0 181.5 -59.5 t64.5 -164.5q0 -96 -52.5 -155.5t-146.5 -65.5l219 -260h-84l-213 250h-176v-250h-67zM606 657h199q184 0 184 168q0 76 -46 119t-130 43h-207v-330z" />
<glyph unicode="&#xaf;" horiz-adv-x="901" d="M147 1223v77h607v-77h-607z" />
<glyph unicode="&#xb0;" horiz-adv-x="532" d="M90 1188q0 74 51.5 125t125 51t124.5 -51t51 -125t-51 -125t-124.5 -51t-125 51t-51.5 125zM137 1188q0 -55 37 -92t92.5 -37t92 37t36.5 92t-36.5 92t-92 37t-92.5 -37t-37 -92z" />
<glyph unicode="&#xb1;" horiz-adv-x="1024" d="M137 123v88h330v295h-330v88h330v332h90v-332h330v-88h-330v-295h330v-88h-750z" />
<glyph unicode="&#xb2;" horiz-adv-x="643" d="M106 1106v59q360 246 361 428q0 68 -33 109t-64.5 49t-64.5 8q-82 0 -180 -49l-19 45q115 57 213 57q104 0 156.5 -58t52.5 -146q0 -209 -338 -447v-2h349v-53h-433z" />
<glyph unicode="&#xb3;" horiz-adv-x="663" d="M106 1139l19 47q92 -51 197 -51q98 0 137 42t39 91q0 152 -191 151h-82v49h78q82 0 129 44t47 104q0 53 -33.5 95t-121.5 42q-84 0 -179 -51l-20 47q92 53 207 53q96 0 151.5 -48t55.5 -134q0 -63 -40 -106.5t-102 -61.5v-2q74 -12 118 -59.5t44 -112.5 q0 -92 -59.5 -142.5t-175.5 -50.5q-132 1 -218 54z" />
<glyph unicode="&#xb4;" horiz-adv-x="593" d="M158 1147l123 287h104l-156 -287h-71z" />
<glyph unicode="&#xb5;" d="M-178 -416l10 82q63 -10 117 -10q109 0 148.5 52t39.5 175v1141h105v-702q4 -254 245 -254q168 0 357 155v801h104v-1024h-104v154h-4q-188 -174 -396 -174q-150 0 -202 98v-203q0 -168 -62.5 -236.5t-210.5 -68.5q-57 0 -147 14z" />
<glyph unicode="&#xb6;" horiz-adv-x="1157" d="M61 999q0 182 113 288t299 106h547v-47h-168v-1346h-53v1346h-137v-742h-189q-184 0 -298 109.5t-114 285.5z" />
<glyph unicode="&#xb7;" horiz-adv-x="378" d="M137 393v238h105v-238h-105z" />
<glyph unicode="&#xb8;" horiz-adv-x="602" d="M133 -406l8 52q74 -18 117 -19q74 0 104.5 36t30.5 79q0 41 -32.5 73.5t-116.5 34.5v150h49v-117q72 -4 121 -38.5t49 -106.5t-51.5 -120t-137.5 -48q-65 -1 -141 24z" />
<glyph unicode="&#xb9;" horiz-adv-x="622" d="M106 1675q158 78 228 133h39v-655h143v-47h-344v47h143v586l-192 -109z" />
<glyph unicode="&#xba;" horiz-adv-x="659" d="M106 1130.5q0 266.5 223.5 266.5t223.5 -266.5t-223.5 -266.5t-223.5 266.5zM162 1130q0 -221 168 -221q170 0 170 221q0 223 -170 224q-168 -1 -168 -224z" />
<glyph unicode="&#xbb;" horiz-adv-x="1495" d="M137 164v108l395 240l-395 240v108l504 -313v-70zM854 164v108l395 240l-395 240v108l504 -313v-70z" />
<glyph unicode="&#xbc;" horiz-adv-x="1638" d="M117 1266q158 78 227 133h39v-656h143v-47h-344v47h144v586l-193 -108zM475 0l758 1393h41l-758 -1393h-41zM1030 193v51q221 242 313 452h74v-452h105v-51h-105v-193h-57v193h-330zM1092 244h268v374h-2q-86 -173 -266 -374z" />
<glyph unicode="&#xbd;" horiz-adv-x="1638" d="M117 1266q158 78 227 133h39v-656h143v-47h-344v47h144v586l-193 -108zM434 0l758 1393h41l-758 -1393h-41zM1092 0v57q360 244 360 430q0 68 -33 109t-64.5 49t-64.5 8q-82 0 -180 -49l-18 45q115 57 213 58q102 0 154 -58.5t52 -146.5q0 -213 -337 -449v-2h348v-51 h-430z" />
<glyph unicode="&#xbe;" horiz-adv-x="1638" d="M117 729l18 47q92 -51 197 -51q98 0 137 42t39 91q0 152 -191 152h-81v49h77q82 0 129 44t47 103q0 53 -33.5 95t-121.5 42q-84 0 -178 -51l-21 47q94 53 207 54q96 0 151.5 -48.5t55.5 -134.5q0 -63 -40 -106t-101 -62v-2q74 -12 117.5 -59t43.5 -113q0 -92 -59 -142 t-176 -50q-131 0 -217 53zM475 0l758 1393h41l-758 -1393h-41zM1030 193v51q221 242 313 452h74v-452h105v-51h-105v-193h-57v193h-330zM1092 244h268v374h-2q-86 -173 -266 -374z" />
<glyph unicode="&#xbf;" horiz-adv-x="1024" d="M137 -45q0 104 42 181t101.5 121t119 81t101.5 85t42 109v62h92v-62q0 -66 -28.5 -118t-73 -83.5t-94.5 -69.5t-94 -72.5t-72.5 -93t-28.5 -132.5q0 -254 299 -254q135 0 313 70l31 -90q-190 -78 -371 -78q-207 0 -293 101.5t-86 242.5zM537 788v236h104v-236h-104z" />
<glyph unicode="&#xc0;" horiz-adv-x="1331" d="M96 0l510 1403h135l494 -1403h-121l-137 391h-623l-141 -391h-117zM379 485h573l-280 783h-2zM444 1782h107l123 -287h-72z" />
<glyph unicode="&#xc1;" horiz-adv-x="1331" d="M96 0l510 1403h135l494 -1403h-121l-137 391h-623l-141 -391h-117zM379 485h573l-280 783h-2zM643 1495l123 287h104l-155 -287h-72z" />
<glyph unicode="&#xc2;" horiz-adv-x="1331" d="M96 0l510 1403h135l494 -1403h-121l-137 391h-623l-141 -391h-117zM379 485h573l-280 783h-2zM406 1495l210 287h80l213 -287h-73l-179 205l-178 -205h-73z" />
<glyph unicode="&#xc3;" horiz-adv-x="1331" d="M96 0l510 1403h135l494 -1403h-121l-137 391h-623l-141 -391h-117zM336 1571q68 88 115 121.5t100 33.5t145 -57t123 -57q76 0 133 90l33 -33q-74 -139 -160 -139q-43 0 -137 56t-133 56q-45 0 -77 -16t-105 -84zM379 485h573l-280 783h-2z" />
<glyph unicode="&#xc4;" horiz-adv-x="1331" d="M96 0l510 1403h135l494 -1403h-121l-137 391h-623l-141 -391h-117zM348 1556v226h94v-226h-94zM379 485h573l-280 783h-2zM881 1556v226h94v-226h-94z" />
<glyph unicode="&#xc5;" horiz-adv-x="1331" d="M96 0l510 1403h135l494 -1403h-121l-137 391h-623l-141 -391h-117zM379 485h573l-280 783h-2zM481 1679.5q0 73.5 51.5 124.5t125 51t125 -51t51.5 -124.5t-51.5 -125t-125 -51.5t-125 51.5t-51.5 125zM528 1679.5q0 -55.5 37 -92.5t92.5 -37t92 37t36.5 92.5t-36.5 92 t-92 36.5t-92.5 -36.5t-37 -92z" />
<glyph unicode="&#xc6;" horiz-adv-x="1896" d="M96 0l754 1393h899v-99h-733v-520h641v-98h-641v-578h743v-98h-852v606h-366l-332 -606h-113zM580 692h327v600h-4z" />
<glyph unicode="&#xc7;" horiz-adv-x="1269" d="M137 707q0 156 24.5 274.5t85 221t176.5 156.5t284 54q236 0 460 -67l-24 -93q-248 61 -428 62q-113 0 -197 -34t-134 -88t-81 -136t-41 -165t-10 -185q0 -139 18.5 -243t66.5 -196t143 -141t235 -49q180 0 428 61l24 -92q-219 -63 -448 -67v-97q72 -4 122 -38.5 t50 -106.5t-52.5 -120t-140.5 -48q-59 0 -139 24l10 52q74 -18 117 -19q74 0 104.5 37t30.5 78t-32.5 73.5t-116.5 34.5v132q-158 6 -266.5 63t-165 160.5t-80 223.5t-23.5 278z" />
<glyph unicode="&#xc8;" horiz-adv-x="1146" d="M158 0v1393h841v-99h-733v-520h641v-98h-641v-578h744v-98h-852zM420 1782h106l123 -287h-71z" />
<glyph unicode="&#xc9;" horiz-adv-x="1146" d="M158 0v1393h841v-99h-733v-520h641v-98h-641v-578h744v-98h-852zM514 1495l123 287h104l-155 -287h-72z" />
<glyph unicode="&#xca;" horiz-adv-x="1146" d="M158 0v1393h841v-99h-733v-520h641v-98h-641v-578h744v-98h-852zM350 1495l211 287h80l213 -287h-74l-178 205l-178 -205h-74z" />
<glyph unicode="&#xcb;" horiz-adv-x="1146" d="M158 0v1393h841v-99h-733v-520h641v-98h-641v-578h744v-98h-852zM262 1556v226h94v-226h-94zM795 1556v226h94v-226h-94z" />
<glyph unicode="&#xcc;" horiz-adv-x="425" d="M20 1782h107l123 -287h-72zM158 0v1393h108v-1393h-108z" />
<glyph unicode="&#xcd;" horiz-adv-x="425" d="M158 0v1393h108v-1393h-108zM180 1495l123 287h105l-156 -287h-72z" />
<glyph unicode="&#xce;" horiz-adv-x="425" d="M-39 1495l211 287h80l213 -287h-74l-178 205l-178 -205h-74zM156 0v1393h108v-1393h-108z" />
<glyph unicode="&#xcf;" horiz-adv-x="425" d="M-100 1556v226h94v-226h-94zM160 0v1393h108v-1393h-108zM432 1556v226h94v-226h-94z" />
<glyph unicode="&#xd0;" horiz-adv-x="1341" d="M55 672v69h113v652h475q561 0 561 -686q0 -707 -561 -707h-475v672h-113zM276 98h367q446 0 447 609q0 129 -19.5 227t-68 183t-138.5 131t-221 46h-367v-553h267v-69h-267v-574z" />
<glyph unicode="&#xd1;" horiz-adv-x="1331" d="M158 0v1393h108l797 -1190h4v1190h107v-1393h-115l-791 1180h-4v-1180h-106zM362 1571q68 88 115 121.5t100.5 33.5t145.5 -57t123 -57q76 0 133 90l33 -33q-74 -139 -160 -139q-43 0 -137 56t-133 56q-45 0 -77 -16t-106 -84z" />
<glyph unicode="&#xd2;" horiz-adv-x="1413" d="M137 707q0 156 24.5 274.5t85 221t176.5 156.5t283.5 54t283.5 -54t176.5 -156.5t85 -221.5t24.5 -274q0 -160 -24.5 -282t-85 -227.5t-176.5 -161.5t-283.5 -56t-283.5 56t-176.5 161.5t-85 227.5t-24.5 282zM252 706.5q0 -104.5 9 -188.5t39 -171t78 -144.5t132 -94 t196.5 -36.5t196.5 36.5t132 94t78 144.5t39 171t9 188.5t-9 186.5t-38 166t-78 138t-133 89t-196.5 35t-196.5 -35t-133 -89t-78 -138t-38 -166t-9 -186.5zM551 1782h106l123 -287h-71z" />
<glyph unicode="&#xd3;" horiz-adv-x="1413" d="M137 707q0 156 24.5 274.5t85 221t176.5 156.5t283.5 54t283.5 -54t176.5 -156.5t85 -221.5t24.5 -274q0 -160 -24.5 -282t-85 -227.5t-176.5 -161.5t-283.5 -56t-283.5 56t-176.5 161.5t-85 227.5t-24.5 282zM252 706.5q0 -104.5 9 -188.5t39 -171t78 -144.5t132 -94 t196.5 -36.5t196.5 36.5t132 94t78 144.5t39 171t9 188.5t-9 186.5t-38 166t-78 138t-133 89t-196.5 35t-196.5 -35t-133 -89t-78 -138t-38 -166t-9 -186.5zM662 1495l122 287h105l-156 -287h-71z" />
<glyph unicode="&#xd4;" horiz-adv-x="1413" d="M137 707q0 156 24.5 274.5t85 221t176.5 156.5t283.5 54t283.5 -54t176.5 -156.5t85 -221.5t24.5 -274q0 -160 -24.5 -282t-85 -227.5t-176.5 -161.5t-283.5 -56t-283.5 56t-176.5 161.5t-85 227.5t-24.5 282zM252 706.5q0 -104.5 9 -188.5t39 -171t78 -144.5t132 -94 t196.5 -36.5t196.5 36.5t132 94t78 144.5t39 171t9 188.5t-9 186.5t-38 166t-78 138t-133 89t-196.5 35t-196.5 -35t-133 -89t-78 -138t-38 -166t-9 -186.5zM457 1495l211 287h80l213 -287h-74l-178 205l-179 -205h-73z" />
<glyph unicode="&#xd5;" horiz-adv-x="1413" d="M137 707q0 156 24.5 274.5t85 221t176.5 156.5t283.5 54t283.5 -54t176.5 -156.5t85 -221.5t24.5 -274q0 -160 -24.5 -282t-85 -227.5t-176.5 -161.5t-283.5 -56t-283.5 56t-176.5 161.5t-85 227.5t-24.5 282zM252 706.5q0 -104.5 9 -188.5t39 -171t78 -144.5t132 -94 t196.5 -36.5t196.5 36.5t132 94t78 144.5t39 171t9 188.5t-9 186.5t-38 166t-78 138t-133 89t-196.5 35t-196.5 -35t-133 -89t-78 -138t-38 -166t-9 -186.5zM383 1571q68 88 115 121.5t100 33.5t145.5 -57t122.5 -57q76 0 133 90l33 -33q-74 -139 -160 -139q-43 0 -137 56 t-133 56q-45 0 -76.5 -16t-105.5 -84z" />
<glyph unicode="&#xd6;" horiz-adv-x="1413" d="M137 707q0 156 24.5 274.5t85 221t176.5 156.5t283.5 54t283.5 -54t176.5 -156.5t85 -221.5t24.5 -274q0 -160 -24.5 -282t-85 -227.5t-176.5 -161.5t-283.5 -56t-283.5 56t-176.5 161.5t-85 227.5t-24.5 282zM252 706.5q0 -104.5 9 -188.5t39 -171t78 -144.5t132 -94 t196.5 -36.5t196.5 36.5t132 94t78 144.5t39 171t9 188.5t-9 186.5t-38 166t-78 138t-133 89t-196.5 35t-196.5 -35t-133 -89t-78 -138t-38 -166t-9 -186.5zM401 1556v226h95v-226h-95zM934 1556v226h94v-226h-94z" />
<glyph unicode="&#xd7;" horiz-adv-x="1077" d="M184 252l293 291l-293 291l64 63l291 -293l290 293l64 -63l-293 -291l293 -291l-64 -64l-290 293l-291 -293z" />
<glyph unicode="&#xd8;" horiz-adv-x="1413" d="M92 -23l164 205q-119 176 -119 525q0 156 24.5 274.5t85 221t176.5 156.5t284 54q266 0 405 -151l168 213l41 -33l-172 -215q127 -172 127 -520q0 -160 -24.5 -282t-85 -227.5t-176.5 -161.5t-283 -56q-279 0 -416 165l-158 -200zM252 707q0 -285 82 -426l715 899 q-111 141 -342 141q-113 0 -197 -35t-133 -89t-78 -138t-38 -166t-9 -186zM358 229q111 -158 349 -157q113 0 196.5 36.5t131.5 94t78 144.5t39 171t9 189q0 285 -88 423z" />
<glyph unicode="&#xd9;" horiz-adv-x="1310" d="M158 492v901h108v-901q0 -63 6.5 -113.5t31 -111t65.5 -100.5t115.5 -67.5t177 -27.5t177 29.5t113.5 71.5t60.5 104.5t26.5 108.5t5 106v901h109v-901q0 -264 -123 -388t-375 -124q-254 0 -375.5 124t-121.5 388zM459 1782h106l123 -287h-72z" />
<glyph unicode="&#xda;" horiz-adv-x="1310" d="M158 492v901h108v-901q0 -63 6.5 -113.5t31 -111t65.5 -100.5t115.5 -67.5t177 -27.5t177 29.5t113.5 71.5t60.5 104.5t26.5 108.5t5 106v901h109v-901q0 -264 -123 -388t-375 -124q-254 0 -375.5 124t-121.5 388zM612 1495l123 287h105l-156 -287h-72z" />
<glyph unicode="&#xdb;" horiz-adv-x="1310" d="M158 492v901h108v-901q0 -63 6.5 -113.5t31 -111t65.5 -100.5t115.5 -67.5t177 -27.5t177 29.5t113.5 71.5t60.5 104.5t26.5 108.5t5 106v901h109v-901q0 -264 -123 -388t-375 -124q-254 0 -375.5 124t-121.5 388zM403 1495l211 287h80l213 -287h-73l-179 205l-178 -205 h-74z" />
<glyph unicode="&#xdc;" horiz-adv-x="1310" d="M158 492v901h108v-901q0 -63 6.5 -113.5t31 -111t65.5 -100.5t115.5 -67.5t177 -27.5t177 29.5t113.5 71.5t60.5 104.5t26.5 108.5t5 106v901h109v-901q0 -264 -123 -388t-375 -124q-254 0 -375.5 124t-121.5 388zM340 1556v226h94v-226h-94zM872 1556v226h95v-226h-95z " />
<glyph unicode="&#xdd;" horiz-adv-x="1269" d="M96 1393h125l416 -785h4l412 785h121l-484 -901v-492h-110v492zM616 1495l123 287h105l-156 -287h-72z" />
<glyph unicode="&#xde;" horiz-adv-x="1228" d="M158 0v1393h108v-297h441q190 0 297.5 -108.5t107.5 -280.5q0 -180 -105.5 -285t-299.5 -105h-441v-317h-108zM266 416h430q143 0 223 74.5t80 216.5q0 133 -80.5 211.5t-222.5 78.5h-430v-581z" />
<glyph unicode="&#xdf;" horiz-adv-x="1320" d="M51 946v70l168 8q0 410 436 410q188 0 292 -81t104 -227q0 -72 -28 -130t-68 -93t-79.5 -63.5t-67.5 -56t-28 -54.5q0 -53 103 -90q176 -59 253.5 -138t77.5 -198q0 -166 -111.5 -244.5t-275.5 -78.5q-135 0 -264 40l17 82q125 -41 239 -41q94 0 157.5 29t88.5 75 t33 76.5t8 61.5q0 47 -17.5 87t-42 64.5t-61.5 47t-62.5 33t-62.5 23.5t-43 15q-78 33 -107.5 65t-29.5 81q0 35 25.5 67.5t63.5 61.5t75 61.5t62.5 83.5t25.5 115q0 72 -29 123t-76 75.5t-91 34t-89 9.5q-84 0 -145.5 -23.5t-94 -59.5t-53 -89.5t-25.5 -98.5t-5 -102v-977 h-105v946h-168z" />
<glyph unicode="&#xe0;" horiz-adv-x="1034" d="M106 270q0 303 431 303h256v134q0 127 -62.5 188t-208.5 61q-143 0 -329 -36l-17 86q207 39 367 38q182 0 268 -73.5t86 -259.5v-711h-104v102h-5q-156 -123 -344 -122q-156 0 -247 77.5t-91 212.5zM211 276q0 -96 70.5 -155.5t199.5 -59.5q174 0 312 111v334h-250 q-184 0 -258 -58.5t-74 -171.5zM375 1434h106l123 -287h-72z" />
<glyph unicode="&#xe1;" horiz-adv-x="1034" d="M106 270q0 303 431 303h256v134q0 127 -62.5 188t-208.5 61q-143 0 -329 -36l-17 86q207 39 367 38q182 0 268 -73.5t86 -259.5v-711h-104v102h-5q-156 -123 -344 -122q-156 0 -247 77.5t-91 212.5zM211 276q0 -96 70.5 -155.5t199.5 -59.5q174 0 312 111v334h-250 q-184 0 -258 -58.5t-74 -171.5zM498 1147l123 287h104l-156 -287h-71z" />
<glyph unicode="&#xe2;" horiz-adv-x="1034" d="M106 270q0 303 431 303h256v134q0 127 -62.5 188t-208.5 61q-143 0 -329 -36l-17 86q207 39 367 38q182 0 268 -73.5t86 -259.5v-711h-104v102h-5q-156 -123 -344 -122q-156 0 -247 77.5t-91 212.5zM211 276q0 -96 70.5 -155.5t199.5 -59.5q174 0 312 111v334h-250 q-184 0 -258 -58.5t-74 -171.5zM301 1147l211 287h80l213 -287h-74l-178 205l-178 -205h-74z" />
<glyph unicode="&#xe3;" horiz-adv-x="1034" d="M106 270q0 303 431 303h256v134q0 127 -62.5 188t-208.5 61q-143 0 -329 -36l-17 86q207 39 367 38q182 0 268 -73.5t86 -259.5v-711h-104v102h-5q-156 -123 -344 -122q-156 0 -247 77.5t-91 212.5zM211 276q0 -96 70.5 -155.5t199.5 -59.5q174 0 312 111v334h-250 q-184 0 -258 -58.5t-74 -171.5zM221 1223q68 88 115 121.5t100 33.5t145.5 -57t123.5 -57q76 0 133 90l32 -33q-74 -139 -159 -139q-43 0 -137.5 56t-133.5 56q-45 0 -76.5 -16t-105.5 -84z" />
<glyph unicode="&#xe4;" horiz-adv-x="1034" d="M106 270q0 303 431 303h256v134q0 127 -62.5 188t-208.5 61q-143 0 -329 -36l-17 86q207 39 367 38q182 0 268 -73.5t86 -259.5v-711h-104v102h-5q-156 -123 -344 -122q-156 0 -247 77.5t-91 212.5zM211 276q0 -96 70.5 -155.5t199.5 -59.5q174 0 312 111v334h-250 q-184 0 -258 -58.5t-74 -171.5zM237 1208v226h94v-226h-94zM770 1208v226h94v-226h-94z" />
<glyph unicode="&#xe5;" horiz-adv-x="1034" d="M106 270q0 303 431 303h256v134q0 127 -62.5 188t-208.5 61q-143 0 -329 -36l-17 86q207 39 367 38q182 0 268 -73.5t86 -259.5v-711h-104v102h-5q-156 -123 -344 -122q-156 0 -247 77.5t-91 212.5zM211 276q0 -96 70.5 -155.5t199.5 -59.5q174 0 312 111v334h-250 q-184 0 -258 -58.5t-74 -171.5zM377 1331q0 74 51 125t125 51t125 -51t51 -125t-51 -125t-125 -51t-125 51t-51 125zM424 1331q0 -55 37 -92t92 -37t92 37t37 92t-37 92t-92 37t-92 -37t-37 -92z" />
<glyph unicode="&#xe6;" horiz-adv-x="1761" d="M106 268q0 305 431 305h256v134q0 127 -61.5 188t-209.5 61q-143 0 -329 -36l-17 86q207 39 367 38q150 0 233.5 -59t93.5 -170q104 229 400 229q113 0 193.5 -33.5t121.5 -86t59.5 -126t16.5 -144t-19 -148.5h-739q4 -440 393 -440q186 0 322 40l14 -83 q-158 -43 -348 -43q-295 0 -414 190q-174 -190 -426 -190q-156 0 -247 76.5t-91 211.5zM209 276q0 -96 70.5 -155.5t201.5 -59.5q211 0 367 156q-51 111 -55 289h-250q-184 0 -259 -58.5t-75 -171.5zM903 575h645q31 160 -34.5 274t-249.5 114q-334 -1 -361 -388z" />
<glyph unicode="&#xe7;" horiz-adv-x="983" d="M117 512q0 532 477 532q158 0 338 -45l-21 -84q-160 41 -317 41q-190 0 -279.5 -121.5t-89.5 -322.5q0 -197 89 -320.5t280 -123.5q158 0 317 41l21 -86q-170 -41 -334 -43v-97q72 -4 122 -38.5t50 -106.5t-52 -120t-138 -48q-61 0 -142 24l11 52q74 -18 116 -19 q74 0 104.5 36t30.5 79q0 41 -32.5 74.5t-116.5 33.5v132q-434 20 -434 530z" />
<glyph unicode="&#xe8;" d="M117 512q0 532 477 532q119 0 202 -37.5t121.5 -94t55 -132t12.5 -141.5t-18 -133h-740q6 -438 396 -438q193 0 319 41l16 -86q-158 -43 -350 -43q-491 0 -491 532zM227 575h645q16 66 7 134.5t-34.5 125t-92 92.5t-164.5 36q-330 -1 -361 -388zM395 1434h107l123 -287 h-72z" />
<glyph unicode="&#xe9;" d="M117 512q0 532 477 532q119 0 202 -37.5t121.5 -94t55.5 -132.5q13 -61 13 -114q0 -14 -1 -27q-4 -66 -18 -133h-740q6 -438 396 -438q193 0 319 41l16 -86q-158 -43 -350 -43q-491 0 -491 532zM227 575h645q10 42 11 86q0 24 -3 49q-9 69 -35 125t-92.5 92t-164.5 36 q-330 -1 -361 -388zM580 1147l123 287h104l-156 -287h-71z" />
<glyph unicode="&#xea;" d="M117 512q0 532 477 532q119 0 202 -37.5t121.5 -94t55 -132t12.5 -141.5t-18 -133h-740q6 -438 396 -438q193 0 319 41l16 -86q-158 -43 -350 -43q-491 0 -491 532zM227 575h645q16 66 7 134.5t-34.5 125t-92 92.5t-164.5 36q-330 -1 -361 -388zM340 1147l211 287h80 l213 -287h-74l-178 205l-178 -205h-74z" />
<glyph unicode="&#xeb;" d="M117 512q0 532 477 532q119 0 202 -37.5t121.5 -94t55.5 -132.5q13 -61 13 -114q0 -14 -1 -27q-4 -66 -18 -133h-740q6 -438 396 -438q193 0 319 41l16 -86q-158 -43 -350 -43q-491 0 -491 532zM227 575h645q10 42 11 86q0 24 -3 49q-9 69 -35 125t-92.5 92t-164.5 36 q-330 -1 -361 -388zM268 1208v226h94v-226h-94zM801 1208v226h94v-226h-94z" />
<glyph unicode="&#xec;" horiz-adv-x="378" d="M-6 1434h106l123 -287h-71zM137 0v1024h105v-1024h-105z" />
<glyph unicode="&#xed;" horiz-adv-x="378" d="M137 0v1024h105v-1024h-105zM160 1147l123 287h104l-156 -287h-71z" />
<glyph unicode="&#xee;" horiz-adv-x="378" d="M-61 1147l211 287h79l213 -287h-73l-179 205l-178 -205h-73zM137 0v1024h105v-1024h-105z" />
<glyph unicode="&#xef;" horiz-adv-x="378" d="M-123 1208v226h94v-226h-94zM139 0v1024h105v-1024h-105zM410 1208v226h94v-226h-94z" />
<glyph unicode="&#xf0;" horiz-adv-x="1126" d="M117 451q0 229 111.5 355t310.5 126q217 0 362 -217l4 2q-18 336 -151 481l-166 -166l-41 43l158 158q-106 92 -261 92q-133 0 -270 -45l-14 80q154 53 293 53q193 0 321 -110l160 157l41 -41l-154 -153q186 -197 187 -652q0 -635 -461 -634q-186 0 -308 128t-122 343z M225 451q0 -180 95.5 -282.5t234.5 -102.5q313 0 340 426q4 57 4 92q0 6 -1 19t-1 20q-61 98 -148 157.5t-184 59.5q-98 0 -168.5 -36t-106.5 -97.5t-50.5 -123.5t-14.5 -132z" />
<glyph unicode="&#xf1;" d="M137 0v1024h105v-154h4q188 174 395 174q307 0 307 -333v-711h-104v690q0 266 -246 266q-168 0 -356 -155v-801h-105zM225 1223q68 88 115 121.5t100.5 33.5t145.5 -57t123 -57q76 0 133 90l32 -33q-74 -139 -159 -139q-43 0 -137.5 56t-133.5 56q-45 0 -76.5 -16 t-105.5 -84z" />
<glyph unicode="&#xf2;" horiz-adv-x="1126" d="M117 512q0 532 446.5 532t446.5 -532t-446.5 -532t-446.5 532zM225 512q0 -444 338 -444t338 444t-338 444t-338 -444zM383 1434h106l123 -287h-71z" />
<glyph unicode="&#xf3;" horiz-adv-x="1126" d="M117 512q0 532 446.5 532t446.5 -532t-446.5 -532t-446.5 532zM225 512q0 -444 338 -444t338 444t-338 444t-338 -444zM533 1147l123 287h104l-156 -287h-71z" />
<glyph unicode="&#xf4;" horiz-adv-x="1126" d="M117 512q0 532 446.5 532t446.5 -532t-446.5 -532t-446.5 532zM225 512q0 -444 338 -444t338 444t-338 444t-338 -444zM311 1147l211 287h80l213 -287h-74l-178 205l-178 -205h-74z" />
<glyph unicode="&#xf5;" horiz-adv-x="1126" d="M117 512q0 532 446.5 532t446.5 -532t-446.5 -532t-446.5 532zM225 512q0 -444 338 -444t338 444t-338 444t-338 -444zM243 1223q68 88 115 121.5t100.5 33.5t145.5 -57t123 -57q76 0 133 90l32 -33q-74 -139 -159 -139q-43 0 -137.5 56t-133.5 56q-45 0 -76.5 -16 t-105.5 -84z" />
<glyph unicode="&#xf6;" horiz-adv-x="1126" d="M117 512q0 532 446.5 532t446.5 -532t-446.5 -532t-446.5 532zM225 512q0 -444 338 -444t338 444t-338 444t-338 -444zM250 1208v226h94v-226h-94zM783 1208v226h94v-226h-94z" />
<glyph unicode="&#xf7;" horiz-adv-x="1024" d="M137 508v70h750v-70h-750zM465 113v225h94v-225h-94zM465 748v225h94v-225h-94z" />
<glyph unicode="&#xf8;" horiz-adv-x="1126" d="M72 -23l137 160q-92 133 -92 375q0 532 446 532q205 0 316 -122l135 157l41 -30l-140 -164q94 -133 95 -373q0 -532 -447 -532q-205 0 -317 122l-135 -157zM225 530q0 -195 60 -303l528 617q-86 113 -250 112q-330 0 -338 -426zM311 178q88 -111 252 -110q338 0 338 440 q0 176 -63 287z" />
<glyph unicode="&#xf9;" d="M137 313v711h105v-690q0 -266 245 -266q168 0 357 155v801h104v-1024h-104v154h-4q-188 -174 -396 -174q-307 -1 -307 333zM332 1434h106l123 -287h-72z" />
<glyph unicode="&#xfa;" d="M137 313v711h105v-690q0 -266 245 -266q168 0 357 155v801h104v-1024h-104v154h-4q-188 -174 -396 -174q-307 -1 -307 333zM512 1147l123 287h104l-156 -287h-71z" />
<glyph unicode="&#xfb;" d="M137 313v711h105v-690q0 -266 245 -266q168 0 357 155v801h104v-1024h-104v154h-4q-188 -174 -396 -174q-307 -1 -307 333zM293 1147l211 287h80l213 -287h-74l-178 205l-178 -205h-74z" />
<glyph unicode="&#xfc;" d="M137 313v711h105v-690q0 -266 245 -266q168 0 357 155v801h104v-1024h-104v154h-4q-188 -174 -396 -174q-307 -1 -307 333zM229 1208v226h94v-226h-94zM762 1208v226h94v-226h-94z" />
<glyph unicode="&#xfd;" horiz-adv-x="1146" d="M113 1024h116l359 -928h4l332 928h110l-407 -1110q-66 -182 -153 -263t-218 -81q-61 0 -123 14l10 86q43 -10 92.5 -10t92.5 22.5t70.5 49t56 80t41 81t34.5 84.5zM551 1147l123 287h104l-156 -287h-71z" />
<glyph unicode="&#xfe;" d="M137 -410v1844h105v-512h4q137 123 338 122q385 0 385 -532q0 -244 -93.5 -388t-295.5 -144q-201 0 -334 118h-4v-508h-105zM242 176q135 -109 305 -108q313 0 313 444t-313 444q-92 0 -174 -34.5t-131 -75.5v-670z" />
<glyph unicode="&#xff;" horiz-adv-x="1146" d="M113 1024h116l359 -928h4l332 928h110l-407 -1110q-66 -182 -153 -263t-218 -81q-61 0 -123 14l10 86q43 -10 92.5 -10t92.5 22.5t70.5 49t56 80t41 81t34.5 84.5zM268 1208v226h94v-226h-94zM801 1208v226h94v-226h-94z" />
<glyph unicode="&#x131;" horiz-adv-x="378" d="M137 0v1024h105v-1024h-105z" />
<glyph unicode="&#x152;" horiz-adv-x="2154" d="M137 707q0 156 24.5 274.5t85 221t176.5 156.5t284 54q342 0 460 -283v263h840v-99h-733v-522h641v-96h-641v-580h743v-96h-850v270q-117 -291 -460 -290q-168 0 -284 56t-176.5 161.5t-85 227.5t-24.5 282zM250 707q0 -104 9 -188.5t39 -171.5t79 -144.5t133 -94 t196.5 -36.5t196.5 36.5t133 95t78 146.5t38 174t9 195q0 131 -17.5 228t-64.5 187.5t-140 138.5t-232 48q-141 0 -235.5 -49t-140.5 -141.5t-63.5 -191.5t-17.5 -232z" />
<glyph unicode="&#x153;" horiz-adv-x="1869" d="M117 512q0 532 446 532q305 0 393 -276q94 276 422 276q119 0 202 -37.5t122 -94t55.5 -132t12 -141.5t-18.5 -133h-739q6 -438 393 -438q195 0 321 41l15 -86q-158 -43 -348 -43q-342 0 -437 276q-88 -276 -393 -276q-446 0 -446 532zM225 512q0 -444 338 -444t338 444 t-338 444t-338 -444zM1012 575h645q16 66 7 134.5t-34.5 125t-92.5 92.5t-165 36q-329 -1 -360 -388z" />
<glyph unicode="&#x178;" horiz-adv-x="1269" d="M96 1393h125l416 -785h4l412 785h121l-484 -901v-492h-110v492zM336 1556v226h94v-226h-94zM868 1556v226h95v-226h-95z" />
<glyph unicode="&#x2c6;" horiz-adv-x="860" d="M178 1147l211 287h80l213 -287h-74l-178 205l-178 -205h-74z" />
<glyph unicode="&#x2da;" horiz-adv-x="614" d="M131 1331q0 74 51 125t125 51t125 -51t51 -125t-51 -125t-125 -51t-125 51t-51 125zM178 1331q0 -55 37 -92t92 -37t92 37t37 92t-37 92t-92 37t-92 -37t-37 -92z" />
<glyph unicode="&#x2dc;" horiz-adv-x="921" d="M139 1223q68 88 115 121.5t100.5 33.5t145.5 -57t123 -57q76 0 133 90l32 -33q-74 -139 -159 -139q-43 0 -137.5 56t-133.5 56q-45 0 -76.5 -16t-105.5 -84z" />
<glyph unicode="&#x2013;" horiz-adv-x="1228" d="M137 498v90h955v-90h-955z" />
<glyph unicode="&#x2014;" horiz-adv-x="1433" d="M137 498v90h1159v-90h-1159z" />
<glyph unicode="&#x2018;" horiz-adv-x="378" d="M137 891v235l58 267h41l-31 -267h35v-235h-103z" />
<glyph unicode="&#x2019;" horiz-adv-x="378" d="M137 1157v236h103v-236l-56 -266h-41l31 266h-37z" />
<glyph unicode="&#x201a;" horiz-adv-x="378" d="M137 0v236h103v-236l-56 -266h-41l31 266h-37z" />
<glyph unicode="&#x201c;" horiz-adv-x="829" d="M137 891v235l58 267h41l-31 -267h35v-235h-103zM588 891v235l57 267h41l-31 -267h35v-235h-102z" />
<glyph unicode="&#x201d;" horiz-adv-x="829" d="M137 1157v236h103v-236l-56 -266h-41l31 266h-37zM588 1157v236h102v-236l-55 -266h-41l31 266h-37z" />
<glyph unicode="&#x201e;" horiz-adv-x="829" d="M137 0v236h103v-236l-56 -266h-41l31 266h-37zM588 0v236h102v-236l-55 -266h-41l31 266h-37z" />
<glyph unicode="&#x2022;" horiz-adv-x="471" d="M137 393v238h105v-238h-105z" />
<glyph unicode="&#x2026;" horiz-adv-x="1280" d="M178 0v236h105v-236h-105zM588 0v236h104v-236h-104zM997 0v236h105v-236h-105z" />
<glyph unicode="&#x2039;" horiz-adv-x="778" d="M137 477v70l504 313v-108l-395 -240l395 -240v-108z" />
<glyph unicode="&#x203a;" horiz-adv-x="778" d="M137 164v108l395 240l-395 240v108l504 -313v-70z" />
<glyph unicode="&#x20ac;" horiz-adv-x="1433" d="M137 518v68h148q-4 78 -4 121q0 33 4 98h-148v67h156q33 246 170 393.5t387 147.5q92 0 171 -16.5t142.5 -51t91 -53t72.5 -53.5l-41 -86q-195 162 -420 162q-207 0 -315.5 -122t-138.5 -321h444l-14 -67h-445q-2 -33 -2 -98q0 -80 4 -121h457l-14 -68h-426 q33 -197 141.5 -318.5t308.5 -121.5q227 0 420 160l41 -84q-57 -45 -100 -75t-149.5 -64.5t-227.5 -34.5q-246 0 -382 146t-173 392h-158z" />
<glyph unicode="&#x2122;" horiz-adv-x="1638" d="M92 1331v62h520v-62h-227v-643h-68v643h-225zM815 688v705h88l258 -596h2l264 596h89v-705h-68v576h-4l-258 -576h-56l-247 576h-4v-576h-64z" />
<glyph unicode="&#xe000;" horiz-adv-x="1025" d="M0 1025h1025v-1025h-1025v1025z" />
<glyph unicode="&#xfb01;" horiz-adv-x="1064" d="M51 946v70l168 8v76q0 178 88 256t262 78q164 0 328 -76l-16 -76q-156 66 -301 66q-141 0 -198.5 -61.5t-57.5 -192.5v-70h604v-1024h-105v946h-499v-946h-105v946h-168z" />
<glyph unicode="&#xfb02;" horiz-adv-x="1064" d="M51 946v70l168 8v76q0 178 89 256t259 78q143 0 283 -60h76v-1374h-103v1290q-135 57 -245 58q-137 0 -196.5 -62.5t-59.5 -191.5v-70h307v-78h-307v-946h-103v946h-168z" />
<glyph unicode="&#xfb03;" horiz-adv-x="1665" d="M51 946v70l168 8v104q0 168 62.5 237t210.5 69q57 0 149 -15l-12 -84q-76 10 -140 11q-96 0 -130.5 -53.5t-34.5 -170.5v-98h495v76q0 178 88 256t260 78q168 0 328 -76l-14 -76q-156 66 -303 66q-141 0 -198.5 -61.5t-57.5 -192.5v-70h604v-1024h-103v946h-501v-946 h-103v946h-495v-946h-105v946h-168z" />
<glyph unicode="&#xfb04;" horiz-adv-x="1665" d="M51 946v70l168 8v104q0 168 62.5 237t210.5 69q57 0 149 -15l-12 -84q-76 10 -140 11q-96 0 -130.5 -53.5t-34.5 -170.5v-98h495v76q0 178 89 256t259 78q145 0 281 -60h78v-1374h-103v1290q-135 57 -245 58q-137 0 -196.5 -62.5t-59.5 -191.5v-70h307v-78h-307v-946 h-103v946h-495v-946h-105v946h-168z" />
</font>
</defs>
</svg>
