<?xml version="1.0" standalone="no"?>
<!DOCTYPE svg PUBLIC "-//W3C//DTD SVG 1.1//EN" "http://www.w3.org/Graphics/SVG/1.1/DTD/svg11.dtd" >
<svg xmlns="http://www.w3.org/2000/svg">
<metadata>
This is a custom SVG webfont generated by Font Squirrel.
Copyright   : Copyright c 2007 by Dino dos Santos DSType All rights reserved
Designer    : Dino dos Santos
Foundry URL : httpwwwtypetrustcom
</metadata>
<defs>
<font id="PreloBold" horiz-adv-x="1085" >
<font-face units-per-em="2048" ascent="1536" descent="-512" />
<missing-glyph horiz-adv-x="368" />
<glyph unicode=" "  horiz-adv-x="368" />
<glyph unicode="&#x09;" horiz-adv-x="368" />
<glyph unicode="&#xa0;" horiz-adv-x="368" />
<glyph unicode="!" horiz-adv-x="440" d="M88 0v297h264v-297h-264zM88 1434h264l-14 -983h-236z" />
<glyph unicode="&#x22;" horiz-adv-x="849" d="M88 1393h264l-30 -359h-203zM498 1393h264l-31 -359h-203z" />
<glyph unicode="#" horiz-adv-x="1255" d="M88 209l18 174h205l27 256h-205l19 174h204l23 211h190l-24 -211h225l25 211h188l-22 -211h204l-18 -174h-205l-27 -256h205l-18 -174h-205l-23 -209h-188l23 209h-226l-22 -209h-191l23 209h-205zM500 383h225l29 256h-226z" />
<glyph unicode="$" horiz-adv-x="1249" d="M88 147l125 205q86 -53 205 -88t217 -35q115 0 173 45t58 119q0 31 -17.5 57.5t-39 44t-63 35t-66.5 24.5t-75 19.5t-62 16.5q-414 113 -414 434q0 186 126 281.5t331 105.5v186h112v-186q248 -14 428 -131l-110 -219q-199 102 -381 102q-211 0 -211 -139q0 -43 28.5 -78 t87 -58.5t96.5 -35.5t105 -29q420 -96 420 -413q0 -195 -128 -302.5t-335 -123.5v-189h-112v187q-143 4 -278.5 48.5t-219.5 116.5z" />
<glyph unicode="%" horiz-adv-x="1556" d="M78 1097.5q0 141.5 75.5 220.5t217 79t216.5 -79t75 -220.5t-75 -221t-216 -79.5q-143 0 -218 79.5t-75 221zM242 1098q0 -168 129 -168q127 0 127 168t-127 168q-129 0 -129 -168zM313 0l758 1393h172l-758 -1393h-172zM895 295q0 141 74.5 221t216.5 80q143 0 218 -80 t75 -221t-76 -220t-217.5 -79t-216 79t-74.5 220zM1059 295q0 -168 127 -168q129 0 129 168t-129 168q-127 0 -127 -168z" />
<glyph unicode="&#x26;" horiz-adv-x="1443" d="M84 365q0 113 67.5 206t247.5 191q-78 96 -112.5 162.5t-34.5 140.5q0 166 122 257t292 91q178 0 280.5 -90t102.5 -250q0 -190 -279 -342l277 -266q80 119 100 252h250q-29 -236 -178 -430l157 -164l-172 -189l-174 181q-188 -135 -446 -135q-250 0 -375 104.5 t-125 280.5zM367 408q0 -84 62.5 -142.5t174.5 -58.5q154 0 262 80l-329 342q-170 -98 -170 -221zM510 1077q0 -88 108 -203q180 102 181 209q0 76 -43 112t-99 36q-78 0 -112.5 -46.5t-34.5 -107.5z" />
<glyph unicode="'" horiz-adv-x="440" d="M88 1393h264l-30 -359h-203z" />
<glyph unicode="(" horiz-adv-x="675" d="M94 696q0 262 92.5 516t268.5 467h174q-268 -465 -269 -983q0 -498 269 -983h-174q-176 211 -268.5 469t-92.5 514z" />
<glyph unicode=")" horiz-adv-x="675" d="M47 -287q268 485 268 983q0 518 -268 983h174q176 -213 268.5 -467t92.5 -516q0 -256 -92.5 -514t-268.5 -469h-174z" />
<glyph unicode="*" horiz-adv-x="839" d="M68 1085l45 150l252 -92l-21 250h152l-21 -250l250 92l45 -150l-258 -30l170 -197l-119 -92l-145 238l-144 -238l-118 92l172 197z" />
<glyph unicode="+" horiz-adv-x="1024" d="M88 432v221h313v314h222v-314h313v-221h-313v-313h-222v313h-313z" />
<glyph unicode="," horiz-adv-x="440" d="M88 0v297h264v-297l-127 -266h-82l52 266h-107z" />
<glyph unicode="-" horiz-adv-x="1024" d="M88 432v221h848v-221h-848z" />
<glyph unicode="." horiz-adv-x="440" d="M88 0v297h264v-297h-264z" />
<glyph unicode="/" horiz-adv-x="1105" d="M57 0l758 1393h234l-758 -1393h-234z" />
<glyph unicode="0" horiz-adv-x="1208" d="M88 707q0 158 22.5 277.5t78 221t160 154.5t255.5 53q121 0 213 -37t148.5 -98t92.5 -153.5t49 -193t13 -224.5q0 -160 -23.5 -283t-77.5 -227.5t-159.5 -160.5t-255.5 -56q-123 0 -214 37.5t-148.5 102t-92 160t-48 198t-13.5 229.5zM369 707q0 -508 235.5 -508 t235.5 508q0 229 -52.5 358t-183.5 129t-183 -128t-52 -359z" />
<glyph unicode="1" horiz-adv-x="788" d="M45 1178q297 115 430 225h195v-1403h-267v1090l-282 -127z" />
<glyph unicode="2" horiz-adv-x="1126" d="M88 0v254q373 238 511 395.5t138 284.5q0 236 -245 235q-150 0 -326 -69l-78 211q252 102 465 102q227 0 346 -117.5t119 -304.5q0 -205 -137.5 -380t-417.5 -371v-4h575v-236h-950z" />
<glyph unicode="3" horiz-adv-x="1167" d="M88 80l80 203q184 -84 387 -84q135 0 193.5 60t58.5 134q0 193 -275 193h-184v221h172q139 0 196.5 60.5t57.5 148.5q0 72 -53 125t-166 53q-170 0 -358 -84l-80 203q219 100 485 100q190 0 313 -96t123 -270q0 -229 -241 -320v-4q139 -35 210.5 -128t71.5 -216 q0 -193 -133 -296t-375 -103q-274 0 -483 100z" />
<glyph unicode="4" horiz-adv-x="1208" d="M66 322v221q373 406 565 850h332v-850h178v-221h-178v-322h-267v322h-630zM338 543h358v504h-4q-131 -238 -354 -504z" />
<glyph unicode="5" horiz-adv-x="1167" d="M88 82l78 203q190 -86 373 -86q125 0 192.5 68.5t67.5 176.5q0 98 -53.5 169t-172.5 71q-131 0 -221 -98l-188 16l26 791h807v-236h-577l-21 -340l4 -2q117 96 265 96q188 0 299.5 -117.5t111.5 -332.5q0 -236 -138 -358.5t-388 -122.5q-242 0 -465 102z" />
<glyph unicode="6" horiz-adv-x="1167" d="M86 614q0 799 608 799q164 0 342 -57l-32 -205q-162 41 -287 41q-154 0 -259.5 -113.5t-105.5 -290.5l4 -2q121 145 295 146q201 0 314.5 -126t113.5 -355q0 -217 -133 -344t-346 -127q-135 0 -236.5 52t-161 142t-88 200.5t-28.5 239.5zM373 454.5q8 -69.5 26.5 -127 t66.5 -93t120 -35.5q90 0 151.5 66.5t61.5 185.5q0 102 -49.5 175.5t-167.5 73.5q-111 0 -207 -110q-10 -66 -2 -135.5z" />
<glyph unicode="7" horiz-adv-x="1024" d="M68 1157v236h888v-189q-119 -209 -193.5 -357.5t-156.5 -379.5t-121 -467h-295q45 268 178.5 585.5t299.5 567.5v4h-600z" />
<glyph unicode="8" horiz-adv-x="1208" d="M88 348q0 238 281 346v4q-240 121 -240 342q0 178 140.5 275.5t342.5 97.5q190 0 328.5 -95t138.5 -263q0 -111 -60.5 -184.5t-180.5 -135.5v-4q141 -68 211.5 -151.5t70.5 -202.5q0 -197 -147.5 -297t-376.5 -100q-221 0 -364.5 92t-143.5 276zM360 377 q0 -84 62.5 -142.5t189.5 -58.5q123 0 179.5 50t56.5 126q0 27 -8.5 50.5t-17.5 41t-32.5 37t-37 29.5t-46 26.5t-45 21.5t-51.5 20.5t-45 17.5q-205 -78 -205 -219zM393 1047q0 -82 69.5 -136.5t174.5 -81.5q78 29 128 80.5t50 122.5q0 86 -63.5 135.5t-155.5 49.5 q-82 0 -142.5 -46t-60.5 -124z" />
<glyph unicode="9" horiz-adv-x="1167" d="M86 942q0 217 133 344t348 127q135 0 236.5 -52t160 -143.5t87 -201t28.5 -238.5q0 -799 -606 -798q-172 0 -344 55l33 205q172 -41 287 -41q154 0 259 113.5t105 289.5l-4 2q-119 -143 -295 -143q-201 0 -314.5 126t-113.5 355zM369 942q0 -104 49 -178t168 -74 q109 0 205 111q10 102 -1.5 183t-63.5 144.5t-146 63.5q-90 0 -150.5 -65.5t-60.5 -184.5z" />
<glyph unicode=":" horiz-adv-x="440" d="M88 0v297h264v-297h-264zM88 645v297h264v-297h-264z" />
<glyph unicode=";" horiz-adv-x="440" d="M88 0v297h264v-297l-127 -266h-82l52 266h-107zM88 645v297h264v-297h-264z" />
<glyph unicode="&#x3c;" horiz-adv-x="983" d="M88 432v160l807 405v-233l-526 -252l526 -252v-233z" />
<glyph unicode="=" horiz-adv-x="1024" d="M88 227v222h848v-222h-848zM88 637v221h848v-221h-848z" />
<glyph unicode="&#x3e;" horiz-adv-x="983" d="M88 27v233l526 252l-526 252v233l807 -405v-160z" />
<glyph unicode="?" horiz-adv-x="983" d="M68 1333q201 80 428 80q119 0 204.5 -33.5t131 -90t64.5 -117t19 -128.5q0 -90 -35.5 -163.5t-88 -120.5t-104.5 -87t-88 -86t-36 -95v-62h-235v62q0 90 32.5 158.5t78.5 109.5t92.5 75.5t79 78.5t32.5 98q0 152 -203 151q-119 0 -297 -57zM313 0v297h265v-297h-265z" />
<glyph unicode="@" horiz-adv-x="1699" d="M61 518q0 356 234.5 586.5t593.5 230.5q315 0 532 -187t217 -480q0 -229 -130 -381t-365 -152h-168v80h-2q-88 -94 -234 -94q-115 0 -181 67.5t-66 173.5q0 135 97 192.5t238 57.5h148v54q0 61 -34 90.5t-110 29.5q-100 0 -264 -47l-37 140q193 66 355 65 q145 0 222 -60.5t77 -205.5v-389q78 0 137 35.5t91 93t46.5 119t14.5 122.5q0 236 -167 380.5t-417 144.5q-291 0 -475.5 -185.5t-184.5 -480.5q0 -266 170 -442t432 -176l-14 -146q-330 0 -543 217t-213 547zM700 381q0 -49 33 -75.5t84 -26.5q100 0 158 49v164h-129 q-146 0 -146 -111z" />
<glyph unicode="A" horiz-adv-x="1331" d="M47 0l449 1403h344l444 -1403h-311l-94 315h-441l-94 -315h-297zM496 551h325l-157 500h-2z" />
<glyph unicode="B" horiz-adv-x="1249" d="M109 0v1393h587q217 0 331 -93.5t114 -263.5q0 -111 -56.5 -194.5t-154.5 -118.5v-4q117 -35 184.5 -121t67.5 -217q0 -180 -115 -280.5t-330 -100.5h-628zM389 250h303q94 0 144.5 39t50.5 131q0 170 -205 170h-293v-340zM389 840h277q180 0 180 151.5t-180 151.5h-277 v-303z" />
<glyph unicode="C" horiz-adv-x="1269" d="M88 707q0 158 28.5 278.5t96.5 221t191.5 153.5t302.5 53q242 0 501 -76l-63 -235q-260 61 -416 61q-184 0 -265 -118.5t-81 -337.5q0 -233 80 -355.5t266 -122.5q156 0 416 62l63 -236q-260 -76 -501 -75q-178 0 -302 55t-192 159.5t-96.5 228.5t-28.5 284z" />
<glyph unicode="D" horiz-adv-x="1331" d="M109 0v1393h518q174 0 297 -50.5t191.5 -146.5t98 -215t29.5 -274q0 -158 -29.5 -280t-97 -221.5t-191.5 -152.5t-298 -53h-518zM389 250h238q186 0 253.5 114.5t67.5 342.5q0 225 -67.5 330.5t-253.5 105.5h-238v-893z" />
<glyph unicode="E" horiz-adv-x="1146" d="M109 0v1393h940v-250h-660v-299h567v-250h-567v-344h670v-250h-950z" />
<glyph unicode="F" horiz-adv-x="1095" d="M109 0v1393h919v-250h-639v-340h547v-250h-547v-553h-280z" />
<glyph unicode="G" horiz-adv-x="1310" d="M88 707q0 158 28.5 278.5t96.5 221t191.5 153.5t302.5 53q242 0 501 -76l-63 -235q-260 61 -416 61q-184 0 -265 -118.5t-81 -337.5q0 -233 80 -355.5t266 -122.5q98 0 193 39v230h-215v250h495v-672q-279 -96 -495 -96q-178 0 -302 55t-192 159.5t-96.5 228.5t-28.5 284 z" />
<glyph unicode="H" horiz-adv-x="1310" d="M109 0v1393h280v-549h533v549h280v-1393h-280v594h-533v-594h-280z" />
<glyph unicode="I" horiz-adv-x="495" d="M109 0v1393h280v-1393h-280z" />
<glyph unicode="J" horiz-adv-x="720" d="M29 -2l24 235q51 -10 117 -10q164 0 164 162v1008h280v-1022q0 -391 -368 -391q-131 0 -217 18z" />
<glyph unicode="K" horiz-adv-x="1302" d="M109 0v1393h280v-633l524 633h336l-485 -586l489 -807h-350l-344 582l-170 -207v-375h-280z" />
<glyph unicode="L" horiz-adv-x="1105" d="M109 0v1393h280v-1143h649v-250h-929z" />
<glyph unicode="M" horiz-adv-x="1638" d="M109 0v1393h372l344 -910h4l328 910h373v-1393h-281v887h-4l-332 -887h-204l-324 887h-4v-887h-272z" />
<glyph unicode="N" horiz-adv-x="1331" d="M109 0v1393h280l557 -875h4v875h273v-1393h-295l-543 844h-4v-844h-272z" />
<glyph unicode="O" horiz-adv-x="1413" d="M88 707q0 158 28.5 278.5t96.5 221t191.5 153.5t302 53t302.5 -53t191.5 -153.5t96 -221.5t28.5 -278q0 -160 -28.5 -284t-96 -227.5t-191.5 -159.5t-302.5 -56t-302 56t-191.5 159.5t-96.5 227.5t-28.5 284zM383 707q0 -90 7 -158t27.5 -133.5t56.5 -107.5t94.5 -67.5 t138 -25.5t138 25.5t94.5 67.5t56.5 107.5t27.5 133t7 158.5q0 233 -66.5 352t-257 119t-257 -119t-66.5 -352z" />
<glyph unicode="P" horiz-adv-x="1228" d="M106 0v1393h594q217 0 339 -123t122 -328q0 -209 -121.5 -329.5t-339.5 -120.5h-311v-492h-283zM389 741h281q203 0 202 201q0 92 -56 145.5t-146 53.5h-281v-400z" />
<glyph unicode="Q" horiz-adv-x="1413" d="M86 707q0 125 17.5 225t60.5 192.5t112.5 153.5t178 98t252 37t252 -37t177 -98t111.5 -153.5t60.5 -193t17.5 -224.5q0 -281 -110.5 -446t-321.5 -183v-6q76 -45 240 -45q109 4 157 10v-252q-66 -8 -139 -8q-170 0 -306 50t-196 153q-563 33 -563 727zM383 707 q0 -90 7 -158t27.5 -133.5t56.5 -107.5t94.5 -67.5t138 -25.5t138 25.5t93.5 67.5t55.5 107.5t27.5 133t7 158.5q0 113 -12 191.5t-46 146t-99.5 100.5t-163.5 33q-190 0 -257 -119t-67 -352z" />
<glyph unicode="R" horiz-adv-x="1259" d="M109 0v1393h593q215 0 337 -121t122 -328q0 -147 -69.5 -253.5t-206.5 -147.5l325 -543h-327l-291 498h-203v-498h-280zM389 748h277q207 0 206 196q0 102 -54 150.5t-146 48.5h-283v-395z" />
<glyph unicode="S" horiz-adv-x="1228" d="M88 55l47 236q262 -61 479 -62q106 0 169 44t63 114q0 27 -8.5 49.5t-29 40t-37.5 29.5t-54 25.5t-58.5 20.5t-68.5 19.5t-68 18.5q-414 115 -413 434q0 199 140 294t365 95q231 0 492 -76l-64 -235q-260 61 -428 61q-104 0 -157.5 -40t-53.5 -107q0 -33 18.5 -60.5 t43 -45t74 -35t83 -26.5t99.5 -26q420 -96 420 -413q0 -213 -145.5 -321.5t-381.5 -108.5q-268 -1 -526 75z" />
<glyph unicode="T" horiz-adv-x="1146" d="M68 1143v250h1011v-250h-364v-1143h-283v1143h-364z" />
<glyph unicode="U" horiz-adv-x="1310" d="M109 492v901h280v-901q0 -276 268 -277q150 0 207.5 73.5t57.5 203.5v901h280v-901q0 -262 -144.5 -387t-402.5 -125q-260 0 -403 125t-143 387z" />
<glyph unicode="V" horiz-adv-x="1331" d="M47 1393h311l316 -1051h2l311 1051h297l-444 -1403h-344z" />
<glyph unicode="W" horiz-adv-x="1925" d="M47 1393h311l222 -1047h2l223 1047h330l229 -1047h2l215 1047h297l-340 -1403h-360l-213 950h-4l-213 -950h-361z" />
<glyph unicode="X" horiz-adv-x="1331" d="M47 0l422 721l-397 672h327l263 -443l251 443h330l-399 -672l438 -721h-338l-303 494l-279 -494h-315z" />
<glyph unicode="Y" horiz-adv-x="1269" d="M47 1393h320l274 -617h4l273 617h305l-447 -901v-492h-282v492z" />
<glyph unicode="Z" horiz-adv-x="1146" d="M61 0v205l621 934v4h-580v250h963v-205l-612 -934v-4h632v-250h-1024z" />
<glyph unicode="[" horiz-adv-x="614" d="M88 -287v1966h479v-157h-198v-1651h198v-158h-479z" />
<glyph unicode="\" horiz-adv-x="1105" d="M57 1393h234l758 -1393h-234z" />
<glyph unicode="]" horiz-adv-x="614" d="M47 -129h199v1651h-199v157h479v-1966h-479v158z" />
<glyph unicode="^" horiz-adv-x="778" d="M88 1044l219 390h162l221 -390h-141l-160 244l-160 -244h-141z" />
<glyph unicode="_" horiz-adv-x="1024" d="M88 -123h848v-158h-848v158z" />
<glyph unicode="`" horiz-adv-x="593" d="M135 1434h234l102 -287h-154z" />
<glyph unicode="a" horiz-adv-x="1034" d="M57 295q0 90 38 154.5t102.5 99.5t136.5 50t153 15h195v72q0 78 -48 108.5t-153 30.5q-125 0 -321 -41l-39 213q240 47 422 47q209 0 306 -72.5t97 -269.5v-702h-264v102h-4q-121 -123 -303 -122q-150 0 -234 88t-84 227zM322 317q0 -66 45 -99.5t114 -33.5q115 0 201 64 v209h-180q-180 -1 -180 -140z" />
<glyph unicode="b" d="M88 -6v1440h264v-512h4q51 55 129 88.5t160 33.5q373 0 373 -532q0 -240 -93.5 -386t-295.5 -146q-172 0 -287 114h-4l-47 -100h-203zM352 262q84 -63 187 -63q199 0 198.5 313t-198.5 313q-106 0 -187 -65v-498z" />
<glyph unicode="c" horiz-adv-x="983" d="M68 512q0 258 120.5 395t405.5 137q162 0 358 -49l-47 -211q-170 41 -311 41q-117 0 -181.5 -79.5t-64.5 -233.5q0 -313 246 -313q141 0 311 41l47 -213q-203 -47 -358 -47q-285 0 -405.5 137t-120.5 395z" />
<glyph unicode="d" d="M66 512q0 238 93 385t296 147q166 0 272 -116h4v506h266v-1434h-266v102h-4q-51 -55 -128 -88.5t-159 -33.5q-374 0 -374 532zM348 512q0 -313 199 -313q100 0 184 63v498q-84 63 -184 63q-199 0 -199 -311z" />
<glyph unicode="e" d="M68 512q0 532 526 532q125 0 214 -33.5t135 -87t68 -132.5q21 -76 20 -151q0 -78 -15 -183h-662q14 -258 283 -258q182 0 317 41l33 -213q-172 -47 -387 -47q-283 0 -407.5 138t-124.5 394zM354 621h404q4 28 4 52q0 167 -182 167q-206 0 -226 -219z" />
<glyph unicode="f" horiz-adv-x="706" d="M31 836v172l139 16v104q0 158 68.5 232t253.5 74q72 0 178 -19l-25 -207q-61 10 -114.5 10.5t-75 -23.5t-21.5 -83v-88h215v-188h-215v-836h-264v836h-139z" />
<glyph unicode="g" horiz-adv-x="1136" d="M41 -164q0 131 160 209v4q-81 49 -81 133q0 19 4 39q22 113 152 185v4q-78 39 -121.5 114.5t-43.5 171.5q0 172 115.5 260t316.5 88q80 0 147 -20h379v-158h-164v-4q59 -55 60 -166q0 -172 -115 -257t-307 -85q-76 0 -131 19q-38 -46 -39 -89q0 -5 1 -11q5 -48 60 -50 l348 -24q313 -18 314 -256q0 -195 -149.5 -284t-465.5 -89q-225 0 -332.5 64.5t-107.5 201.5zM260 -119q0 -137 264 -137q121 0 206 38t85 112q0 86 -127 94l-358 20q-27 -25 -37 -36t-21.5 -35.5t-11.5 -55.5zM360 696q0 -84 48.5 -127t134.5 -43q84 0 132 43t48 127 t-49 129t-131 45q-86 0 -134.5 -44t-48.5 -130z" />
<glyph unicode="h" d="M86 0v1434h266v-543h4q143 154 334 153q152 0 229.5 -91t77.5 -253v-700h-266v639q0 84 -42 134t-122 50q-98 0 -215 -80v-743h-266z" />
<glyph unicode="i" horiz-adv-x="440" d="M88 0v1024h264v-1024h-264zM88 1153v281h264v-281h-264z" />
<glyph unicode="j" horiz-adv-x="522" d="M-68 -412l25 205q47 -10 94 -10q68 0 93.5 23.5t25.5 87.5v1130h264v-1149q0 -160 -68.5 -232.5t-252.5 -72.5q-93 0 -181 18zM170 1153v281h264v-281h-264z" />
<glyph unicode="k" horiz-adv-x="1126" d="M88 0v1434h264v-768l385 358h322l-373 -369l393 -655h-313l-266 473l-148 -135v-338h-264z" />
<glyph unicode="l" horiz-adv-x="440" d="M88 0v1434h264v-1434h-264z" />
<glyph unicode="m" horiz-adv-x="1699" d="M86 0v1024h266v-133h4q139 154 320 153q205 0 274 -170q152 170 355 170q152 0 229.5 -91t77.5 -253v-700h-266v639q0 184 -164 184q-80 0 -203 -80q4 -82 4 -129v-614h-266v649q0 82 -43 128t-121 46q-84 0 -201 -80v-743h-266z" />
<glyph unicode="n" d="M86 0v1024h266v-133h4q143 154 334 153q152 0 229.5 -91t77.5 -253v-700h-266v639q0 184 -164 184q-98 0 -215 -80v-743h-266z" />
<glyph unicode="o" horiz-adv-x="1126" d="M68 512q0 532 495.5 532t495.5 -532t-495.5 -532t-495.5 532zM348 512q0 -154 48 -233.5t167 -79.5t167 79.5t48 233.5t-48 233.5t-167 79.5t-167 -79.5t-48 -233.5z" />
<glyph unicode="p" d="M86 -410v1434h266v-102h4q51 55 129 88.5t160 33.5q373 0 373 -532q0 -240 -93.5 -386t-295.5 -146q-168 0 -273 114h-4v-504h-266zM352 262q84 -63 185 -63q201 0 200 313q0 311 -200 311q-100 0 -185 -63v-498z" />
<glyph unicode="q" d="M68 512q0 240 93 386t296 146q170 0 286 -116h5l47 102h202v-1440h-264v512h-4q-49 -55 -128 -88.5t-161 -33.5q-372 0 -372 532zM348 512q0 -313 199 -313q102 0 186 63v498q-80 66 -186 65q-199 0 -199 -313z" />
<glyph unicode="r" horiz-adv-x="757" d="M86 0v1024h266v-164h4q55 78 147.5 131t207.5 53v-251q-207 0 -359 -80v-713h-266z" />
<glyph unicode="s" horiz-adv-x="983" d="M57 29l47 211q193 -47 388 -47q88 0 129 31.5t41 66.5q0 39 -41 60.5t-138 39.5q-197 35 -301 111t-104 235q0 307 403 307q233 0 430 -49l-47 -211q-195 47 -368 47q-82 0 -118 -26.5t-36 -59.5q0 -37 35 -60t131 -44q78 -16 121 -27.5t108.5 -39t100 -58.5t61.5 -85 t27 -122q0 -164 -106.5 -246.5t-297.5 -82.5q-268 0 -465 49z" />
<glyph unicode="t" horiz-adv-x="768" d="M31 836v172l139 16l31 287h233v-287h256v-188h-256v-498q0 -147 150 -148q31 0 92 11l24 -203q-129 -18 -202 -18q-172 0 -250 74.5t-78 238.5v543h-139z" />
<glyph unicode="u" d="M86 322v702h266v-641q0 -82 43 -133t121 -51q90 0 215 80v745h266v-1024h-266v133h-4q-141 -154 -334 -153q-150 0 -228.5 91t-78.5 251z" />
<glyph unicode="v" horiz-adv-x="1146" d="M51 1024h297l230 -741h4l231 741h283l-363 -1034h-323z" />
<glyph unicode="w" horiz-adv-x="1617" d="M51 1024h297l178 -741h4l156 741h258l170 -741h4l168 741h281l-297 -1034h-297l-164 626h-4l-158 -626h-297z" />
<glyph unicode="x" horiz-adv-x="1116" d="M45 0l354 532l-323 492h307l190 -301l187 301h276l-325 -483l358 -541h-313l-219 336l-207 -336h-285z" />
<glyph unicode="y" horiz-adv-x="1146" d="M51 1024h297l236 -748h4l225 748h283l-363 -1061q-72 -217 -177 -305t-280 -88q-104 0 -184 18l25 219q55 -10 98 -10q72 0 129 51.5t86 137.5z" />
<glyph unicode="z" horiz-adv-x="962" d="M39 0v188l522 627v4h-491v205h829v-188l-516 -627v-4h541v-205h-885z" />
<glyph unicode="{" horiz-adv-x="696" d="M88 631v131q51 8 82 24.5t44 52t15 64.5t2 90q0 59 -10 191.5t-10 195.5q0 82 24.5 139.5t60.5 88t98.5 47t116.5 20.5t138 4v-112q-43 0 -63.5 -4t-47 -21.5t-36.5 -61.5t-10 -118q0 -61 13 -209.5t13 -212.5q0 -113 -52 -164t-153 -78v-4q100 -27 152.5 -78t52.5 -163 q0 -63 -13 -212t-13 -210q0 -74 10 -118t36.5 -61.5t47 -21.5t63.5 -4v-113q-84 0 -138 4t-116.5 20.5t-98.5 47.5t-60.5 88t-24.5 139q0 63 10 195.5t10 191.5q0 61 -2 90t-15 65t-44 52.5t-82 24.5z" />
<glyph unicode="|" horiz-adv-x="348" d="M88 -205v1802h172v-1802h-172z" />
<glyph unicode="}" horiz-adv-x="696" d="M47 -174q43 0 63.5 4t47 21.5t37 61.5t10.5 118q0 61 -13.5 209.5t-13.5 212.5q0 113 52.5 164t152.5 77v4q-100 27 -152.5 78t-52.5 164q0 63 13.5 211.5t13.5 210.5q0 74 -10.5 118t-37 61.5t-47 21.5t-63.5 4v112q84 0 138.5 -4t117 -20.5t98 -47t60 -88t24.5 -139.5 q0 -63 -10 -195t-10 -192q0 -61 2 -90t15.5 -64.5t44 -52t81.5 -24.5v-131q-51 -8 -81.5 -24.5t-44 -52.5t-15.5 -64.5t-2 -90.5q0 -59 10 -191t10 -196q0 -82 -24.5 -139t-60 -88t-98 -47.5t-117 -20.5t-138.5 -4v113z" />
<glyph unicode="~" horiz-adv-x="942" d="M74 600q98 201 223 201q53 0 197.5 -45t175.5 -45q27 0 40 2t39.5 18.5t53.5 48.5l67 -80q-80 -164 -194 -163q-45 0 -188.5 42t-184.5 42q-63 0 -147 -86z" />
<glyph unicode="&#xa1;" horiz-adv-x="440" d="M88 -410l14 983h236l14 -983h-264zM88 727v297h264v-297h-264z" />
<glyph unicode="&#xa2;" horiz-adv-x="1044" d="M86 512q0 233 133 377.5t361 152.5v187h112v-191q123 -8 281 -73l-33 -205q-141 53 -248 61v-620q96 4 248 61l33 -205q-152 -63 -281 -71v-191h-112v187q-229 8 -361.5 151t-132.5 379zM369 512q0 -131 56 -211t155 -96v610q-98 -14 -154.5 -94t-56.5 -209z" />
<glyph unicode="&#xa3;" horiz-adv-x="1269" d="M88 0v236h102v368h-102v205h102v215q0 201 134.5 295t357.5 94q303 0 506 -133l-111 -219q-199 102 -381 102q-117 0 -179 -46t-62 -128v-180h440v-205h-440v-368h686v-236h-1053z" />
<glyph unicode="&#xa4;" horiz-adv-x="1050" d="M143 928l17 16l162 -184q90 74 204 74q113 0 203 -74l160 184l18 -16l-159 -183q102 -96 102 -235t-100 -234l155 -176l-18 -18l-158 178q-88 -72 -203 -72q-117 0 -204 72l-156 -178l-19 18l156 176q-98 94 -98 233.5t98 233.5zM229 510q0 -121 88.5 -209t209 -88 t209.5 88t89 209t-89 210t-209.5 89t-209 -89t-88.5 -210z" />
<glyph unicode="&#xa5;" horiz-adv-x="1351" d="M88 1393h320l274 -617h4l272 617h306l-406 -815h283v-158h-324v-420h-282v420h-324v158h283z" />
<glyph unicode="&#xa6;" horiz-adv-x="348" d="M88 -205v819h172v-819h-172zM88 778v819h172v-819h-172z" />
<glyph unicode="&#xa7;" horiz-adv-x="1228" d="M92 696q0 215 166 326q-152 115 -152 309q0 197 141.5 293t366.5 96q283 0 492 -133l-111 -221q-199 102 -381 102q-96 0 -153.5 -35.5t-57.5 -101.5q0 -43 29 -77.5t87.5 -58.5t96 -36t105.5 -29q420 -100 420 -413q0 -219 -166 -328q152 -121 151 -307 q0 -197 -141 -293t-367 -96q-283 0 -491 133l111 219q201 -100 380 -100q94 0 152.5 35.5t58.5 101.5q0 43 -28.5 77t-87 58.5t-95 35.5t-106.5 28q-199 47 -309.5 144t-110.5 271zM389 711q0 -39 19.5 -68t63.5 -50.5t67.5 -29.5t81.5 -24l112 -33q111 66 111 194 q0 41 -22.5 72t-69.5 52.5t-77 30.5t-87 24l-90 22q-109 -61 -109 -190z" />
<glyph unicode="&#xa8;" horiz-adv-x="983" d="M129 1167v267h233v-267h-233zM621 1167v267h233v-267h-233z" />
<glyph unicode="&#xa9;" horiz-adv-x="1566" d="M61 696q0 299 211 508t510 209q301 0 512 -209t211 -508t-211 -507.5t-512 -208.5q-299 0 -510 208.5t-211 507.5zM182 696q0 -250 176.5 -427t424 -177t424.5 177t177 427q0 248 -176 422t-426 174t-425 -174t-175 -422zM436 705q0 170 93.5 261t263.5 91q147 0 266 -82 l-58 -121q-96 63 -198 64q-197 0 -197 -213q0 -233 197 -234q102 0 198 61l58 -118q-119 -82 -266 -82q-168 0 -262.5 97.5t-94.5 275.5z" />
<glyph unicode="&#xaa;" horiz-adv-x="600" d="M78 1028q0 86 62.5 123t152.5 37h96v37q0 39 -22.5 54t-75.5 15q-70 0 -162 -20l-20 106q117 23 213 23q104 0 152 -36t48 -134v-352h-133v51h-2q-61 -61 -151 -62q-74 0 -116 44t-42 114zM209 1040q0 -33 23.5 -50t58.5 -17q55 0 98 33v104h-88q-92 0 -92 -70z" />
<glyph unicode="&#xab;" horiz-adv-x="1495" d="M88 432v160l602 391v-281l-321 -190l321 -190v-281zM805 432v160l602 391v-281l-322 -190l322 -190v-281z" />
<glyph unicode="&#xac;" horiz-adv-x="1208" d="M129 432v221h950v-432h-219v211h-731z" />
<glyph unicode="&#xad;" horiz-adv-x="1105" d="M129 432v221h848v-221h-848z" />
<glyph unicode="&#xae;" horiz-adv-x="1566" d="M61 696q0 299 211 508t510 209q301 0 512 -209t211 -508t-211 -507.5t-512 -208.5q-299 0 -510 208.5t-211 507.5zM180 696q0 -250 177.5 -427t425 -177t424.5 177t177 427q0 248 -176 422t-426 174t-426 -174t-176 -422zM510 344v705h293q129 0 205.5 -63.5t76.5 -180.5 q0 -84 -38.5 -141.5t-108.5 -77.5l174 -242h-194l-148 213h-102v-213h-158zM668 698h133q123 0 123 107q0 102 -121 102h-135v-209z" />
<glyph unicode="&#xaf;" horiz-adv-x="901" d="M119 1174v188h663v-188h-663z" />
<glyph unicode="&#xb0;" horiz-adv-x="532" d="M72 1188q0 80 57 137t137 57t137.5 -57t57.5 -137t-57.5 -137.5t-137.5 -57.5t-137 57.5t-57 137.5zM170 1188q0 -41 27.5 -68.5t68.5 -27.5t68.5 27.5t27.5 68.5t-27.5 68.5t-68.5 27.5t-68.5 -27.5t-27.5 -68.5z" />
<glyph unicode="&#xb1;" horiz-adv-x="1024" d="M88 41v219h313v197h-313v219h313v315h222v-315h313v-219h-313v-197h313v-219h-848z" />
<glyph unicode="&#xb2;" horiz-adv-x="630" d="M78 1106v129q186 119 254.5 196.5t68.5 141.5q0 117 -120 117q-63 0 -164 -48l-39 105q121 66 241 65q109 0 167.5 -59t58.5 -151q0 -102 -68.5 -189.5t-208.5 -185.5v-2h287v-119h-477z" />
<glyph unicode="&#xb3;" horiz-adv-x="651" d="M78 1151l39 104q123 -59 200 -59q61 0 90 28.5t29 63.5q0 100 -135 101h-92v110h86q125 0 125 105q0 37 -24.5 62.5t-71.5 25.5q-72 0 -191 -60l-41 105q113 66 244 65q94 0 156.5 -48t62.5 -134q0 -117 -121 -160v-2q141 -37 141 -172q0 -96 -66.5 -148.5t-189.5 -52.5 q-141 0 -241 66z" />
<glyph unicode="&#xb4;" horiz-adv-x="593" d="M121 1147l102 287h232l-181 -287h-153z" />
<glyph unicode="&#xb5;" d="M-147 -412l24 205q61 -10 92 -10q66 0 91.5 27.5t25.5 95.5v1118h266v-641q0 -88 42 -136t122 -48q90 0 215 80v745h266v-1024h-266v133h-4q-141 -154 -334 -153q-23 0 -41 2v-105q0 -158 -69.5 -232.5t-251.5 -74.5q-76 0 -178 18z" />
<glyph unicode="&#xb6;" horiz-adv-x="1157" d="M61 999q0 182 113 288t299 106h596v-97h-168v-1296h-110v1296h-129v-692h-189q-184 0 -298 109.5t-114 285.5z" />
<glyph unicode="&#xb7;" horiz-adv-x="440" d="M88 365v294h264v-294h-264z" />
<glyph unicode="&#xb8;" horiz-adv-x="602" d="M113 -406l16 95q66 -12 96 -13q49 0 74 24t25 56.5t-27 55t-78 30.5v158h98v-109q170 -20 170 -149q0 -76 -56 -124t-152 -48q-82 -1 -166 24z" />
<glyph unicode="&#xb9;" horiz-adv-x="610" d="M78 1696q141 51 215 112h96v-591h143v-111h-419v111h143v440l-145 -64z" />
<glyph unicode="&#xba;" horiz-adv-x="651" d="M78 1130.5q0 266.5 247.5 266.5t247.5 -266.5t-247.5 -266.5t-247.5 266.5zM217 1130q0 -156 108.5 -155.5t108.5 155.5q0 158 -108.5 158t-108.5 -158z" />
<glyph unicode="&#xbb;" horiz-adv-x="1495" d="M88 41v281l322 190l-322 190v281l602 -391v-160zM805 41v281l321 190l-321 190v281l602 -391v-160z" />
<glyph unicode="&#xbc;" horiz-adv-x="1638" d="M109 1286q141 51 215 113h96v-592h143v-111h-420v111h144v440l-146 -63zM475 0l758 1393h82l-758 -1393h-82zM993 160v112q182 199 281 424h168v-424h88v-112h-88v-160h-135v160h-314zM1130 272h177v248h-2q-62 -113 -175 -248z" />
<glyph unicode="&#xbd;" horiz-adv-x="1638" d="M109 1286q141 51 215 113h96v-592h143v-111h-420v111h144v440l-146 -63zM414 0l757 1393h82l-757 -1393h-82zM1053 0v129q186 119 254.5 196.5t68.5 141.5q0 117 -121 117q-63 0 -163 -47l-39 104q121 66 241 66q109 0 167.5 -59.5t58.5 -151.5q0 -102 -69 -189.5 t-208 -185.5v-2h287v-119h-477z" />
<glyph unicode="&#xbe;" horiz-adv-x="1638" d="M109 741l38 105q123 -59 201 -60q61 0 90 29t29 64q0 100 -135 100h-92v111h86q125 0 125 104q0 37 -25 62.5t-72 25.5q-72 0 -190 -59l-41 104q113 66 244 66q94 0 156.5 -48.5t62.5 -134.5q0 -117 -121 -159v-2q141 -37 141 -172q0 -96 -67.5 -148.5t-188.5 -52.5 q-141 -1 -241 65zM475 0l758 1393h82l-758 -1393h-82zM993 160v112q182 199 281 424h168v-424h88v-112h-88v-160h-135v160h-314zM1130 272h177v248h-2q-62 -113 -175 -248z" />
<glyph unicode="&#xbf;" horiz-adv-x="1024" d="M88 -16q0 96 36 169.5t88 118.5t104.5 82t88 82t35.5 96v62h236v-62q0 -90 -33 -158.5t-79 -109.5t-92 -75.5t-79 -78.5t-33 -98q0 -152 203 -151q119 0 297 57l76 -227q-201 -80 -428 -80q-121 0 -208 35t-131 93t-62.5 117.5t-18.5 127.5zM426 727v297h264v-297h-264z " />
<glyph unicode="&#xc0;" horiz-adv-x="1331" d="M47 0l449 1403h344l444 -1403h-311l-94 315h-441l-94 -315h-297zM379 1782h233l103 -287h-154zM496 551h325l-157 500h-2z" />
<glyph unicode="&#xc1;" horiz-adv-x="1331" d="M47 0l449 1403h344l444 -1403h-311l-94 315h-441l-94 -315h-297zM496 551h325l-157 500h-2zM606 1495l103 287h231l-180 -287h-154z" />
<glyph unicode="&#xc2;" horiz-adv-x="1331" d="M47 0l449 1403h344l444 -1403h-311l-94 315h-441l-94 -315h-297zM356 1495l219 287h162l221 -287h-151l-150 121l-149 -121h-152zM496 551h325l-157 500h-2z" />
<glyph unicode="&#xc3;" horiz-adv-x="1331" d="M47 0l449 1403h344l444 -1403h-311l-94 315h-441l-94 -315h-297zM311 1561q96 203 221 202q53 0 146.5 -40t124.5 -40h6q72 0 127 60l70 -82q-80 -162 -197 -162q-41 0 -135 36t-135 36q-68 0 -146 -74zM496 551h325l-157 500h-2z" />
<glyph unicode="&#xc4;" horiz-adv-x="1331" d="M47 0l449 1403h344l444 -1403h-311l-94 315h-441l-94 -315h-297zM299 1516v266h233v-266h-233zM496 551h325l-157 500h-2zM791 1516v266h233v-266h-233z" />
<glyph unicode="&#xc5;" horiz-adv-x="1331" d="M47 0l449 1403h344l444 -1403h-311l-94 315h-441l-94 -315h-297zM463 1679q0 80 57.5 137.5t137 57.5t137 -57.5t57.5 -137.5t-57.5 -137t-137 -57t-137 57t-57.5 137zM496 551h325l-157 500h-2zM561 1679q0 -41 27.5 -68.5t68.5 -27.5t69 27.5t28 68.5t-28 69t-69 28 t-68.5 -28t-27.5 -69z" />
<glyph unicode="&#xc6;" horiz-adv-x="1896" d="M47 0l668 1393h1083v-250h-659v-299h567v-250h-567v-344h669v-250h-950v387h-348l-182 -387h-281zM604 606h254v535h-4z" />
<glyph unicode="&#xc7;" horiz-adv-x="1269" d="M88 707q0 158 28.5 278.5t96.5 221t191.5 153.5t302.5 53q242 0 501 -76l-63 -235q-260 61 -416 61q-184 0 -265 -118.5t-81 -337.5q0 -233 80 -355.5t266 -122.5q156 0 416 62l63 -236q-244 -72 -471 -75v-89q170 -20 170 -149q0 -76 -55 -124t-154 -48q-84 0 -163 24 l14 95q66 -12 98 -13q47 0 72.5 24t25.5 56.5t-26.5 55t-77.5 30.5v140q-158 10 -269.5 69.5t-172 161.5t-86 222t-25.5 272z" />
<glyph unicode="&#xc8;" horiz-adv-x="1146" d="M109 0v1393h940v-250h-660v-299h567v-250h-567v-344h670v-250h-950zM354 1782h234l102 -287h-153z" />
<glyph unicode="&#xc9;" horiz-adv-x="1146" d="M109 0v1393h940v-250h-660v-299h567v-250h-567v-344h670v-250h-950zM477 1495l103 287h231l-180 -287h-154z" />
<glyph unicode="&#xca;" horiz-adv-x="1146" d="M109 0v1393h940v-250h-660v-299h567v-250h-567v-344h670v-250h-950zM301 1495l219 287h162l221 -287h-151l-150 121l-149 -121h-152z" />
<glyph unicode="&#xcb;" horiz-adv-x="1146" d="M109 0v1393h940v-250h-660v-299h567v-250h-567v-344h670v-250h-950zM213 1516v266h233v-266h-233zM705 1516v266h233v-266h-233z" />
<glyph unicode="&#xcc;" horiz-adv-x="495" d="M0 1782h233l103 -287h-154zM109 0v1393h280v-1393h-280z" />
<glyph unicode="&#xcd;" horiz-adv-x="495" d="M109 0v1393h280v-1393h-280zM174 1495l102 287h232l-180 -287h-154z" />
<glyph unicode="&#xce;" horiz-adv-x="495" d="M-51 1495l219 287h162l221 -287h-152l-149 121l-150 -121h-151zM106 0v1393h281v-1393h-281z" />
<glyph unicode="&#xcf;" horiz-adv-x="495" d="M-113 1516v266h234v-266h-234zM111 0v1393h280v-1393h-280zM379 1516v266h233v-266h-233z" />
<glyph unicode="&#xd0;" horiz-adv-x="1361" d="M6 627v159h133v607h518q174 0 297 -50.5t191.5 -146.5t98.5 -215t30 -274q0 -158 -30 -280t-97.5 -221.5t-191.5 -152.5t-298 -53h-518v627h-133zM420 250h237q186 0 254 114.5t68 342.5q0 225 -67.5 330.5t-254.5 105.5h-237v-357h225v-159h-225v-377z" />
<glyph unicode="&#xd1;" horiz-adv-x="1331" d="M109 0v1393h280l557 -875h4v875h273v-1393h-295l-543 844h-4v-844h-272zM338 1561q96 203 221 202q53 0 146.5 -40t123.5 -40h7q72 0 127 60l69 -82q-82 -162 -196 -162q-41 0 -135.5 36t-135.5 36q-68 0 -145 -74z" />
<glyph unicode="&#xd2;" horiz-adv-x="1413" d="M88 707q0 158 28.5 278.5t96.5 221t191.5 153.5t302 53t302.5 -53t191.5 -153.5t96 -221.5t28.5 -278q0 -160 -28.5 -284t-96 -227.5t-191.5 -159.5t-302.5 -56t-302 56t-191.5 159.5t-96.5 227.5t-28.5 284zM383 707q0 -90 7 -158t27.5 -133.5t56.5 -107.5t94.5 -67.5 t138 -25.5t138 25.5t94.5 67.5t56.5 107.5t27.5 133t7 158.5q0 233 -66.5 352t-257 119t-257 -119t-66.5 -352zM485 1782h234l102 -287h-153z" />
<glyph unicode="&#xd3;" horiz-adv-x="1413" d="M88 707q0 158 28.5 278.5t96.5 221t191.5 153.5t302 53t302.5 -53t191.5 -153.5t96 -221.5t28.5 -278q0 -160 -28.5 -284t-96 -227.5t-191.5 -159.5t-302.5 -56t-302 56t-191.5 159.5t-96.5 227.5t-28.5 284zM383 707q0 -90 7 -158t27.5 -133.5t56.5 -107.5t94.5 -67.5 t138 -25.5t138 25.5t94.5 67.5t56.5 107.5t27.5 133t7 158.5q0 233 -66.5 352t-257 119t-257 -119t-66.5 -352zM625 1495l102 287h231l-180 -287h-153z" />
<glyph unicode="&#xd4;" horiz-adv-x="1413" d="M88 707q0 158 28.5 278.5t96.5 221t191.5 153.5t302 53t302.5 -53t191.5 -153.5t96 -221.5t28.5 -278q0 -160 -28.5 -284t-96 -227.5t-191.5 -159.5t-302.5 -56t-302 56t-191.5 159.5t-96.5 227.5t-28.5 284zM383 707q0 -90 7 -158t27.5 -133.5t56.5 -107.5t94.5 -67.5 t138 -25.5t138 25.5t94.5 67.5t56.5 107.5t27.5 133t7 158.5q0 233 -66.5 352t-257 119t-257 -119t-66.5 -352zM408 1495l219 287h161l222 -287h-152l-149 121l-150 -121h-151z" />
<glyph unicode="&#xd5;" horiz-adv-x="1413" d="M88 707q0 158 28.5 278.5t96.5 221t191.5 153.5t302 53t302.5 -53t191.5 -153.5t96 -221.5t28.5 -278q0 -160 -28.5 -284t-96 -227.5t-191.5 -159.5t-302.5 -56t-302 56t-191.5 159.5t-96.5 227.5t-28.5 284zM358 1561q96 203 222 202q53 0 146 -40t124 -40h6 q72 0 127 60l70 -82q-82 -162 -197 -162q-41 0 -135 36t-135 36q-68 0 -146 -74zM383 707q0 -90 7 -158t27.5 -133.5t56.5 -107.5t94.5 -67.5t138 -25.5t138 25.5t94.5 67.5t56.5 107.5t27.5 133t7 158.5q0 233 -66.5 352t-257 119t-257 -119t-66.5 -352z" />
<glyph unicode="&#xd6;" horiz-adv-x="1413" d="M88 707q0 158 28.5 278.5t96.5 221t191.5 153.5t302 53t302.5 -53t191.5 -153.5t96 -221.5t28.5 -278q0 -160 -28.5 -284t-96 -227.5t-191.5 -159.5t-302.5 -56t-302 56t-191.5 159.5t-96.5 227.5t-28.5 284zM352 1516v266h234v-266h-234zM383 707q0 -90 7 -158 t27.5 -133.5t56.5 -107.5t94.5 -67.5t138 -25.5t138 25.5t94.5 67.5t56.5 107.5t27.5 133t7 158.5q0 233 -66.5 352t-257 119t-257 -119t-66.5 -352zM844 1516v266h233v-266h-233z" />
<glyph unicode="&#xd7;" horiz-adv-x="1077" d="M102 262l281 281l-281 280l156 156l281 -281l280 281l156 -156l-281 -280l281 -281l-156 -156l-280 281l-281 -281z" />
<glyph unicode="&#xd8;" horiz-adv-x="1413" d="M72 -8l151 190q-135 176 -135 525q0 158 28.5 278.5t96.5 221t191.5 153.5t302.5 53q250 0 399 -117l154 195l79 -66l-157 -198q143 -168 143 -520q0 -160 -28.5 -284t-96 -227.5t-191.5 -159.5t-302 -56q-260 0 -412 129l-141 -181zM383 707q0 -184 37 -275l522 658 q-78 88 -235 88q-190 0 -257 -119t-67 -352zM465 319q74 -104 242 -104q80 0 138 25.5t94 67.5t56.5 107.5t27.5 133t7 158.5q0 182 -41 276z" />
<glyph unicode="&#xd9;" horiz-adv-x="1310" d="M109 492v901h280v-901q0 -276 268 -277q150 0 207.5 73.5t57.5 203.5v901h280v-901q0 -262 -144.5 -387t-402.5 -125q-260 0 -403 125t-143 387zM393 1782h234l102 -287h-154z" />
<glyph unicode="&#xda;" horiz-adv-x="1310" d="M109 492v901h280v-901q0 -276 268 -277q150 0 207.5 73.5t57.5 203.5v901h280v-901q0 -262 -144.5 -387t-402.5 -125q-260 0 -403 125t-143 387zM575 1495l103 287h231l-180 -287h-154z" />
<glyph unicode="&#xdb;" horiz-adv-x="1310" d="M109 492v901h280v-901q0 -276 268 -277q150 0 207.5 73.5t57.5 203.5v901h280v-901q0 -262 -144.5 -387t-402.5 -125q-260 0 -403 125t-143 387zM354 1495l219 287h162l221 -287h-151l-150 121l-149 -121h-152z" />
<glyph unicode="&#xdc;" horiz-adv-x="1310" d="M109 492v901h280v-901q0 -276 268 -277q150 0 207.5 73.5t57.5 203.5v901h280v-901q0 -262 -144.5 -387t-402.5 -125q-260 0 -403 125t-143 387zM291 1516v266h233v-266h-233zM782 1516v266h234v-266h-234z" />
<glyph unicode="&#xdd;" horiz-adv-x="1269" d="M47 1393h320l274 -617h4l273 617h305l-447 -901v-492h-282v492zM580 1495l102 287h231l-180 -287h-153z" />
<glyph unicode="&#xde;" horiz-adv-x="1228" d="M109 0v1393h280v-236h297q217 0 346 -124t129 -326q0 -207 -128 -329t-347 -122h-297v-256h-280zM389 506h266q96 0 156.5 49t60.5 152q0 100 -60 150t-157 50h-266v-401z" />
<glyph unicode="&#xdf;" horiz-adv-x="1320" d="M31 836v172l139 16q0 117 40 200t111.5 127t153.5 63.5t180 19.5q444 0 445 -308q0 -76 -38 -138t-82 -96t-82 -73t-38 -71q0 -35 21.5 -54.5t66.5 -38.5q176 -66 246 -148.5t70 -191.5q0 -174 -125 -254.5t-312 -80.5q-135 0 -264 40l33 205q125 -41 223 -41 q88 0 126 39t38 88q0 41 -27.5 77t-53 51.5t-77 40t-57.5 28.5q-92 51 -125 92t-33 119q0 66 45 123t91.5 114.5t46.5 122.5q0 74 -46.5 109t-113.5 35q-199 0 -199 -254v-969h-264v836h-139z" />
<glyph unicode="&#xe0;" horiz-adv-x="1034" d="M57 295q0 90 38 154.5t102.5 99.5t136.5 50t153 15h195v72q0 78 -48 108.5t-153 30.5q-125 0 -321 -41l-39 213q240 47 422 47q209 0 306 -72.5t97 -269.5v-702h-264v102h-4q-121 -123 -303 -122q-150 0 -234 88t-84 227zM309 1434h234l102 -287h-153zM322 317 q0 -66 45 -99.5t114 -33.5q115 0 201 64v209h-180q-180 -1 -180 -140z" />
<glyph unicode="&#xe1;" horiz-adv-x="1034" d="M57 295q0 90 38 154.5t102.5 99.5t136.5 50t153 15h195v72q0 78 -48 108.5t-153 30.5q-125 0 -321 -41l-39 213q240 47 422 47q209 0 306 -72.5t97 -269.5v-702h-264v102h-4q-121 -123 -303 -122q-150 0 -234 88t-84 227zM322 317q0 -66 45 -99.5t114 -33.5q115 0 201 64 v209h-180q-180 -1 -180 -140zM461 1147l102 287h232l-181 -287h-153z" />
<glyph unicode="&#xe2;" horiz-adv-x="1034" d="M57 295q0 90 38 154.5t102.5 99.5t136.5 50t153 15h195v72q0 78 -48 108.5t-153 30.5q-125 0 -321 -41l-39 213q240 47 422 47q209 0 306 -72.5t97 -269.5v-702h-264v102h-4q-121 -123 -303 -122q-150 0 -234 88t-84 227zM252 1147l219 287h162l221 -287h-152l-149 121 l-150 -121h-151zM322 317q0 -66 45 -99.5t114 -33.5q115 0 201 64v209h-180q-180 -1 -180 -140z" />
<glyph unicode="&#xe3;" horiz-adv-x="1034" d="M57 295q0 90 38 154.5t102.5 99.5t136.5 50t153 15h195v72q0 78 -48 108.5t-153 30.5q-125 0 -321 -41l-39 213q240 47 422 47q209 0 306 -72.5t97 -269.5v-702h-264v102h-4q-121 -123 -303 -122q-150 0 -234 88t-84 227zM197 1212q96 203 221 203q53 0 146 -40t124 -40 h6q72 0 127 60l70 -82q-80 -162 -197 -162q-41 0 -135 36t-135 36q-68 0 -145 -74zM322 317q0 -66 45 -99.5t114 -33.5q115 0 201 64v209h-180q-180 -1 -180 -140z" />
<glyph unicode="&#xe4;" horiz-adv-x="1034" d="M57 295q0 90 38 154.5t102.5 99.5t136.5 50t153 15h195v72q0 78 -48 108.5t-153 30.5q-125 0 -321 -41l-39 213q240 47 422 47q209 0 306 -72.5t97 -269.5v-702h-264v102h-4q-121 -123 -303 -122q-150 0 -234 88t-84 227zM322 317q0 -66 45 -99.5t114 -33.5q115 0 201 64 v209h-180q-180 -1 -180 -140zM188 1167v267h233v-267h-233zM680 1167v267h233v-267h-233z" />
<glyph unicode="&#xe5;" horiz-adv-x="1034" d="M57 295q0 90 38 154.5t102.5 99.5t136.5 50t153 15h195v72q0 78 -48 108.5t-153 30.5q-125 0 -321 -41l-39 213q240 47 422 47q209 0 306 -72.5t97 -269.5v-702h-264v102h-4q-121 -123 -303 -122q-150 0 -234 88t-84 227zM322 317q0 -66 45 -99.5t114 -33.5q115 0 201 64 v209h-180q-180 -1 -180 -140zM359 1331q0 80 57 137.5t137 57.5t137.5 -57.5t57.5 -137.5t-57.5 -137t-137.5 -57t-137 57t-57 137zM457 1331q0 -41 27.5 -68.5t68.5 -27.5t68.5 27.5t27.5 68.5t-27.5 68.5t-68.5 27.5t-68.5 -27.5t-27.5 -68.5z" />
<glyph unicode="&#xe6;" horiz-adv-x="1699" d="M55 295q0 170 126 244.5t304 74.5h195v62q0 84 -44 115.5t-155 31.5q-135 0 -321 -39l-41 213q274 47 411 47q248 0 334 -94q127 94 344 94q156 0 255.5 -51t135 -134t45 -188.5t-13.5 -215.5h-661q14 -256 282 -256q180 0 318 41l33 -213q-172 -47 -390 -47 q-332 0 -448 188q-168 -188 -391 -188q-150 0 -234 88t-84 227zM322 317q0 -66 45 -99.5t114 -33.5q131 0 221 80q-18 80 -22 191h-178q-180 -1 -180 -138zM969 621h403q31 219 -180 219q-203 0 -223 -219z" />
<glyph unicode="&#xe7;" horiz-adv-x="983" d="M68 512q0 258 120.5 395t405.5 137q162 0 358 -49l-47 -211q-170 41 -311 41q-121 0 -183.5 -79.5t-62.5 -233.5q0 -152 63.5 -232.5t182.5 -80.5q141 0 311 41l47 -213q-186 -45 -346 -47v-89q170 -20 170 -149q0 -76 -56 -124t-153 -48q-84 0 -166 24l17 95 q66 -12 98 -13q47 0 72.5 24t25.5 56.5t-27.5 56t-76.5 29.5v142q-238 18 -340 153t-102 375z" />
<glyph unicode="&#xe8;" d="M68 512q0 532 526 532q125 0 214 -33.5t135 -87t67.5 -133t20.5 -157.5t-15 -176h-662q14 -258 283 -258q182 0 317 41l33 -213q-172 -47 -387 -47q-283 0 -407.5 138t-124.5 394zM330 1434h233l103 -287h-154zM354 621h404q31 219 -178 219q-206 0 -226 -219z" />
<glyph unicode="&#xe9;" d="M68 512q0 532 526 532q125 0 214 -33.5t135 -87t68 -132.5q21 -76 20 -151q0 -78 -15 -183h-662q14 -258 283 -258q182 0 317 41l33 -213q-172 -47 -387 -47q-283 0 -407.5 138t-124.5 394zM354 621h404q4 28 4 52q0 167 -182 167q-206 0 -226 -219zM543 1147l102 287 h232l-181 -287h-153z" />
<glyph unicode="&#xea;" d="M68 512q0 532 526 532q125 0 214 -33.5t135 -87t67.5 -133t20.5 -157.5t-15 -176h-662q14 -258 283 -258q182 0 317 41l33 -213q-172 -47 -387 -47q-283 0 -407.5 138t-124.5 394zM291 1147l219 287h162l221 -287h-152l-149 121l-150 -121h-151zM354 621h404 q31 219 -178 219q-206 0 -226 -219z" />
<glyph unicode="&#xeb;" d="M68 512q0 532 526 532q125 0 214 -33.5t135 -87t68 -132.5q21 -76 20 -151q0 -78 -15 -183h-662q14 -258 283 -258q182 0 317 41l33 -213q-172 -47 -387 -47q-283 0 -407.5 138t-124.5 394zM354 621h404q4 28 4 52q0 167 -182 167q-206 0 -226 -219zM219 1167v267h233 v-267h-233zM711 1167v267h233v-267h-233z" />
<glyph unicode="&#xec;" horiz-adv-x="440" d="M-35 1434h234l102 -287h-154zM88 0v1024h264v-1024h-264z" />
<glyph unicode="&#xed;" horiz-adv-x="440" d="M88 0v1024h264v-1024h-264zM152 1147l102 287h232l-181 -287h-153z" />
<glyph unicode="&#xee;" horiz-adv-x="440" d="M-80 1147l219 287h162l221 -287h-151l-150 121l-149 -121h-152zM88 0v1024h264v-1024h-264z" />
<glyph unicode="&#xef;" horiz-adv-x="440" d="M-141 1167v267h233v-267h-233zM90 0v1024h264v-1024h-264zM350 1167v267h234v-267h-234z" />
<glyph unicode="&#xf0;" horiz-adv-x="1126" d="M66 451q0 229 113.5 355t314.5 126q174 0 294 -146l5 2q0 197 -97 302l-112 -115l-90 92l86 88q-74 37 -152 37q-139 0 -287 -55l-32 202q180 74 344 74q176 0 307 -78l149 150l90 -90l-133 -135q193 -193 193 -646q0 -174 -48 -312t-167 -230t-297 -92q-215 0 -348 127 t-133 344zM348 451q0 -119 60.5 -185.5t150.5 -66.5q215 0 215 309q0 25 -4 82q-96 111 -205 110q-119 0 -168 -73.5t-49 -175.5z" />
<glyph unicode="&#xf1;" d="M86 0v1024h266v-133h4q143 154 334 153q152 0 229.5 -91t77.5 -253v-700h-266v639q0 184 -164 184q-98 0 -215 -80v-743h-266zM201 1212q96 203 221 203q53 0 146 -40t124 -40h6q72 0 127 60l70 -82q-80 -162 -197 -162q-41 0 -135 36t-135 36q-68 0 -145 -74z" />
<glyph unicode="&#xf2;" horiz-adv-x="1126" d="M68 512q0 532 495.5 532t495.5 -532t-495.5 -532t-495.5 532zM317 1434h234l102 -287h-153zM348 512q0 -154 48 -233.5t167 -79.5t167 79.5t48 233.5t-48 233.5t-167 79.5t-167 -79.5t-48 -233.5z" />
<glyph unicode="&#xf3;" horiz-adv-x="1126" d="M68 512q0 532 495.5 532t495.5 -532t-495.5 -532t-495.5 532zM348 512q0 -154 48 -233.5t167 -79.5t167 79.5t48 233.5t-48 233.5t-167 79.5t-167 -79.5t-48 -233.5zM496 1147l102 287h232l-181 -287h-153z" />
<glyph unicode="&#xf4;" horiz-adv-x="1126" d="M68 512q0 532 495.5 532t495.5 -532t-495.5 -532t-495.5 532zM262 1147l219 287h162l221 -287h-151l-150 121l-149 -121h-152zM348 512q0 -154 48 -233.5t167 -79.5t167 79.5t48 233.5t-48 233.5t-167 79.5t-167 -79.5t-48 -233.5z" />
<glyph unicode="&#xf5;" horiz-adv-x="1126" d="M68 512q0 532 495.5 532t495.5 -532t-495.5 -532t-495.5 532zM348 512q0 -154 48 -233.5t167 -79.5t167 79.5t48 233.5t-48 233.5t-167 79.5t-167 -79.5t-48 -233.5zM219 1212q96 203 221 203q53 0 146 -40t124 -40h6q72 0 127 60l70 -82q-80 -162 -197 -162 q-41 0 -135 36t-135 36q-68 0 -145 -74z" />
<glyph unicode="&#xf6;" horiz-adv-x="1126" d="M68 512q0 532 495.5 532t495.5 -532t-495.5 -532t-495.5 532zM348 512q0 -154 48 -233.5t167 -79.5t167 79.5t48 233.5t-48 233.5t-167 79.5t-167 -79.5t-48 -233.5zM201 1167v267h233v-267h-233zM693 1167v267h233v-267h-233z" />
<glyph unicode="&#xf7;" horiz-adv-x="1024" d="M88 463v160h848v-160h-848zM395 72v266h234v-266h-234zM395 748v266h234v-266h-234z" />
<glyph unicode="&#xf8;" horiz-adv-x="1126" d="M51 -8l121 141q-104 133 -104 379q0 532 495 532q195 0 311 -88l119 140l82 -64l-123 -143q106 -133 107 -377q0 -532 -496 -532q-190 0 -313 86l-119 -138zM348 530q0 -111 19 -165l344 401q-53 59 -148 59q-117 0 -165 -76t-50 -219zM414 256q51 -57 149 -57 q119 0 167 79.5t48 229.5q0 82 -22 149z" />
<glyph unicode="&#xf9;" d="M86 322v702h266v-641q0 -82 43 -133t121 -51q90 0 215 80v745h266v-1024h-266v133h-4q-141 -154 -334 -153q-150 0 -228.5 91t-78.5 251zM266 1434h234l102 -287h-153z" />
<glyph unicode="&#xfa;" d="M86 322v702h266v-641q0 -82 43 -133t121 -51q90 0 215 80v745h266v-1024h-266v133h-4q-141 -154 -334 -153q-150 0 -228.5 91t-78.5 251zM475 1147l102 287h232l-181 -287h-153z" />
<glyph unicode="&#xfb;" d="M86 322v702h266v-641q0 -82 43 -133t121 -51q90 0 215 80v745h266v-1024h-266v133h-4q-141 -154 -334 -153q-150 0 -228.5 91t-78.5 251zM244 1147l219 287h162l221 -287h-152l-149 121l-150 -121h-151z" />
<glyph unicode="&#xfc;" d="M86 322v702h266v-641q0 -82 43 -133t121 -51q90 0 215 80v745h266v-1024h-266v133h-4q-141 -154 -334 -153q-150 0 -228.5 91t-78.5 251zM180 1167v267h233v-267h-233zM672 1167v267h233v-267h-233z" />
<glyph unicode="&#xfd;" horiz-adv-x="1146" d="M51 1024h297l236 -748h4l225 748h283l-363 -1061q-72 -217 -177 -305t-280 -88q-104 0 -184 18l25 219q55 -10 98 -10q72 0 129 51.5t86 137.5zM514 1147l102 287h232l-181 -287h-153z" />
<glyph unicode="&#xfe;" d="M86 -410v1844h266v-512h4q51 55 129 88.5t160 33.5q373 0 373 -532q0 -240 -93.5 -386t-295.5 -146q-168 0 -273 114h-4v-504h-266zM352 262q84 -63 185 -63q201 0 200 313q0 311 -200 311q-100 0 -185 -63v-498z" />
<glyph unicode="&#xff;" horiz-adv-x="1146" d="M51 1024h297l236 -748h4l225 748h283l-363 -1061q-72 -217 -177 -305t-280 -88q-104 0 -184 18l25 219q55 -10 98 -10q72 0 129 51.5t86 137.5zM219 1167v267h234v-267h-234zM711 1167v267h233v-267h-233z" />
<glyph unicode="&#x131;" horiz-adv-x="440" d="M88 0v1024h264v-1024h-264z" />
<glyph unicode="&#x152;" horiz-adv-x="2068" d="M86 707q0 125 17.5 225t60.5 192.5t112.5 153.5t178 98t252.5 37q182 0 299 -72v52h964v-252h-659v-297h567v-250h-567v-344h669v-250h-976v53q-102 -74 -297 -73q-178 0 -303 56t-193 159.5t-96.5 227.5t-28.5 284zM383 707q0 -90 7 -158t27.5 -133.5t56.5 -107.5 t94.5 -67.5t138 -25.5t138 25.5t93.5 67.5t55.5 107.5t27.5 133t7 158.5q0 113 -12 191.5t-46 146t-99.5 100.5t-163.5 33q-190 0 -257 -119t-67 -352z" />
<glyph unicode="&#x153;" horiz-adv-x="1800" d="M68 512q0 532 495 532q238 0 361 -129q129 129 385 129q125 0 214 -33.5t135 -87t67.5 -133t20.5 -157.5t-15 -176h-662q14 -258 283 -258q180 0 317 41l33 -213q-172 -47 -389 -47q-258 0 -389 126q-123 -127 -361 -126q-495 0 -495 532zM348 512q0 -154 48 -233.5 t167 -79.5t167 79.5t48 233.5t-48 233.5t-167 79.5t-167 -79.5t-48 -233.5zM1069 621h404q27 219 -181 219q-203 0 -223 -219z" />
<glyph unicode="&#x178;" horiz-adv-x="1269" d="M47 1393h320l274 -617h4l273 617h305l-447 -901v-492h-282v492zM287 1516v266h233v-266h-233zM778 1516v266h234v-266h-234z" />
<glyph unicode="&#x2c6;" horiz-adv-x="860" d="M129 1147l219 287h162l221 -287h-151l-150 121l-149 -121h-152z" />
<glyph unicode="&#x2da;" horiz-adv-x="614" d="M113 1331q0 80 57 137.5t137 57.5t137.5 -57.5t57.5 -137.5t-57.5 -137t-137.5 -57t-137 57t-57 137zM211 1331q0 -41 27.5 -68.5t68.5 -27.5t68.5 27.5t27.5 68.5t-27.5 68.5t-68.5 27.5t-68.5 -27.5t-27.5 -68.5z" />
<glyph unicode="&#x2dc;" horiz-adv-x="921" d="M115 1212q96 203 221 203q53 0 146 -40t124 -40h6q72 0 127 60l70 -82q-80 -162 -197 -162q-41 0 -135 36t-135 36q-68 0 -145 -74z" />
<glyph unicode="&#x2013;" horiz-adv-x="1228" d="M88 432v221h1053v-221h-1053z" />
<glyph unicode="&#x2014;" horiz-adv-x="1433" d="M88 432v221h1258v-221h-1258z" />
<glyph unicode="&#x2018;" horiz-adv-x="440" d="M88 829v297l127 267h82l-51 -267h106v-297h-264z" />
<glyph unicode="&#x2019;" horiz-adv-x="440" d="M88 1096v297h264v-297l-127 -267h-82l52 267h-107z" />
<glyph unicode="&#x201a;" horiz-adv-x="440" d="M88 0v297h264v-297l-127 -266h-82l52 266h-107z" />
<glyph unicode="&#x201c;" horiz-adv-x="890" d="M88 829v297l127 267h82l-51 -267h106v-297h-264zM539 829v297l127 267h82l-52 -267h107v-297h-264z" />
<glyph unicode="&#x201d;" horiz-adv-x="890" d="M88 1096v297h264v-297l-127 -267h-82l52 267h-107zM539 1096v297h264v-297l-127 -267h-82l51 267h-106z" />
<glyph unicode="&#x201e;" horiz-adv-x="890" d="M88 0v297h264v-297l-127 -266h-82l52 266h-107zM539 0v297h264v-297l-127 -266h-82l51 266h-106z" />
<glyph unicode="&#x2022;" horiz-adv-x="471" d="M88 365v294h264v-294h-264z" />
<glyph unicode="&#x2026;" horiz-adv-x="1341" d="M129 0v297h264v-297h-264zM539 0v297h264v-297h-264zM948 0v297h264v-297h-264z" />
<glyph unicode="&#x2039;" horiz-adv-x="778" d="M88 432v160l602 391v-281l-321 -190l321 -190v-281z" />
<glyph unicode="&#x203a;" horiz-adv-x="778" d="M88 41v281l322 190l-322 190v281l602 -391v-160z" />
<glyph unicode="&#x20ac;" horiz-adv-x="1433" d="M86 473v158h145q-2 25 -2 76q0 35 2 53h-145v158h166q49 227 200.5 361t397.5 134q276 0 506 -174l-94 -213q-180 135 -367 135q-248 0 -328 -243h359l-19 -158h-379q-2 -18 -2 -53q0 -51 4 -76h396l-19 -158h-336q88 -244 324 -244q186 0 367 136l94 -211 q-221 -174 -506 -174q-240 0 -390.5 134t-203.5 359h-170z" />
<glyph unicode="&#x2122;" horiz-adv-x="1638" d="M72 1249v144h561v-144h-203v-561h-158v561h-200zM774 688v705h223l172 -441h2l162 441h223v-705h-159v442h-4l-172 -442h-123l-170 442h-4v-442h-150z" />
<glyph unicode="&#xe000;" horiz-adv-x="1025" d="M0 1025h1025v-1025h-1025v1025z" />
<glyph unicode="&#xfb01;" horiz-adv-x="1126" d="M31 836v172l139 16v55q0 174 96 264.5t332 90.5q98 0 212 -20.5t177 -49.5l-24 -188q-147 45 -334 45q-123 0 -159 -36t-36 -112v-49h604v-1024h-264v836h-340v-836h-264v836h-139z" />
<glyph unicode="&#xfb02;" horiz-adv-x="1126" d="M31 836v172l139 16v55q0 174 97.5 264.5t330.5 90.5q141 0 252 -35h188v-1399h-264v1198q-72 23 -145 23q-119 0 -157 -36t-38 -112v-49h225v-188h-225v-836h-264v836h-139z" />
<glyph unicode="&#xfb03;" horiz-adv-x="1724" d="M31 836v172l139 16v104q0 158 68.5 232t253.5 74q72 0 178 -19l-25 -207q-61 10 -114.5 10.5t-75 -23.5t-21.5 -83v-88h334v55q0 174 97.5 264.5t332.5 90.5q98 0 212 -20.5t177 -49.5l-26 -188q-143 45 -332 45q-123 0 -159 -36t-36 -112v-49h604v-1024h-266v836h-338 v-836h-266v836h-334v-836h-264v836h-139z" />
<glyph unicode="&#xfb04;" horiz-adv-x="1724" d="M31 836v172l139 16v104q0 158 68.5 232t253.5 74q72 0 178 -19l-25 -207q-61 10 -114.5 10.5t-75 -23.5t-21.5 -83v-88h334v55q0 174 98.5 264.5t331.5 90.5q139 0 250 -35h190v-1399h-266v1198q-72 23 -143 23q-119 0 -157 -36t-38 -112v-49h226v-188h-226v-836h-266 v836h-334v-836h-264v836h-139z" />
</font>
</defs>
</svg>
